<svg xmlns="http://www.w3.org/2000/svg" width="59" height="54" viewBox="0 0 59 54" fill="none">
<g clip-path="url(#clip0_10_195)">
<path d="M15.8353 15.4315C15.582 15.453 15.3286 15.3903 15.1146 15.2531C14.9006 15.1158 14.7379 14.9117 14.6517 14.6725C14.5656 14.4333 14.5609 14.1723 14.6384 13.9302C14.7158 13.688 14.871 13.4782 15.08 13.3333C20.4723 8.92713 29.5154 7.03877 29.8931 6.91288C30.0489 6.85051 30.2164 6.82286 30.3839 6.83186C30.5515 6.84086 30.7151 6.88629 30.8633 6.96498C31.0115 7.04368 31.1407 7.15374 31.242 7.28751C31.3433 7.42127 31.4142 7.57552 31.4498 7.7395C31.4854 7.90348 31.4848 8.07324 31.448 8.23696C31.4113 8.40068 31.3393 8.55442 31.237 8.68745C31.1348 8.82049 31.0047 8.92963 30.856 9.00726C30.7072 9.08489 30.5433 9.12915 30.3757 9.13695C30.3757 9.13695 21.5004 11.0463 16.5697 15.1587C16.3642 15.3325 16.1044 15.429 15.8353 15.4315Z" fill="#00D6D6"/>
<path d="M35.2015 53.7441C32.0542 53.7441 31.0051 49.7156 29.7043 45.3514C28.7391 41.9104 27.6061 38.0078 25.7597 38.0078C23.9133 38.0078 22.6124 41.9104 21.5633 45.3724C20.3464 49.5688 19.2134 53.7651 16.0661 53.7651C10.5059 53.7651 5.78503 43.589 5.26049 42.414C4.98772 41.8685 -2.04117 27.7267 1.06413 15.0118C3.89667 3.70258 16.5907 6.05254 22.6754 7.16457C23.5746 7.36322 24.4857 7.50339 25.403 7.58421C26.3845 7.51925 27.3595 7.37895 28.3195 7.16457C30.3994 6.74337 32.5007 6.43519 34.614 6.24137C34.9177 6.22904 35.2147 6.3328 35.4446 6.53156C35.6746 6.73032 35.8202 7.00917 35.8519 7.31144C35.8634 7.46307 35.8447 7.61546 35.7971 7.75986C35.7494 7.90426 35.6737 8.03782 35.5742 8.15285C35.4748 8.26789 35.3536 8.36214 35.2176 8.43019C35.0816 8.49824 34.9336 8.53874 34.7819 8.54937C32.7321 8.732 30.6939 9.02618 28.6762 9.4306C27.64 9.65853 26.5878 9.80584 25.5289 9.87122C24.4063 9.82007 23.2902 9.67265 22.1928 9.4306C16.3599 8.36053 5.53325 6.34628 3.30918 15.5573C0.392713 27.4749 7.33768 41.26 7.42161 41.4068C9.1631 45.3095 12.9818 51.4361 16.1291 51.4361C17.5348 51.4361 18.5629 47.7643 19.4022 44.8059C20.6611 40.3578 21.962 35.7627 25.5709 35.7627C29.1797 35.7627 30.6694 40.3578 31.8654 44.7849C32.7047 47.7434 33.7328 51.4152 35.1386 51.4152C38.2019 51.4152 42.1045 45.2885 43.825 41.4278C46.566 35.7374 48.2035 29.5789 48.6508 23.2786C48.6508 22.9725 48.7724 22.679 48.9888 22.4626C49.2052 22.2462 49.4988 22.1246 49.8048 22.1246C50.1109 22.1246 50.4044 22.2462 50.6208 22.4626C50.8372 22.679 50.9588 22.9725 50.9588 23.2786C50.5602 29.8945 48.8859 36.3709 46.0281 42.351C45.4826 43.547 40.7617 53.7441 35.2015 53.7441ZM47.329 8.52839C43.3634 8.52839 37.5515 3.17803 36.8381 2.56956C36.6565 2.37549 36.5553 2.11973 36.555 1.85394C36.5547 1.58816 36.6553 1.33216 36.8364 1.13768C37.0176 0.943201 37.2658 0.824731 37.531 0.806207C37.7961 0.787683 38.0584 0.870487 38.2648 1.03789C39.8595 2.54858 44.5594 6.43021 47.266 6.43021C49.9727 6.43021 54.7565 2.54858 56.3092 1.03789C56.4084 0.94145 56.5256 0.865494 56.6541 0.814357C56.7827 0.76322 56.92 0.737902 57.0584 0.739851C57.1967 0.741799 57.3333 0.770975 57.4604 0.825712C57.5874 0.88045 57.7024 0.959677 57.7989 1.05887C57.8953 1.15806 57.9713 1.27528 58.0224 1.40383C58.0736 1.53238 58.0989 1.66974 58.0969 1.80807C58.095 1.9464 58.0658 2.08299 58.0111 2.21005C57.9563 2.33711 57.8771 2.45214 57.7779 2.54858C57.0435 3.15705 51.4834 8.52839 47.329 8.52839Z" fill="#00D6D6"/>
<path d="M57.0435 22.2715C56.903 22.2723 56.7637 22.2449 56.6339 22.1908C56.5042 22.1367 56.3866 22.0572 56.2882 21.9568C55.6797 21.3273 50.3084 15.6622 50.3084 11.4659C50.3084 7.26951 55.6587 1.68836 56.2672 0.974976C56.4613 0.793372 56.717 0.692198 56.9828 0.691895C57.2486 0.691592 57.5046 0.792182 57.6991 0.973343C57.8936 1.1545 58.012 1.40273 58.0306 1.66787C58.0491 1.93301 57.9663 2.19529 57.7989 2.40174C56.3092 3.99635 52.4066 8.69627 52.4066 11.4029C52.4066 14.1096 56.2882 18.8305 57.7989 20.3831C57.9439 20.531 58.0418 20.7186 58.0804 20.9221C58.119 21.1256 58.0965 21.3359 58.0157 21.5266C57.9349 21.7174 57.7995 21.8799 57.6265 21.9938C57.4535 22.1077 57.2507 22.1678 57.0435 22.1666V22.2715Z" fill="#00D6D6"/>
<path d="M37.6144 22.2715C37.4047 22.2728 37.1995 22.2112 37.0251 22.0947C36.8508 21.9782 36.7154 21.8121 36.6363 21.6179C36.5573 21.4237 36.5383 21.2103 36.5817 21.0052C36.6252 20.8 36.7291 20.6126 36.88 20.4671C37.5095 19.8586 43.1746 14.4873 47.3709 14.4873C51.5673 14.4873 57.0435 19.8377 57.7569 20.4671C57.9385 20.6612 58.0397 20.9169 58.04 21.1827C58.0403 21.4485 57.9397 21.7045 57.7585 21.899C57.5774 22.0935 57.3292 22.2119 57.064 22.2305C56.7989 22.249 56.5366 22.1662 56.3301 21.9988C54.7355 20.4881 50.0356 16.6065 47.329 16.6065C44.6223 16.6065 39.9014 20.4881 38.3488 21.9988C38.1484 22.1811 37.8852 22.2789 37.6144 22.2715Z" fill="#00D6D6"/>
<path d="M37.6144 22.2715C37.4114 22.2688 37.2136 22.2073 37.0449 22.0945C36.8762 21.9816 36.7439 21.8223 36.6639 21.6357C36.584 21.4492 36.5598 21.2434 36.5945 21.0434C36.6291 20.8434 36.721 20.6578 36.8591 20.509C38.3488 18.9144 42.2514 14.2145 42.2514 11.5078C42.2514 8.80115 38.3488 4.08025 36.8591 2.5276C36.6643 2.32727 36.5571 2.05777 36.561 1.7784C36.565 1.49902 36.6797 1.23265 36.88 1.03789C37.0804 0.843123 37.3499 0.735916 37.6292 0.739851C37.9086 0.743786 38.175 0.85854 38.3697 1.05887C38.9782 1.68832 44.3496 7.35341 44.3496 11.5498C44.3496 15.7461 38.9992 21.3273 38.3907 22.0407C38.2831 22.1287 38.159 22.1944 38.0257 22.234C37.8925 22.2736 37.7526 22.2864 37.6144 22.2715Z" fill="#00D6D6"/>
</g>
<defs>
<clipPath id="clip0_10_195">
<rect width="58" height="53" fill="white" transform="translate(0.242676 0.744141)"/>
</clipPath>
</defs>
</svg>