<svg xmlns="http://www.w3.org/2000/svg" width="60" height="60" viewBox="0 0 71 71" fill="none">
<path d="M19.5609 38.9453C19.5055 44.9732 19.8234 47.0651 21.3295 48.8972C23.326 51.3259 27.7982 52.59 36.1851 52.59C44.5719 52.59 49.0441 51.3259 51.0407 48.8972C52.5467 47.0651 52.8646 44.9732 52.8092 38.9453C49.3069 39.6692 45.8034 40.1644 42.2993 40.4306C42.2512 42.3217 40.7031 43.84 38.8004 43.84H33.5697C31.667 43.84 30.1189 42.3217 30.0708 40.4306C26.5667 40.1644 23.0633 39.6692 19.5609 38.9453ZM19.5933 35.3761L19.9461 35.4505C23.3216 36.1622 26.696 36.652 30.0697 36.92V36.84C30.0697 34.907 31.6367 33.34 33.5697 33.34H38.8004C40.7334 33.34 42.3004 34.907 42.3004 36.84V36.92C45.6741 36.652 49.0485 36.1622 52.424 35.4505L52.7769 35.3761C52.5205 24.7296 45.3355 15.84 36.1851 15.84C27.0346 15.84 19.8497 24.7296 19.5933 35.3761ZM36.1851 56.09C26.851 56.09 21.4641 54.5673 18.6317 51.1219C16.3347 48.3278 15.9822 45.7044 16.0726 38.3485C16.0865 37.2164 16.0917 36.6455 16.0917 35.965C16.0917 23.2828 24.7327 12.34 36.1851 12.34C47.6374 12.34 56.2785 23.2828 56.2785 35.965C56.2785 36.6455 56.2836 37.2164 56.2975 38.3485C56.3879 45.7044 56.0354 48.3278 53.7384 51.1219C50.906 54.5673 45.5191 56.09 36.1851 56.09Z" fill="#ff5955"/>
</svg>