<svg xmlns="http://www.w3.org/2000/svg" width="74" height="74" viewBox="0 0 74 74" fill="none">
<g clip-path="url(#clip0_1_149)">
<path d="M13.3864 41.3555H13.1302L8.0963 40.605C7.83171 40.5686 7.59243 40.4285 7.43109 40.2157C7.26974 40.0029 7.19956 39.7346 7.23597 39.4701C7.27238 39.2055 7.4124 38.9662 7.62524 38.8048C7.83808 38.6435 8.10629 38.5733 8.37087 38.6097L13.3864 39.3053L13.5146 35.6443C13.5073 35.5673 13.4746 35.4948 13.4215 35.4385C13.3685 35.3821 13.2982 35.345 13.2217 35.3331L8.49901 34.7291C8.24747 34.6825 8.02309 34.542 7.87145 34.3359C7.71981 34.1299 7.65227 33.8739 7.68257 33.6199C7.71286 33.3659 7.83871 33.1329 8.03455 32.9684C8.2304 32.8038 8.48154 32.7199 8.73697 32.7339L13.4596 33.3196C14.0276 33.3906 14.5505 33.6654 14.9309 34.0931C15.3114 34.5207 15.5236 35.072 15.5281 35.6443V39.3053C15.5081 39.5983 15.4259 39.8838 15.2871 40.1426C15.1482 40.4014 14.9558 40.6277 14.7227 40.8063C14.356 41.1413 13.8827 41.3358 13.3864 41.3555Z" fill="#00D6D6"/>
<path d="M14.1185 46.2063H13.8805C12.5626 46.2063 8.18772 45.9866 7.52874 44.1012C6.73474 40.9272 6.69087 37.6118 7.4006 34.4179C8.26094 28.8898 11.0616 24.881 13.8439 24.881C14.6059 24.9431 15.3401 25.1951 15.9797 25.614C16.6192 26.0329 17.1436 26.6053 17.5049 27.279C20.3788 31.4342 21.8615 39.9826 20.3788 43.8815C19.5551 45.8768 16.2236 46.2063 14.1185 46.2063ZM13.8439 26.8946C12.526 26.8946 10.183 29.6769 9.39584 34.7291C8.74412 37.5969 8.74412 40.5744 9.39584 43.4422C11.7462 44.2654 14.2733 44.4486 16.7178 43.9731C17.9808 43.7168 18.4202 43.3507 18.5483 43.186C19.793 39.8911 18.3836 32.02 15.9124 28.4322C15.107 27.4437 14.4114 26.8946 13.8439 26.8946Z" fill="#00D6D6"/>
<path d="M29.8058 49.2998H27.719C26.4743 49.2998 20.214 48.6591 19.4635 46.4991C18.5666 43.9364 18.7313 40.2755 19.9394 35.2965C21.4404 29.1095 25.3394 24.6431 28.9821 24.881C30.9224 25.0092 32.7529 26.4736 34.2539 29.1278C37.0545 34.0335 38.5189 42.8748 36.2491 47.2313C35.3705 48.9154 32.3685 49.2998 29.8058 49.2998ZM28.7258 26.8946C26.456 26.8946 23.2343 30.1894 21.8981 35.6992C20.7998 40.2205 20.6167 43.607 21.3672 45.7669C21.9347 46.4259 27.3529 47.5974 31.7278 47.1947C33.5583 46.9934 34.3454 46.5357 34.4735 46.2978C36.304 42.948 35.2423 34.9304 32.5332 30.1162C31.3983 28.1027 30.0987 26.9678 28.8722 26.8763H28.7258V26.8946ZM58.5628 46.2062C56.4577 46.2062 53.0713 45.8768 52.3757 43.8998C50.893 39.9826 52.3757 31.4342 55.2496 27.279C55.6043 26.615 56.1173 26.0488 56.7431 25.6305C57.3689 25.2123 58.0883 24.9548 58.8374 24.881C61.6929 24.881 64.3289 28.8898 65.2624 34.4179C65.9795 37.6103 65.9419 40.9259 65.1526 44.1012C64.4936 45.9317 60.137 46.1879 58.8008 46.2062H58.5628ZM58.8374 26.8946C58.2699 26.8946 57.5743 27.4437 56.8971 28.4322C54.4076 32.0932 52.9981 39.8911 54.2428 43.1859C54.2428 43.3507 54.7554 43.7168 56.0733 43.9731C58.5242 44.4791 61.0696 44.2564 63.3953 43.3324C64.0151 40.4981 64.0151 37.5633 63.3953 34.7291C62.4984 29.6769 60.1553 26.8946 58.8374 26.8946Z" fill="#00D6D6"/>
<path d="M42.8756 49.2998C40.3129 49.2998 37.3841 48.9154 36.4323 47.2313C34.1808 42.8748 35.6269 34.0335 38.4275 29.1461C39.9285 26.4736 41.7407 25.0092 43.6993 24.881H44.0105C47.6715 24.881 51.3325 29.2559 52.7786 35.2233C54.005 40.2023 54.1514 43.8632 53.2545 46.4259C52.504 48.5676 46.2437 49.1351 44.999 49.2266C44.3583 49.2815 43.6261 49.2998 42.8756 49.2998ZM43.8092 26.8946C42.601 26.8946 41.3014 28.121 40.1482 30.1346C37.4207 34.9487 36.4872 42.948 38.1896 46.3161C38.3177 46.5541 39.0316 47.0117 40.9353 47.213C45.2919 47.6524 50.7284 46.4442 51.3325 45.6937C52.0464 43.6253 51.8633 40.2023 50.7467 35.7176C49.502 30.0796 46.1339 26.7115 43.8092 26.8946ZM59.3683 41.3555C58.8575 41.3607 58.3625 41.1783 57.9772 40.8429C57.7597 40.6499 57.5853 40.4132 57.4654 40.1483C57.3456 39.8833 57.2829 39.5961 57.2816 39.3053V35.6443C57.2798 35.0771 57.4823 34.5281 57.852 34.0978C58.2218 33.6676 58.734 33.3849 59.2951 33.3013L63.9995 32.7155C64.1308 32.6977 64.2644 32.7064 64.3923 32.7412C64.5203 32.776 64.6399 32.8362 64.744 32.9182C64.8482 33.0002 64.9348 33.1022 64.9987 33.2184C65.0627 33.3345 65.1026 33.4623 65.1161 33.5942C65.1471 33.8587 65.072 34.1247 64.9073 34.3339C64.7427 34.5432 64.5018 34.6787 64.2374 34.7108L59.5148 35.2965C59.4383 35.3084 59.368 35.3455 59.3149 35.4018C59.2619 35.4582 59.2291 35.5307 59.2219 35.6077V39.2687L64.3107 38.628C64.5744 38.5964 64.8402 38.6684 65.0519 38.8289C65.2636 38.9894 65.4048 39.2258 65.4456 39.4884C65.4636 39.6194 65.4557 39.7527 65.4222 39.8806C65.3888 40.0086 65.3304 40.1287 65.2505 40.2341C65.1706 40.3395 65.0708 40.4281 64.9566 40.4949C64.8425 40.5616 64.7163 40.6053 64.5852 40.6233L59.6429 41.3555H59.3683ZM29.751 42.6917H29.6412L25.9802 42.5087C25.4072 42.467 24.8713 42.2096 24.4807 41.7883C24.09 41.3671 23.8736 40.8134 23.8751 40.2389V36.5779C23.8721 36.2864 23.9291 35.9974 24.0426 35.7289C24.1561 35.4604 24.3237 35.2181 24.5349 35.0172C24.7461 34.8163 24.9965 34.661 25.2703 34.5611C25.5441 34.4611 25.8356 34.4186 26.1266 34.4362L29.7876 34.6193C30.3656 34.6563 30.908 34.9112 31.3054 35.3324C31.7029 35.7536 31.9258 36.3099 31.9293 36.8891V40.55C31.9317 40.8304 31.8786 41.1085 31.7729 41.3683C31.6673 41.628 31.5113 41.8642 31.3139 42.0633C31.1165 42.2625 30.8816 42.4205 30.6227 42.5284C30.3639 42.6362 30.0863 42.6917 29.8059 42.6917H29.751ZM25.9802 36.4497L25.852 40.2389C25.8519 40.3038 25.8764 40.3663 25.9205 40.4139C25.9647 40.4615 26.0253 40.4905 26.09 40.4951L29.751 40.6782H29.8425V36.9257C29.8427 36.8608 29.8182 36.7982 29.774 36.7506C29.7299 36.7031 29.6693 36.674 29.6046 36.6694L25.9802 36.4497Z" fill="#00D6D6"/>
<path d="M43.1501 42.6917C42.8697 42.6917 42.592 42.6362 42.3332 42.5284C42.0744 42.4205 41.8395 42.2625 41.6421 42.0634C41.4447 41.8642 41.2887 41.628 41.183 41.3683C41.0774 41.1085 41.0243 40.8304 41.0267 40.5501V36.8891C41.0301 36.3099 41.2531 35.7536 41.6505 35.3324C42.048 34.9112 42.5904 34.6563 43.1684 34.6193L46.8293 34.4362C47.1207 34.4202 47.4122 34.4639 47.6861 34.5646C47.9599 34.6654 48.2103 34.821 48.4219 35.022C48.6324 35.2224 48.7994 35.4639 48.9128 35.7316C49.0261 35.9992 49.0833 36.2872 49.0809 36.5779V40.2389C49.0818 40.8193 48.8603 41.378 48.462 41.8002C48.0636 42.2224 47.5187 42.4759 46.9392 42.5087L43.2782 42.6917H43.1501ZM46.9941 36.5596H43.205C43.1417 36.568 43.0833 36.5982 43.0399 36.6449C42.9965 36.6917 42.9707 36.7521 42.967 36.8159V40.4768H46.7561C46.8209 40.4722 46.8814 40.4432 46.9256 40.3956C46.9698 40.348 46.9943 40.2855 46.9941 40.2206V36.5596ZM64.5302 37.4748C64.2892 37.4678 64.0587 37.3745 63.8807 37.2119C63.7027 37.0493 63.589 36.8282 63.5601 36.5888C63.5313 36.3494 63.5894 36.1077 63.7237 35.9075C63.8581 35.7073 64.0598 35.5619 64.2922 35.4979C66.8314 34.9132 69.2901 34.0219 71.6142 32.8437C71.8569 32.715 72.1408 32.6881 72.4035 32.7688C72.6661 32.8494 72.8859 33.0311 73.0145 33.2739C73.1432 33.5166 73.1701 33.8005 73.0895 34.0631C73.0088 34.3257 72.8271 34.5455 72.5844 34.6742C70.1159 35.9321 67.5035 36.8849 64.8048 37.5114L64.5302 37.4748Z" fill="#00D6D6"/>
<path d="M48.0741 39.9093C47.8071 39.9093 47.551 39.8033 47.3622 39.6145C47.1734 39.4257 47.0674 39.1696 47.0674 38.9026C47.0674 38.6356 47.1734 38.3795 47.3622 38.1907C47.551 38.0019 47.8071 37.8958 48.0741 37.8958C51.7351 37.6212 55.1032 37.2368 58.1967 36.7243C58.3278 36.7026 58.4617 36.707 58.5911 36.7372C58.7204 36.7673 58.8425 36.8226 58.9504 36.9C59.0584 36.9773 59.15 37.0752 59.2201 37.1879C59.2902 37.3007 59.3375 37.4261 59.3591 37.5572C59.3807 37.6882 59.3764 37.8222 59.3462 37.9515C59.3161 38.0808 59.2607 38.2029 59.1834 38.3108C59.1061 38.4188 59.0082 38.5104 58.8955 38.5805C58.7827 38.6507 58.6572 38.6979 58.5262 38.7195C55.3778 39.2321 51.8998 39.6348 48.2206 39.9093H48.0741ZM36.2308 40.3487H31.0689C30.8018 40.3487 30.5458 40.2426 30.357 40.0538C30.1682 39.865 30.0621 39.6089 30.0621 39.3419C30.0621 39.0749 30.1682 38.8188 30.357 38.63C30.5458 38.4412 30.8018 38.3351 31.0689 38.3351C34.5468 38.4449 38.0796 38.4449 41.5942 38.3351C41.7282 38.3221 41.8635 38.3377 41.991 38.3809C42.1186 38.424 42.2355 38.4938 42.3341 38.5855C42.4328 38.6772 42.5108 38.7887 42.5631 38.9128C42.6154 39.0369 42.6408 39.1707 42.6376 39.3053C42.6425 39.4375 42.6212 39.5694 42.5751 39.6934C42.529 39.8175 42.4589 39.9312 42.3688 40.0281C42.2787 40.125 42.1704 40.2032 42.05 40.2582C41.9297 40.3132 41.7996 40.3439 41.6674 40.3487C39.8918 40.312 38.0613 40.3487 36.2308 40.3487ZM24.8452 39.9459C21.1842 39.6714 17.7795 39.287 14.686 38.7927C14.555 38.7711 14.4295 38.7239 14.3167 38.6538C14.204 38.5836 14.1061 38.492 14.0288 38.3841C13.9515 38.2761 13.8961 38.154 13.866 38.0247C13.8358 37.8954 13.8315 37.7614 13.8531 37.6304C13.8747 37.4994 13.922 37.3739 13.9921 37.2611C14.0622 37.1484 14.1538 37.0505 14.2618 36.9732C14.3697 36.8959 14.4918 36.8405 14.6211 36.8104C14.7505 36.7803 14.8844 36.7759 15.0155 36.7975C18.0541 37.2917 21.4222 37.6761 25.0099 37.9324C25.2769 37.9324 25.533 38.0385 25.7218 38.2273C25.9106 38.4161 26.0167 38.6722 26.0167 38.9392C26.0167 39.2062 25.9106 39.4623 25.7218 39.6511C25.533 39.8399 25.2769 39.9459 25.0099 39.9459H24.8452ZM8.16941 37.4382H7.91314C5.35936 36.8239 2.89756 35.8761 0.591178 34.6192C0.378491 34.4771 0.227886 34.2593 0.169956 34.0102C0.112026 33.761 0.151117 33.4991 0.279286 33.2777C0.407456 33.0563 0.615092 32.8921 0.860016 32.8182C1.10494 32.7444 1.36878 32.7666 1.59795 32.8803C3.75178 34.0342 6.04711 34.9018 8.42568 35.4612C8.65933 35.526 8.86178 35.6728 8.99583 35.8748C9.12987 36.0769 9.18652 36.3205 9.15535 36.5609C9.12418 36.8013 9.0073 37.0225 8.82617 37.1836C8.64504 37.3448 8.41184 37.4352 8.16941 37.4382Z" fill="#00D6D6"/>
</g>
<defs>
<clipPath id="clip0_1_149">
<rect width="73" height="73" fill="white" transform="translate(0.0786133 0.590393)"/>
</clipPath>
</defs>
</svg>
