<svg xmlns="http://www.w3.org/2000/svg" width="53" height="54" viewBox="0 0 53 54" fill="none">
<g clip-path="url(#clip0_10_133)">
<path d="M35.9034 51.7223C32.6655 51.7223 31.5862 47.5778 30.2479 43.088C29.255 39.5479 28.0893 35.5114 26.1898 35.5114H25.9955C24.0744 35.5114 22.9304 39.5264 21.9374 43.088C20.6854 47.4051 19.5198 51.7223 16.282 51.7223C10.5617 51.7223 5.70496 41.2532 5.16531 40.0444C4.8847 39.4832 -2.34652 24.9344 0.84817 11.8535C3.84858 0.218763 16.9079 2.63636 23.1894 3.80199C24.1146 4.00588 25.0519 4.15009 25.9955 4.23371C27.0052 4.16629 28.0082 4.02196 28.9959 3.80199C35.2774 2.63636 48.4231 0.218762 51.2292 11.8751C54.5103 25.0208 47.2791 39.5048 46.9121 40.1308C46.4804 41.2532 41.6236 51.7223 35.9034 51.7223ZM25.9955 33.2449H26.1898C29.9025 33.2449 31.2409 37.9722 32.536 42.5484C33.3994 45.5919 34.4571 49.3694 35.9034 49.3694C39.4434 49.3694 43.6526 41.7713 44.8399 39.0946C44.8399 38.9004 52.0063 24.7186 48.9412 12.4363C46.5667 2.96015 35.4285 5.03238 29.514 6.13325C28.448 6.36757 27.3655 6.51912 26.2761 6.58655C25.1212 6.53403 23.973 6.38237 22.844 6.13325C16.7784 4.92445 5.61861 2.96015 3.24418 12.4363C0.0926697 24.7186 7.23754 38.9004 7.32389 39.0299C9.1155 43.0664 13.0441 49.3479 16.282 49.3479C17.7282 49.3479 18.7859 45.5704 19.6493 42.5268C20.9445 37.9722 22.2828 33.2449 25.9955 33.2449Z" fill="#00D6D6"/>
<path d="M14.9437 12.501C14.685 12.5177 14.4279 12.4493 14.2118 12.3062C13.9957 12.1631 13.8323 11.9532 13.7467 11.7085C13.661 11.4638 13.6578 11.1979 13.7376 10.9512C13.8173 10.7045 13.9755 10.4907 14.1882 10.3425C19.7141 5.78789 29.0175 3.802 29.4061 3.71566C29.7152 3.64982 30.0379 3.70949 30.303 3.88153C30.5682 4.05358 30.7541 4.32391 30.82 4.63305C30.8858 4.9422 30.8261 5.26483 30.6541 5.52998C30.482 5.79513 30.2117 5.98108 29.9026 6.04692C29.9026 6.04692 20.7718 8.01122 15.6992 12.242C15.4848 12.413 15.2178 12.5045 14.9437 12.501ZM38.58 20.5525C37.2976 20.5525 36.0678 20.0431 35.161 19.1363C34.2542 18.2295 33.7448 16.9997 33.7448 15.7173C33.7448 15.4311 33.8585 15.1566 34.0609 14.9541C34.2633 14.7517 34.5379 14.638 34.8241 14.638C35.1103 14.638 35.3849 14.7517 35.5873 14.9541C35.7897 15.1566 35.9034 15.4311 35.9034 15.7173C35.9034 16.2467 36.0604 16.7642 36.3545 17.2044C36.6486 17.6445 37.0666 17.9876 37.5557 18.1902C38.0448 18.3928 38.583 18.4458 39.1022 18.3425C39.6214 18.2392 40.0983 17.9843 40.4727 17.61C40.847 17.2356 41.1019 16.7587 41.2052 16.2395C41.3085 15.7203 41.2555 15.1821 41.0529 14.693C40.8503 14.2039 40.5072 13.7859 40.0671 13.4918C39.6269 13.1977 39.1094 13.0407 38.58 13.0407C38.2938 13.0407 38.0193 12.927 37.8168 12.7246C37.6144 12.5222 37.5007 12.2476 37.5007 11.9614C37.5007 11.6752 37.6144 11.4006 37.8168 11.1982C38.0193 10.9958 38.2938 10.8821 38.58 10.8821C39.8624 10.8821 41.0922 11.3915 41.999 12.2983C42.9058 13.2051 43.4152 14.4349 43.4152 15.7173C43.4152 16.9997 42.9058 18.2295 41.999 19.1363C41.0922 20.0431 39.8624 20.5525 38.58 20.5525Z" fill="#00D6D6"/>
</g>
<defs>
<clipPath id="clip0_10_133">
<rect width="52" height="53" fill="white" transform="translate(0.0926819 0.74408)"/>
</clipPath>
</defs>
</svg>