<svg xmlns="http://www.w3.org/2000/svg" width="89" height="53" viewBox="0 0 89 53" fill="none">
<g clip-path="url(#clip0_10_106)">
<path d="M57.2877 51.6374C54.2122 51.6374 53.1871 47.7008 51.9159 43.4361C50.9522 40.0735 49.8655 36.2394 48.0613 36.2394C46.257 36.2394 44.9858 40.053 43.9606 43.4361C42.7714 47.5367 41.6642 51.6374 38.5888 51.6374C33.1554 51.6374 28.5422 41.6933 28.0296 40.5451C27.763 40.012 20.8944 26.1928 23.9289 13.7679C26.8404 2.69609 39.2449 4.95145 45.2113 6.09963C46.09 6.29364 46.9803 6.43061 47.8767 6.5097C48.8358 6.44606 49.7886 6.30897 50.7267 6.09963C56.6931 4.99246 69.1796 2.69609 71.845 13.7679C72.0524 14.6064 72.2166 15.4549 72.3371 16.3103C72.3994 16.468 72.4252 16.6377 72.4128 16.8068C72.4004 16.976 72.35 17.1401 72.2654 17.287C72.1807 17.434 72.0641 17.56 71.924 17.6556C71.784 17.7512 71.6242 17.814 71.4565 17.8393C71.2888 17.8646 71.1176 17.8518 70.9556 17.8017C70.7935 17.7517 70.6449 17.6658 70.5206 17.5504C70.3964 17.435 70.2998 17.293 70.238 17.1351C70.1762 16.9772 70.1508 16.8074 70.1638 16.6383C70.0408 15.8592 69.8972 15.0801 69.7127 14.3214C67.4573 5.32051 56.8777 7.28882 51.2598 8.33449C50.2471 8.5565 49.2189 8.70044 48.1843 8.76506C47.0873 8.71517 45.9966 8.57112 44.9243 8.33449C39.2244 7.28882 28.6447 5.32051 26.4713 14.3214C23.5599 25.9673 30.2644 39.4584 30.3464 39.5815C32.0687 43.3951 35.8618 49.382 38.8553 49.382C40.229 49.382 41.2337 45.7939 42.0538 42.903C43.284 38.5563 44.5552 34.0661 48.0818 34.0661C51.6083 34.0661 53.0641 38.5563 54.2327 42.903C55.0529 45.7939 56.0575 49.382 57.4312 49.382C60.4247 49.382 64.2383 43.3951 65.9196 39.6225C65.9196 39.6225 66.4322 38.5973 67.0883 36.9775C67.2314 36.7573 67.4469 36.5939 67.6977 36.5156C67.9484 36.4373 68.2186 36.449 68.4616 36.5486C68.7047 36.6483 68.9053 36.8296 69.0289 37.0614C69.1525 37.2932 69.1913 37.5608 69.1386 37.8182C68.4415 39.561 67.9084 40.5861 67.9084 40.5861C67.3343 41.6728 62.7211 51.6374 57.2877 51.6374Z" fill="#00D6D6"/>
<path d="M87.325 37.5106H86.9764L54.4993 26.9924C54.2175 26.8986 53.984 26.6975 53.8497 26.4326C53.7153 26.1677 53.6909 25.8605 53.7817 25.5777L55.9345 18.8936C56.0253 18.6105 56.2243 18.3747 56.4881 18.2375C56.7643 18.1258 57.0731 18.1258 57.3492 18.2375L85.1722 27.218C85.3721 27.358 85.5213 27.5591 85.5972 27.7912C85.6731 28.0232 85.6716 28.2736 85.5931 28.5047C85.5145 28.7359 85.363 28.9353 85.1614 29.073C84.9598 29.2106 84.7189 29.2792 84.475 29.2683L57.8208 20.6364L56.3651 25.1881L87.7761 35.3168C88.0269 35.4031 88.2393 35.575 88.3758 35.8024C88.5124 36.0298 88.5645 36.298 88.5229 36.56C88.4813 36.822 88.3486 37.0609 88.1483 37.2348C87.9479 37.4086 87.6927 37.5063 87.4275 37.5106H87.325ZM24.7491 5.36149C24.5709 5.36155 24.3952 5.31939 24.2365 5.23847L19.7668 2.9011C19.6321 2.83513 19.5118 2.74329 19.4127 2.63083C19.3135 2.51836 19.2375 2.38747 19.189 2.24563C19.1404 2.10379 19.1203 1.95378 19.1297 1.80415C19.1392 1.65453 19.178 1.50823 19.2439 1.3736C19.3099 1.23898 19.4017 1.11866 19.5142 1.01953C19.6267 0.920394 19.7575 0.844382 19.8994 0.795833C20.0412 0.747283 20.1912 0.727147 20.3409 0.736573C20.4905 0.745999 20.6368 0.784803 20.7714 0.85077L25.2616 3.10613C25.4512 3.23629 25.5965 3.42129 25.6779 3.63634C25.7594 3.85139 25.7732 4.08621 25.7174 4.3093C25.6616 4.5324 25.539 4.73311 25.3659 4.88453C25.1928 5.03594 24.9776 5.13083 24.7491 5.15645V5.36149ZM46.462 16.2282C46.2838 16.2283 46.1082 16.1861 45.9494 16.1052L39.901 13.1527C39.7663 13.0868 39.646 12.9949 39.5469 12.8825C39.4478 12.77 39.3717 12.6391 39.3232 12.4973C39.2746 12.3554 39.2545 12.2054 39.2639 12.0558C39.2734 11.9062 39.3122 11.7599 39.3781 11.6252C39.4441 11.4906 39.5359 11.3703 39.6484 11.2712C39.7609 11.172 39.8918 11.096 40.0336 11.0475C40.1754 10.9989 40.3254 10.9788 40.4751 10.9882C40.6247 10.9976 40.771 11.0364 40.9056 11.1024L47.0566 14.1369C47.2462 14.267 47.3914 14.452 47.4729 14.6671C47.5544 14.8821 47.5681 15.117 47.5124 15.3401C47.4566 15.5632 47.3339 15.7639 47.1609 15.9153C46.9878 16.0667 46.7725 16.1616 46.544 16.1872L46.462 16.2282ZM30.9615 22.2972H30.7975L20.4229 20.6979C20.2759 20.6754 20.1349 20.6241 20.0079 20.547C19.8808 20.4698 19.7703 20.3683 19.6827 20.2482C19.595 20.1282 19.532 19.992 19.4971 19.8475C19.4623 19.703 19.4564 19.553 19.4797 19.4062C19.5301 19.1119 19.6932 18.8488 19.9343 18.6727C20.1755 18.4967 20.4757 18.4215 20.7714 18.4631L31.2076 20.0418C31.4797 20.0932 31.7235 20.243 31.8923 20.4626C32.0611 20.6822 32.1432 20.9562 32.1229 21.2325C32.1027 21.5087 31.9814 21.7678 31.7824 21.9604C31.5833 22.153 31.3203 22.2656 31.0436 22.2767L30.9615 22.2972ZM13.6568 19.6523H13.4928L1.41634 17.807C1.26759 17.7869 1.12433 17.7374 0.994963 17.6613C0.865599 17.5852 0.752733 17.484 0.66298 17.3637C0.573228 17.2434 0.508396 17.1064 0.472285 16.9607C0.436174 16.815 0.429511 16.6636 0.452686 16.5153C0.503092 16.221 0.666164 15.9579 0.907312 15.7818C1.14846 15.6057 1.44872 15.5305 1.74439 15.5721L13.8208 17.4174C14.093 17.4688 14.3367 17.6186 14.5055 17.8382C14.6743 18.0578 14.7564 18.3318 14.7362 18.608C14.7159 18.8843 14.5947 19.1434 14.3956 19.336C14.1965 19.5286 13.9335 19.6411 13.6568 19.6523ZM48.3278 24.9421H48.1638L41.7873 23.9784C41.6403 23.956 41.4993 23.9047 41.3723 23.8275C41.2452 23.7503 41.1347 23.6488 41.0471 23.5287C40.9594 23.4087 40.8964 23.2725 40.8615 23.128C40.8267 22.9835 40.8208 22.8335 40.8441 22.6867C40.8945 22.3924 41.0576 22.1293 41.2987 21.9533C41.5399 21.7772 41.8401 21.702 42.1358 21.7436L48.5123 22.7072C48.7845 22.7587 49.0282 22.9084 49.197 23.128C49.3659 23.3476 49.448 23.6216 49.4277 23.8979C49.4074 24.1741 49.2862 24.4332 49.0871 24.6258C48.888 24.8184 48.6251 24.931 48.3483 24.9421H48.3278ZM16.4657 10.9794H16.1172L9.3306 8.72402C9.13061 8.584 8.98146 8.38286 8.90556 8.15083C8.82967 7.91879 8.83112 7.66839 8.90971 7.43725C8.9883 7.20611 9.13977 7.00672 9.34138 6.86903C9.54298 6.73134 9.78382 6.6628 10.0277 6.6737L16.8553 8.76503C17.1061 8.85133 17.3185 9.0233 17.4551 9.25068C17.5917 9.47807 17.6437 9.74632 17.6021 10.0083C17.5605 10.2703 17.4278 10.5092 17.2275 10.683C17.0272 10.8569 16.772 10.9546 16.5067 10.9589L16.4657 10.9794ZM38.7323 18.1555H38.3837L30.1824 15.4901C30.0076 15.4823 29.837 15.4339 29.6841 15.3487C29.5312 15.2636 29.4002 15.144 29.3015 14.9995C29.2028 14.855 29.1391 14.6895 29.1155 14.5161C29.0918 14.3427 29.1088 14.1662 29.1651 14.0005C29.2214 13.8349 29.3156 13.6846 29.44 13.5615C29.5645 13.4385 29.7159 13.3461 29.8822 13.2917C30.0485 13.2373 30.2252 13.2224 30.3983 13.2481C30.5714 13.2738 30.7362 13.3394 30.8795 13.4398L39.0808 16.1052C39.3317 16.1915 39.544 16.3635 39.6806 16.5908C39.8172 16.8182 39.8692 17.0865 39.8276 17.3485C39.786 17.6104 39.6534 17.8493 39.453 18.0232C39.2527 18.1971 38.9975 18.2947 38.7323 18.299V18.1555Z" fill="#00D6D6"/>
</g>
<defs>
<clipPath id="clip0_10_106">
<rect width="88" height="52" fill="white" transform="translate(0.452682 0.24408)"/>
</clipPath>
</defs>
</svg>