<svg xmlns="http://www.w3.org/2000/svg" width="60" height="60" viewBox="0 0 71 71" fill="none">
<path d="M55.6979 23.949C54.816 21.0185 53.4569 18.7159 51.756 17.3319C47.8322 14.1346 44.495 15.2619 41.2678 16.3512C39.5892 16.9184 37.8535 17.5045 35.8929 17.5443C34.9029 17.5247 33.9701 17.3647 33.0733 17.1384C33.5475 16.8665 34.0496 16.6421 34.5723 16.4714L35.7797 16.0768C36.6529 15.7885 37.2352 14.9717 37.2339 14.0435C37.2321 13.1154 36.6479 12.3017 35.7797 12.0184L34.5723 11.6233C32.0927 10.8121 30.1364 8.82111 29.339 6.29715L28.9494 5.06552C28.6679 4.18226 27.8674 3.58984 26.9558 3.58984C26.0404 3.59111 25.2406 4.18606 24.9615 5.06932L24.5738 6.29779C23.7764 8.82174 21.8195 10.8121 19.3387 11.6233L18.1318 12.0184C17.2636 12.3017 16.6788 13.1154 16.6776 14.0435C16.6757 14.9717 17.2587 15.7885 18.1312 16.0768L19.3399 16.472C19.7414 16.6029 20.1322 16.7685 20.5095 16.9626C20.3498 17.0802 20.1894 17.2016 20.0291 17.3319C17.8347 19.1199 16.2053 22.4304 15.4422 26.6538C14.551 31.5936 14.9295 37.3806 16.5079 42.9482C18.1672 48.8029 21.0172 54.1176 24.7496 58.3183C25.6234 59.3002 26.9117 59.7554 28.1987 59.5354C29.4925 59.3148 30.5714 58.4498 31.0853 57.2207C31.8646 55.3543 32.4972 53.6434 32.9664 52.1362C33.371 50.8331 34.5468 49.958 35.8929 49.958C36.5516 49.958 37.1786 50.1661 37.7081 50.5606C38.2382 50.9551 38.6223 51.4995 38.8199 52.1362C39.286 53.6365 39.9199 55.3467 40.7023 57.2207C41.2143 58.4479 42.2919 59.3129 43.5845 59.5348C43.7989 59.5721 44.014 59.5898 44.2265 59.5898C45.2904 59.5898 46.3077 59.1377 47.0367 58.3196C50.7698 54.117 53.6191 48.8023 55.2784 42.9482C55.4319 42.4077 56.4927 38.7937 56.97 33.5334C56.97 30.7009 56.97 27.7065 55.6979 23.949ZM26.957 8.9014C28.0495 11.1244 29.8281 12.9345 32.0125 14.0467C30.7131 14.7068 29.546 15.6185 28.579 16.7363C27.9302 17.4868 27.3877 18.3074 26.9558 19.1888C26.4431 18.1456 25.7756 17.1833 24.9783 16.3437C24.864 16.2235 24.7478 16.1059 24.6284 15.9909C24.6278 15.9909 24.6291 15.9915 24.6284 15.9909C23.8218 15.2119 22.8952 14.5544 21.899 14.0473C24.0847 12.9358 25.8645 11.125 26.957 8.9014ZM44.6789 56.1459C44.4813 56.3678 44.2402 56.3647 44.1146 56.3425C43.9854 56.3204 43.7505 56.2407 43.6312 55.955C42.8879 54.1758 42.2901 52.5617 41.8544 51.1612C41.4523 49.8632 40.6681 48.7517 39.5874 47.9481C38.5104 47.1451 37.2327 46.7203 35.8935 46.7203C35.8705 46.7203 35.8475 46.7215 35.8251 46.7222C36.5193 46.0577 37.3676 45.5911 38.3836 45.5911C39.2624 45.5911 39.9745 44.8659 39.9745 43.9725C39.9745 43.0785 39.2624 42.3533 38.3836 42.3533C32.8602 42.3533 30.6714 48.9667 30.3048 50.2236C30.1587 50.5214 30.0338 50.8337 29.9325 51.1593C29.4938 52.5692 28.8966 54.1834 28.1577 55.9537C28.0377 56.2407 27.8016 56.3204 27.6717 56.3425C27.5462 56.364 27.3063 56.3672 27.1099 56.1472C20.379 48.5715 16.8678 36.6832 18.5718 27.2386C19.1876 23.8314 20.4436 21.1418 22.0177 19.8596C22.3962 19.5523 22.7647 19.2994 23.1307 19.0984C23.2264 19.2172 23.3178 19.3393 23.4067 19.4638C23.4334 19.5005 23.4582 19.5384 23.4844 19.5757C23.549 19.6693 23.6124 19.7641 23.6733 19.8603C23.6969 19.8988 23.7217 19.9368 23.7454 19.976C23.8249 20.1068 23.9026 20.239 23.9747 20.3743C23.9753 20.3749 23.9753 20.3749 23.9759 20.3755C24.0486 20.5115 24.1164 20.6499 24.1816 20.7897C24.2003 20.8308 24.2183 20.8719 24.2369 20.913C24.2835 21.0179 24.3283 21.1235 24.3712 21.231C24.3879 21.2727 24.4047 21.3151 24.4209 21.3568C24.4756 21.5016 24.5278 21.6476 24.5744 21.7949L24.9622 23.0234C25.2412 23.9067 26.041 24.5016 26.9533 24.5029H26.9564C27.7537 24.5029 28.4671 24.0496 28.822 23.3421C28.8729 23.2409 28.9164 23.1347 28.9513 23.024L29.3403 21.7943C29.3782 21.6742 29.4198 21.5553 29.4627 21.4377C29.4745 21.4061 29.4863 21.3751 29.4981 21.3435C29.5367 21.2417 29.5771 21.1406 29.6193 21.0407C29.6261 21.0242 29.633 21.0072 29.6398 20.9907C29.6895 20.8769 29.7417 20.7644 29.7958 20.6531C29.8095 20.6253 29.8231 20.5981 29.8374 20.5703C29.8834 20.4786 29.9307 20.3876 29.9797 20.2978C29.9928 20.275 30.0052 20.2516 30.0177 20.2289C30.0786 20.1207 30.1413 20.0145 30.2066 19.9102C30.2203 19.8874 30.2352 19.8653 30.2495 19.8432C30.2799 19.7951 30.3122 19.7477 30.3439 19.7003C31.9622 20.232 33.7725 20.7454 35.8661 20.7821H35.9214C38.3793 20.7378 40.4468 20.0398 42.2708 19.424C45.2351 18.4231 47.1933 17.7612 49.768 19.859C51.3427 21.1406 52.5987 23.8302 53.2145 27.2386C54.9179 36.6826 51.408 48.569 44.6789 56.1459ZM47.8726 24.2961C47.1032 24.7273 46.8204 25.7067 47.2443 26.4901C47.3462 26.6848 49.7139 31.3616 47.1337 39.2363C46.8559 40.0841 47.3064 41.0009 48.1404 41.2842C48.3069 41.3404 48.4766 41.3676 48.6438 41.3676C49.31 41.3676 49.9308 40.9383 50.1527 40.2599C53.2021 30.9538 50.1676 25.1794 50.0371 24.9379C49.6126 24.1551 48.6425 23.8649 47.8726 24.2961ZM47.9913 43.8233C47.9515 43.7259 47.9024 43.6317 47.8452 43.5445C47.7862 43.4553 47.7191 43.3731 47.6464 43.2985C47.573 43.222 47.4916 43.1563 47.4046 43.0962C47.3182 43.038 47.2262 42.9874 47.1305 42.947C47.0336 42.9065 46.9335 42.8762 46.8335 42.8547C46.6278 42.8129 46.4165 42.8129 46.2108 42.8547C46.1089 42.8762 46.0088 42.9065 45.9137 42.947C45.8162 42.9874 45.7242 43.038 45.6384 43.0962C45.5508 43.1563 45.4694 43.2239 45.3961 43.2985C45.3234 43.3731 45.2563 43.4553 45.1991 43.5445C45.1419 43.6317 45.0922 43.7259 45.0524 43.8233C45.0126 43.9213 44.9828 44.0218 44.9623 44.1255C44.9412 44.2305 44.9306 44.336 44.9306 44.4429C44.9306 44.5478 44.9412 44.6547 44.9623 44.7584C44.9828 44.8621 45.0126 44.9639 45.0524 45.0612C45.0922 45.1586 45.1419 45.2541 45.1991 45.3413C45.2563 45.4286 45.3234 45.5127 45.3961 45.5873C45.4694 45.6619 45.5508 45.7295 45.6384 45.7877C45.7242 45.8465 45.8162 45.8964 45.9137 45.9369C46.0088 45.9774 46.1095 46.0084 46.2108 46.0292C46.3127 46.0501 46.4177 46.0615 46.5215 46.0615C46.6247 46.0615 46.7297 46.0501 46.8329 46.0292C46.9335 46.0084 47.0336 45.9774 47.1305 45.9369C47.2262 45.8964 47.3182 45.8465 47.404 45.7877C47.4916 45.7295 47.573 45.6619 47.6457 45.5873C47.7191 45.5127 47.7862 45.4286 47.8446 45.3413C47.9024 45.2541 47.9515 45.1586 47.9913 45.0612C48.031 44.9639 48.0615 44.8621 48.082 44.7584C48.1025 44.6547 48.1124 44.5478 48.1124 44.4429C48.1124 44.336 48.1025 44.2305 48.082 44.1255C48.0615 44.0218 48.031 43.9219 47.9913 43.8233Z" fill="#ff5955"/>
</svg>