<svg xmlns="http://www.w3.org/2000/svg" width="54" height="54" viewBox="0 0 54 54" fill="none">
<g clip-path="url(#clip0_1_11)">
<path d="M49.9413 25.8318H39.6938L34.0372 17.1624H19.3218L13.7062 25.8318H3.45867L3.25372 24.9505C1.90939 19.76 1.80408 14.3261 2.94629 9.0874C5.69262 -1.89791 18.0306 0.377032 23.9536 1.46327C24.8252 1.6566 25.7083 1.79352 26.5975 1.87316C27.5493 1.80883 28.4949 1.6718 29.4258 1.46327C35.3488 0.377032 47.6663 -1.91841 50.4127 9.0874C51.5608 14.3246 51.4625 19.7583 50.1257 24.9505L49.9413 25.8318ZM40.8825 23.5773H48.1377C49.2176 18.9984 49.2526 14.2351 48.2402 9.64076C45.9857 0.704951 35.4718 2.5495 29.8357 3.67672C28.8175 3.90789 27.7828 4.05865 26.741 4.12761C25.6512 4.07738 24.5678 3.93339 23.5028 3.69722C17.8871 2.5495 7.37321 0.704951 5.13926 9.64076C4.12614 14.235 4.16116 18.9985 5.24173 23.5773H12.3945L18.0921 14.8465H35.2464L40.8825 23.5773Z" fill="#00D6D6"/>
<path d="M35.9842 53.5C32.9919 53.5 31.8852 49.606 30.717 45.4865C29.7537 42.0843 28.6675 38.2517 26.782 38.2517C24.8964 38.2517 23.6257 42.1048 22.683 45.4865C21.5147 49.5855 20.408 53.5 17.4158 53.5C12.0666 53.5 7.49619 43.6214 6.98381 42.4942C5.34731 39.0562 4.09634 35.4476 3.25373 31.7343L2.9668 30.4841H16.4935L22.1296 21.7738H31.2089L36.845 30.4841H50.4946L50.2077 31.7343C49.3664 35.4611 48.1154 39.0835 46.4776 42.5352C45.9038 43.5394 41.3129 53.5 35.9842 53.5ZM26.5975 36.1818C30.2251 36.1818 31.4753 40.6292 32.746 44.9126C33.5658 47.8229 34.5905 51.4505 36.0252 51.4505C39.4274 51.4505 43.4444 44.1953 44.5921 41.6539C45.9758 38.7263 47.074 35.6721 47.8713 32.5336H35.6563L30.0202 23.8233H23.1748L17.5387 32.5336H5.54916C6.3393 35.6583 7.43064 38.699 8.80786 41.6129C10.5294 45.4455 14.362 51.4505 17.3953 51.4505C18.8299 51.4505 19.8547 47.8229 20.6745 44.9126C21.9042 40.6292 23.1543 36.1818 26.5975 36.1818Z" fill="#00D6D6"/>
</g>
<defs>
<clipPath id="clip0_1_11">
<rect width="53" height="53" fill="white" transform="translate(0.179443 0.5)"/>
</clipPath>
</defs>
</svg>