<svg xmlns="http://www.w3.org/2000/svg" width="60" height="60" viewBox="0 0 71 71" fill="none">
<path d="M16.8706 41.3309C15.6179 42.3932 15.0112 43.5465 15.0112 44.7529C15.0112 45.135 15.0045 45.4481 14.9867 46.0588C14.8993 49.0542 15.1052 49.6998 16.7107 50.5231C19.3682 51.8857 25.2778 52.5898 35.97 52.5898C46.6621 52.5898 52.5718 51.8857 55.2292 50.5231C56.8348 49.6998 57.0406 49.0542 56.9532 46.0588C56.9354 45.4481 56.9287 45.135 56.9287 44.7529C56.9287 43.5459 56.3234 42.3946 55.069 41.3311C52.9326 43.1537 50.2806 44.2465 47.338 44.2465C42.3463 44.2465 38.1912 41.102 35.97 36.5855C33.7487 41.102 29.5936 44.2465 24.602 44.2465C21.6592 44.2465 19.0071 43.1536 16.8706 41.3309ZM14.5163 38.7432C12.6091 36.0561 11.4897 32.6166 11.4897 28.9603C11.4897 28.5428 11.4865 28.1915 11.4779 27.4936C11.4198 22.7701 11.65 21.059 13.215 19.1572C15.1288 16.8313 18.6398 15.8398 24.602 15.8398C30.5444 15.8398 34.0519 16.8248 35.97 19.1341C37.888 16.8248 41.3955 15.8398 47.338 15.8398C53.3001 15.8398 56.8112 16.8313 58.725 19.1572C60.29 21.059 60.5202 22.7701 60.462 27.4936C60.4534 28.1915 60.4503 28.5428 60.4503 28.9603C60.4503 32.6165 59.3308 36.0561 57.4237 38.7431C59.3621 40.4256 60.4266 42.465 60.4266 44.7529C60.4266 45.0907 60.4327 45.3788 60.4496 45.9567C60.5724 50.1673 59.9821 52.0188 56.8244 53.6379C53.5049 55.34 47.2117 56.0898 35.97 56.0898C24.7282 56.0898 18.435 55.34 15.1155 53.6379C11.9579 52.0188 11.3675 50.1673 11.4904 45.9567C11.5072 45.3788 11.5134 45.0907 11.5134 44.7529C11.5134 42.4628 12.578 40.4252 14.5163 38.7432ZM37.719 28.1143C37.7222 28.4382 37.7235 28.6843 37.7235 28.9603C37.7235 35.37 41.9731 40.7465 47.338 40.7465C52.7028 40.7465 56.9524 35.37 56.9524 28.9603C56.9524 28.5241 56.9557 28.1623 56.9645 27.4504C57.0115 23.6272 56.8433 22.3767 56.0247 21.3819C54.9475 20.0728 52.352 19.3398 47.338 19.3398C42.3239 19.3398 39.7284 20.0728 38.6512 21.3819C38.0294 22.1376 37.7828 23.0409 37.7209 25.1075C37.7378 25.8089 37.7371 26.597 37.7261 27.4936C37.7231 27.7367 37.7207 27.9378 37.719 28.1143ZM34.2191 25.1075C34.1571 23.0409 33.9106 22.1376 33.2887 21.3819C32.2115 20.0728 29.616 19.3398 24.602 19.3398C19.588 19.3398 16.9924 20.0728 15.9153 21.3819C15.0967 22.3767 14.9284 23.6272 14.9755 27.4504C14.9842 28.1623 14.9875 28.5241 14.9875 28.9603C14.9875 35.37 19.2371 40.7465 24.602 40.7465C29.9668 40.7465 34.2165 35.37 34.2165 28.9603C34.2165 28.6843 34.2178 28.4382 34.221 28.1143C34.2192 27.9378 34.2169 27.7367 34.2139 27.4936C34.2028 26.597 34.2022 25.8089 34.2191 25.1075Z" fill="#ff5955"/>
</svg>