<svg xmlns="http://www.w3.org/2000/svg" width="54" height="54" viewBox="0 0 54 54" fill="none">
<g clip-path="url(#clip0_1_24)">
<path d="M42.7467 22.8534H11.2525L11.0365 22.2385C9.16292 17.3164 8.70241 11.9687 9.70689 6.79884C11.7345 -1.26168 20.7756 0.400285 25.0302 1.19803C25.6602 1.33866 26.2986 1.43858 26.9414 1.49718C27.6239 1.44894 28.3017 1.34893 28.969 1.19803C33.2901 0.400285 42.2647 -1.26168 44.2757 6.78222C45.2802 11.9521 44.8197 17.2998 42.9462 22.2219L42.7467 22.8534ZM12.5655 21.0252H41.4338C43.0344 16.6094 43.4077 11.8422 42.514 7.23095C40.8521 0.849016 33.3732 2.24506 29.3014 2.99295C28.5684 3.15601 27.8238 3.26159 27.0744 3.30872C26.2801 3.27127 25.4906 3.16562 24.7144 2.99295C20.6592 2.24506 13.0807 0.849016 11.5018 7.23095C10.6037 11.8407 10.9712 16.6077 12.5655 21.0252Z" fill="#00D6D6"/>
<path d="M19.6621 7.62982C19.463 7.64267 19.2651 7.58998 19.0987 7.47979C18.9322 7.36961 18.8065 7.20798 18.7405 7.01961C18.6746 6.83123 18.6721 6.62645 18.7335 6.43654C18.7949 6.24663 18.9167 6.08202 19.0805 5.96786C23.3018 2.46112 30.3818 0.981973 30.7142 0.882255C30.832 0.857156 30.9537 0.855516 31.0722 0.877429C31.1907 0.899342 31.3037 0.944379 31.4048 1.00997C31.5059 1.07556 31.593 1.16041 31.6613 1.25969C31.7296 1.35897 31.7777 1.47073 31.8028 1.58859C31.8279 1.70645 31.8295 1.82809 31.8076 1.94658C31.7857 2.06507 31.7407 2.17808 31.6751 2.27917C31.6095 2.38025 31.5246 2.46743 31.4253 2.53572C31.3261 2.60401 31.2143 2.65208 31.0964 2.67717C31.0964 2.67717 24.0996 4.20618 20.2438 7.41377C20.0811 7.55141 19.8753 7.62784 19.6621 7.62982ZM27.008 53.5C22.7202 53.5 21.2576 50.7245 21.0914 49.2454L18.2495 26.543C18.2284 26.4214 18.2322 26.2968 18.2606 26.1767C18.289 26.0566 18.3414 25.9435 18.4147 25.8443C18.488 25.745 18.5806 25.6616 18.687 25.599C18.7934 25.5365 18.9113 25.4962 19.0337 25.4805C19.1561 25.4647 19.2804 25.474 19.3991 25.5076C19.5179 25.5412 19.6286 25.5985 19.7245 25.676C19.8205 25.7536 19.8998 25.8497 19.9577 25.9587C20.0155 26.0677 20.0506 26.1873 20.061 26.3103L22.8863 49.0293C22.8863 49.2952 23.3683 51.6718 26.9914 51.6718C27.2338 51.6718 27.4663 51.7682 27.6377 51.9396C27.8092 52.111 27.9055 52.3435 27.9055 52.5859C27.9055 52.8284 27.8092 53.0609 27.6377 53.2323C27.4663 53.4037 27.2338 53.5 26.9914 53.5H27.008Z" fill="#00D6D6"/>
<path d="M27.0078 53.5C26.7654 53.5 26.5329 53.4037 26.3615 53.2323C26.1901 53.0609 26.0938 52.8284 26.0938 52.5859C26.0938 52.3435 26.1901 52.111 26.3615 51.9396C26.5329 51.7681 26.7654 51.6718 27.0078 51.6718C30.7639 51.6718 31.0963 49.1457 31.1129 49.0293L33.9548 26.3103C33.9652 26.1873 34.0004 26.0677 34.0582 25.9587C34.116 25.8497 34.1953 25.7536 34.2913 25.676C34.3873 25.5985 34.498 25.5412 34.6167 25.5076C34.7354 25.474 34.8597 25.4647 34.9821 25.4805C35.1045 25.4962 35.2225 25.5365 35.3288 25.599C35.4352 25.6616 35.5278 25.745 35.6011 25.8443C35.6744 25.9435 35.7268 26.0566 35.7552 26.1767C35.7836 26.2968 35.7874 26.4214 35.7664 26.543L32.9244 49.262C32.7582 50.7245 31.2957 53.5 27.0078 53.5Z" fill="#00D6D6"/>
<path d="M21.54 46.7192C21.2975 46.7192 21.065 46.6229 20.8936 46.4515C20.7222 46.28 20.6259 46.0475 20.6259 45.8051C20.6259 45.5627 20.7222 45.3302 20.8936 45.1588C21.065 44.9873 21.2975 44.891 21.54 44.891C23.8501 44.7747 30.232 44.0767 32.0934 42.3981C32.1798 42.3069 32.284 42.2345 32.3996 42.1854C32.5152 42.1363 32.6397 42.1115 32.7653 42.1127C32.8909 42.1138 33.0149 42.1408 33.1296 42.192C33.2443 42.2432 33.3472 42.3174 33.4319 42.4102C33.5166 42.5029 33.5813 42.6121 33.622 42.7309C33.6626 42.8498 33.6783 42.9757 33.6681 43.1009C33.6579 43.2261 33.622 43.3478 33.5627 43.4585C33.5034 43.5692 33.4219 43.6665 33.3233 43.7443C30.6641 46.1707 22.5538 46.6693 21.6895 46.7192H21.54ZM20.925 40.3871C20.6826 40.3871 20.4501 40.2908 20.2787 40.1194C20.1073 39.948 20.011 39.7155 20.011 39.473C20.011 39.2306 20.1073 38.9981 20.2787 38.8267C20.4501 38.6553 20.6826 38.559 20.925 38.559C23.5509 38.426 30.7971 37.6283 32.9244 35.7004C33.1084 35.6064 33.3188 35.5776 33.5213 35.6185C33.7238 35.6595 33.9065 35.7679 34.0395 35.9259C34.1725 36.084 34.2481 36.2825 34.2538 36.489C34.2596 36.6956 34.1952 36.898 34.0712 37.0632C31.0963 39.7888 21.9721 40.3871 20.9417 40.3871H20.925ZM20.1107 33.9055C19.8683 33.9055 19.6358 33.8092 19.4643 33.6377C19.2929 33.4663 19.1966 33.2338 19.1966 32.9914C19.1966 32.7489 19.2929 32.5165 19.4643 32.345C19.6358 32.1736 19.8683 32.0773 20.1107 32.0773C23.0357 31.9277 31.1627 31.0469 33.5393 28.903C33.6288 28.8222 33.7333 28.7599 33.8469 28.7195C33.9605 28.6791 34.0809 28.6615 34.2013 28.6677C34.3216 28.6739 34.4396 28.7037 34.5485 28.7555C34.6573 28.8072 34.7549 28.8799 34.8357 28.9694C34.9164 29.0589 34.9788 29.1634 35.0191 29.277C35.0595 29.3906 35.0771 29.511 35.0709 29.6314C35.0647 29.7517 35.0349 29.8697 34.9831 29.9786C34.9314 30.0874 34.8587 30.185 34.7692 30.2658C31.4453 33.2407 21.3572 33.8556 20.2104 33.9055H20.1107ZM27.0078 27.2908H16.5042C16.3161 27.2922 16.1322 27.2354 15.9775 27.1283C15.8228 27.0213 15.705 26.8691 15.64 26.6925L14.1276 22.305C14.0487 22.1903 13.997 22.0592 13.9765 21.9215C13.956 21.7839 13.9672 21.6433 14.0092 21.5107C14.0513 21.378 14.1231 21.2567 14.2191 21.156C14.3151 21.0553 14.4329 20.9778 14.5634 20.9295C14.694 20.8812 14.8338 20.8634 14.9723 20.8773C15.1107 20.8913 15.2442 20.9366 15.3624 21.01C15.4807 21.0834 15.5807 21.1827 15.6547 21.3006C15.7287 21.4184 15.7748 21.5516 15.7896 21.69L17.1524 25.4294H26.9912C27.2336 25.4294 27.4661 25.5258 27.6376 25.6972C27.809 25.8686 27.9053 26.1011 27.9053 26.3435C27.9053 26.586 27.809 26.8185 27.6376 26.9899C27.4661 27.1613 27.2336 27.2576 26.9912 27.2576L27.0078 27.2908Z" fill="#00D6D6"/>
<path d="M37.4948 27.2909H27.0078C26.8878 27.2909 26.7689 27.2672 26.658 27.2213C26.5471 27.1753 26.4464 27.108 26.3615 27.0231C26.2766 26.9382 26.2093 26.8375 26.1633 26.7266C26.1174 26.6157 26.0938 26.4968 26.0938 26.3768C26.0938 26.2567 26.1174 26.1379 26.1633 26.027C26.2093 25.9161 26.2766 25.8153 26.3615 25.7304C26.4464 25.6455 26.5471 25.5782 26.658 25.5323C26.7689 25.4863 26.8878 25.4627 27.0078 25.4627H36.8467L38.1928 21.69C38.3081 21.5225 38.4759 21.3982 38.6698 21.3368C38.8636 21.2754 39.0724 21.2804 39.2631 21.3509C39.4537 21.4215 39.6155 21.5536 39.7226 21.7264C39.8298 21.8992 39.8763 22.1028 39.8548 22.305L38.2926 26.6925C38.2318 26.8588 38.1241 27.0038 37.9825 27.1101C37.8408 27.2163 37.6714 27.2791 37.4948 27.2909Z" fill="#00D6D6"/>
</g>
<defs>
<clipPath id="clip0_1_24">
<rect width="53" height="53" fill="white" transform="translate(0.499512 0.5)"/>
</clipPath>
</defs>
</svg>