<svg xmlns="http://www.w3.org/2000/svg" width="70" height="70" viewBox="0 0 37 50" fill="none">
<path fill="#00D6D6" d= "M18.1895 17.6178C14.371 17.638 10.605 16.7443 7.21717 15.014C7.0942 14.9002 7.01297 14.7497 6.98613 14.5858C6.95929 14.422 6.98834 14.254 7.06875 14.1081C7.14917 13.9622 7.27644 13.8464 7.43077 13.7789C7.5851 13.7113 7.75784 13.6958 7.9221 13.7347C18.404 19.0477 29.0852 13.7347 29.2537 13.7347C29.4346 13.6428 29.6452 13.6254 29.8392 13.686C30.0332 13.7467 30.1947 13.8806 30.2881 14.0583C30.3816 14.2359 30.3994 14.4427 30.3376 14.6332C30.2758 14.8238 30.1395 14.9824 29.9587 15.0742C26.2759 16.7679 22.256 17.6368 18.1895 17.6178ZM7.56963 2.62695C7.40005 2.62449 7.2361 2.56684 7.10346 2.46303C6.97082 2.35923 6.87699 2.21513 6.83668 2.05333C6.79638 1.89153 6.81186 1.72117 6.88072 1.56894C6.94957 1.41672 7.06791 1.29123 7.21717 1.21214C8.60545 0.553651 10.1272 0.211639 11.6689 0.211639C13.2106 0.211639 14.7324 0.553651 16.1207 1.21214C16.3015 1.30395 16.4379 1.46257 16.4996 1.6531C16.5614 1.84363 16.5436 2.05046 16.4502 2.22809C16.3567 2.40573 16.1952 2.53961 16.0012 2.6003C15.8072 2.66099 15.5966 2.6435 15.4158 2.55169C14.2461 2.01103 12.9693 1.73069 11.6766 1.73069C10.3839 1.73069 9.10708 2.01103 7.93742 2.55169C7.82308 2.60636 7.69669 2.63223 7.56963 2.62695ZM21.3616 2.62695C21.1921 2.62449 21.0281 2.56684 20.8955 2.46303C20.7628 2.35923 20.669 2.21513 20.6287 2.05333C20.5884 1.89153 20.6039 1.72117 20.6727 1.56894C20.7416 1.41672 20.8599 1.29123 21.0092 1.21214C22.3975 0.553651 23.9192 0.211639 25.4609 0.211639C27.0026 0.211639 28.5244 0.553651 29.9127 1.21214C30.0022 1.2576 30.0818 1.31994 30.1468 1.3956C30.2119 1.47126 30.2611 1.55876 30.2917 1.6531C30.3223 1.74744 30.3336 1.84677 30.3251 1.94543C30.3167 2.04409 30.2885 2.14014 30.2422 2.22809C30.1959 2.31605 30.1324 2.39419 30.0554 2.45805C29.9783 2.52192 29.8893 2.57025 29.7932 2.6003C29.6972 2.63035 29.596 2.64152 29.4956 2.63318C29.3951 2.62484 29.2973 2.59715 29.2078 2.55169C28.0381 2.01103 26.7613 1.73069 25.4686 1.73069C24.1759 1.73069 22.8991 2.01103 21.7294 2.55169C21.6151 2.60636 21.4887 2.63223 21.3616 2.62695Z"/>
<path fill="#00D6D6" d="M25.4992 41.4287C23.2006 41.4287 22.4343 38.5389 21.4842 35.4082C20.7793 32.9399 19.9518 30.1403 18.6186 30.1403H18.5266C17.1781 30.1403 16.3659 32.9399 15.6609 35.4082C14.7721 38.4185 13.9446 41.4287 11.6459 41.4287C7.60027 41.4287 4.15227 34.1439 3.76916 33.3011C3.56994 32.9098 -1.54843 22.7653 0.704264 13.7347C2.80372 5.59201 12.0597 7.26268 16.5038 8.07544C17.1606 8.21769 17.826 8.31824 18.496 8.37646C19.2128 8.32957 19.9249 8.22894 20.6261 8.07544C25.0548 7.26268 34.3108 5.59201 36.3643 13.7347C38.6936 22.8707 33.5752 32.97 33.2994 33.3914C32.9929 34.1439 29.5449 41.4287 25.4992 41.4287ZM18.5266 28.56H18.6645C21.3003 28.56 22.2351 31.8411 23.1546 35.032C23.7676 37.1391 24.5185 39.773 25.5452 39.773C28.0584 39.773 31.0314 34.4901 31.8742 32.6238C31.8742 32.4883 36.9466 22.6148 34.7705 14.0808C33.0848 7.48845 25.1927 8.9183 20.9785 9.70096C20.2217 9.86434 19.4532 9.97001 18.6799 10.017C17.8599 9.98048 17.0447 9.87474 16.2433 9.70096C11.9984 8.93335 4.10629 7.48845 2.45125 14.0808C0.13726 22.6449 5.20965 32.4883 5.25563 32.5937C6.54288 35.3932 9.33193 39.773 11.6 39.773C12.6114 39.773 13.3776 37.1391 13.9906 35.032C14.91 31.796 15.8602 28.56 18.5266 28.56Z"/>
</svg>
