<svg xmlns="http://www.w3.org/2000/svg" viewBox="0 0 742.15 179.02"><title>yandex-logo</title><path d="M345.82,568.46c-3.79,5.63-10.95,10.13-21.58,10.13-12.69,0-19-7.37-19-18.52,0-14.73,10.43-19.84,36.31-19.84h4.3Zm361.3-75.89c14.94,0,19.54,12.48,19.54,28.44v2.56H684.52c.71-20.36,8.08-31,22.61-31Zm-127.76,0c16.27,0,24.35,13,24.35,42.35,0,29.67-8.6,42.66-25.68,42.66-16.47,0-24.66-12.69-24.66-41.64.1-30.17,8.7-43.37,26-43.37ZM849,599h34.06l-41.64-65.77,36-61.89H847.27l-21.79,38.56-24.35-38.56H767l38.56,61.18L765.43,599h30.69l25.67-43.17ZM376,511.9c0-31-15.76-42.66-47.78-42.66-19.84,0-35.8,8.39-44.9,14.93v26.19c9.61-7.88,24.35-17,41.43-17,14.43,0,21.07,5.11,21.07,18.82v8.08H341c-46.24,0-66.8,14.94-66.8,41.64,0,24.65,15.75,38.87,39.08,38.87,17.8,0,25.37-5.83,31.2-12h1.23A37.73,37.73,0,0,0,348,599h29.46q-1.53-15.56-1.53-31.2V511.9Zm54.13-4.06c5.44-7,14.09-13.05,25-13.34,10.63-.28,15.56,4.19,15.81,13.81l2.36,90.09,30.16-.79-2.45-93.16c-.67-25.36-11.08-36.24-35.72-35.59-18,.47-28.46,7.4-34.44,13.59l-1.53,0-1-10.62-29.46.77,3.35,127.62,30.17-.79L430,507.84Zm326,82.52V565.71c-9.41,6.34-25.16,12-39.9,12-22.1,0-30.48-10.43-31.71-31.71h72.83V529.9c0-44.39-19.53-61.18-49.71-61.18-36.83,0-54.32,28.13-54.32,66.8,0,44.39,21.79,66,60.45,66,19.23,0,33.45-5.12,42.35-11.15ZM570.46,601.51c14.22,0,25.89-6.65,34.07-19L606.06,599H634V422.49H603.81v63.73c-7.57-11.46-18.82-17.49-32-17.49-29.15,0-49.51,24.66-49.51,67.31,0,42,19.75,65.47,48.18,65.47Z" transform="translate(-140.92 -422.49)"/><path d="M287.2,422.49,249.56,507.8h-31.2L256,422.49ZM229.51,569v30H198.83V548.41l-57.9-125.92h32L218.05,521c8.7,18.82,11.46,25.36,11.46,48Z" transform="translate(-140.92 -422.49)" style="fill:#fc3f1d"/></svg>