<svg xmlns="http://www.w3.org/2000/svg" xmlns:xlink="http://www.w3.org/1999/xlink" id="svg" version="1.1" width="400" height="162.19270980502966" viewBox="0, 0, 400,162.19270980502966"><g id="svgg">
<path id="path0" d="M311.917 0.193 C 310.063 0.371,307.879 0.639,306.667 0.835 C 304.188 1.237,303.494 1.362,302.417 1.600 C 300.604 1.999,297.129 2.842,296.667 2.995 C 296.438 3.070,295.688 3.298,295.000 3.500 C 293.064 4.070,289.219 5.458,287.583 6.177 C 287.400 6.257,286.537 6.631,285.667 7.007 C 283.611 7.894,278.989 10.295,277.498 11.251 C 276.856 11.663,276.289 12.000,276.239 12.000 C 276.117 12.000,271.225 15.300,270.958 15.562 C 270.844 15.674,270.375 16.022,269.917 16.336 C 269.458 16.649,268.896 17.069,268.667 17.268 C 268.438 17.468,267.500 18.254,266.583 19.015 C 262.411 22.480,258.673 26.378,254.611 31.500 C 252.612 34.020,249.759 38.329,248.321 41.000 C 248.098 41.412,247.879 41.787,247.833 41.833 C 247.643 42.024,245.546 46.159,245.086 47.250 C 244.932 47.617,244.737 48.047,244.653 48.206 C 244.569 48.365,244.500 48.534,244.500 48.581 C 244.500 48.628,248.424 48.667,253.219 48.667 L 261.938 48.667 262.215 48.125 C 262.368 47.827,262.721 47.208,263.000 46.750 C 263.279 46.292,263.557 45.804,263.617 45.667 C 263.677 45.529,263.769 45.379,263.822 45.333 C 263.875 45.288,264.555 44.281,265.334 43.096 C 266.113 41.911,266.828 40.861,266.923 40.763 C 267.018 40.664,267.612 39.912,268.243 39.092 C 269.404 37.582,269.651 37.284,271.000 35.772 C 272.184 34.444,276.316 30.446,277.417 29.562 C 277.967 29.121,278.497 28.682,278.596 28.588 C 279.614 27.612,284.859 23.955,286.750 22.902 C 287.392 22.545,288.142 22.118,288.417 21.954 C 289.632 21.231,295.442 18.500,295.767 18.500 C 295.837 18.500,296.200 18.356,296.572 18.181 C 298.950 17.060,306.106 15.144,310.250 14.518 C 320.154 13.022,328.468 13.588,339.250 16.491 C 339.997 16.692,343.367 17.816,343.750 17.991 C 343.933 18.075,344.833 18.457,345.750 18.839 C 349.168 20.263,351.085 21.219,354.083 22.994 C 355.493 23.828,359.790 26.691,360.449 27.236 C 360.615 27.373,361.275 27.907,361.917 28.423 C 365.159 31.033,368.693 34.501,371.253 37.583 C 371.710 38.133,372.125 38.621,372.176 38.667 C 372.400 38.869,374.887 42.295,375.715 43.543 C 377.912 46.852,379.809 50.419,381.677 54.750 C 382.315 56.229,383.515 59.564,383.836 60.750 C 383.910 61.025,384.095 61.700,384.246 62.250 C 384.800 64.271,385.291 66.278,385.489 67.333 C 385.601 67.929,385.756 68.754,385.834 69.167 C 385.982 69.948,386.209 71.784,386.497 74.528 C 386.714 76.595,386.717 83.856,386.501 85.682 C 386.410 86.453,386.254 87.796,386.155 88.667 C 385.584 93.693,383.571 101.250,381.728 105.281 C 381.511 105.757,381.333 106.186,381.333 106.236 C 381.333 107.403,376.354 116.013,373.372 120.000 C 371.165 122.952,367.972 126.450,365.178 128.978 C 364.405 129.678,363.599 130.414,363.388 130.616 C 362.082 131.859,355.866 136.297,354.333 137.081 C 354.012 137.246,353.712 137.426,353.667 137.482 C 353.228 138.017,346.711 141.118,343.750 142.200 C 337.717 144.405,333.886 145.298,326.671 146.180 C 324.636 146.429,316.247 146.430,314.083 146.181 C 306.773 145.343,299.939 143.648,294.929 141.431 C 294.602 141.285,294.052 141.046,293.708 140.898 C 292.887 140.544,288.746 138.475,288.000 138.046 C 284.576 136.073,279.406 132.572,278.833 131.838 C 278.787 131.779,278.593 131.623,278.400 131.490 C 276.906 130.464,271.385 125.027,269.608 122.834 C 269.051 122.146,268.554 121.546,268.504 121.500 C 268.453 121.454,268.117 121.023,267.755 120.542 L 267.098 119.667 257.382 119.667 C 251.748 119.667,247.667 119.730,247.667 119.816 C 247.667 120.525,253.411 129.515,254.493 130.500 C 254.543 130.546,254.900 130.996,255.286 131.500 C 255.672 132.004,256.160 132.614,256.369 132.854 C 256.579 133.095,257.048 133.658,257.412 134.104 C 258.500 135.439,264.419 141.328,265.933 142.583 C 266.708 143.225,267.531 143.919,267.764 144.126 C 268.533 144.811,272.053 147.384,273.917 148.624 C 274.925 149.295,275.829 149.898,275.925 149.964 C 276.141 150.111,276.459 150.298,278.667 151.580 C 285.139 155.339,293.802 158.704,300.750 160.160 C 301.300 160.275,301.959 160.433,302.215 160.512 C 303.419 160.880,308.779 161.638,312.750 162.000 C 315.105 162.215,322.878 162.216,324.972 162.001 C 325.858 161.911,327.371 161.756,328.333 161.658 C 329.981 161.490,330.645 161.395,333.083 160.981 C 334.078 160.812,335.886 160.432,337.000 160.159 C 337.321 160.080,338.258 159.856,339.083 159.661 C 339.908 159.466,340.771 159.246,341.000 159.171 C 341.229 159.096,341.979 158.870,342.667 158.669 C 343.745 158.353,345.947 157.604,347.789 156.927 C 348.085 156.818,348.379 156.677,348.441 156.614 C 348.504 156.551,348.653 156.500,348.773 156.500 C 348.892 156.500,349.386 156.321,349.870 156.103 C 350.354 155.884,351.387 155.429,352.167 155.091 C 353.775 154.394,358.496 151.967,359.750 151.192 C 360.208 150.909,360.806 150.552,361.079 150.399 C 362.176 149.781,367.070 146.467,367.333 146.163 C 367.379 146.110,367.679 145.887,368.000 145.667 C 368.321 145.446,368.621 145.225,368.667 145.175 C 368.712 145.124,369.125 144.786,369.583 144.422 C 370.042 144.059,370.454 143.721,370.500 143.672 C 370.546 143.623,370.996 143.249,371.500 142.839 C 373.724 141.035,378.626 136.161,380.390 134.000 C 380.952 133.313,381.551 132.600,381.723 132.417 C 381.894 132.233,382.232 131.821,382.474 131.500 C 382.717 131.179,382.956 130.879,383.007 130.833 C 383.058 130.787,383.280 130.487,383.500 130.167 C 383.720 129.846,383.944 129.546,383.997 129.500 C 384.284 129.250,387.198 124.952,388.290 123.167 C 390.177 120.083,392.733 114.998,393.988 111.833 C 394.188 111.329,394.413 110.767,394.488 110.583 C 394.564 110.400,394.718 110.025,394.830 109.750 C 395.754 107.501,397.297 102.306,397.987 99.125 C 398.071 98.735,398.253 97.929,398.391 97.333 C 398.832 95.428,399.238 92.874,399.492 90.417 C 399.925 86.216,400.001 84.822,400.000 81.048 C 400.000 77.246,399.946 76.280,399.484 71.750 C 399.283 69.784,398.591 65.405,398.351 64.583 C 398.271 64.308,398.109 63.633,397.993 63.083 C 397.391 60.246,396.428 56.835,395.500 54.250 C 394.659 51.910,394.569 51.681,394.448 51.559 C 394.385 51.496,394.333 51.344,394.333 51.220 C 394.333 51.097,394.175 50.641,393.981 50.207 C 393.787 49.772,393.532 49.192,393.415 48.917 C 392.310 46.322,390.185 42.129,389.019 40.239 C 388.740 39.787,388.385 39.192,388.230 38.917 C 387.851 38.241,385.540 34.727,384.997 34.000 C 382.623 30.817,382.090 30.112,381.932 29.944 C 381.832 29.837,381.218 29.113,380.568 28.333 C 378.589 25.961,373.412 20.820,371.167 18.998 C 370.662 18.589,370.212 18.212,370.167 18.160 C 370.121 18.108,369.783 17.845,369.417 17.575 C 369.050 17.304,368.615 16.962,368.451 16.814 C 367.922 16.338,363.274 13.053,362.583 12.667 C 362.217 12.462,361.729 12.172,361.499 12.022 C 358.411 10.009,352.045 6.819,348.500 5.510 C 348.179 5.391,347.692 5.198,347.417 5.080 C 345.573 4.289,339.905 2.601,337.083 2.001 C 336.533 1.884,335.708 1.694,335.250 1.579 C 334.792 1.463,333.854 1.279,333.167 1.169 C 332.479 1.059,331.542 0.906,331.083 0.830 C 330.179 0.679,328.073 0.435,325.369 0.169 C 323.344 -0.031,314.068 -0.014,311.917 0.193 M70.742 54.742 L 70.333 55.152 70.333 84.000 L 70.333 112.848 70.742 113.258 L 71.152 113.667 92.253 113.667 C 113.536 113.667,113.833 113.659,114.206 113.100 C 114.480 112.689,114.352 99.043,114.071 98.762 C 113.838 98.528,112.338 98.500,100.071 98.500 L 86.333 98.500 86.333 94.831 L 86.333 91.162 97.708 91.171 L 109.083 91.179 109.458 90.747 L 109.833 90.315 109.833 83.813 C 109.833 77.359,109.791 76.811,109.267 76.461 C 109.166 76.394,103.965 76.337,97.708 76.336 L 86.333 76.333 86.333 72.917 L 86.333 69.500 99.808 69.500 C 112.649 69.500,113.295 69.486,113.558 69.195 C 113.805 68.922,113.833 68.175,113.833 61.957 L 113.833 55.024 113.394 54.679 C 112.955 54.333,112.947 54.333,92.053 54.333 L 71.152 54.333 70.742 54.742 M124.705 54.634 L 124.333 54.956 124.333 84.052 L 124.333 113.148 124.704 113.407 C 125.499 113.964,147.428 113.698,150.083 113.099 C 150.267 113.057,150.904 112.933,151.500 112.823 C 155.643 112.055,161.882 109.325,163.667 107.500 C 163.712 107.453,164.050 107.196,164.417 106.928 C 165.215 106.346,167.457 104.092,168.113 103.212 C 168.371 102.866,168.620 102.546,168.667 102.500 C 169.228 101.951,170.667 99.544,171.507 97.745 C 176.399 87.284,175.053 73.312,168.357 65.034 C 164.703 60.518,158.378 56.613,152.923 55.507 C 147.668 54.441,147.691 54.443,135.913 54.375 C 125.395 54.314,125.065 54.321,124.705 54.634 M183.409 54.774 L 183.000 55.215 183.000 84.002 L 183.000 112.788 183.439 113.227 L 183.879 113.667 191.167 113.667 C 198.288 113.667,198.465 113.659,198.894 113.321 L 199.333 112.976 199.333 84.064 L 199.333 55.152 198.924 54.742 L 198.515 54.333 191.166 54.333 L 183.817 54.333 183.409 54.774 M212.192 54.645 L 211.833 54.956 211.833 84.052 L 211.833 113.148 212.204 113.407 C 212.525 113.632,213.514 113.667,219.631 113.667 C 226.649 113.667,227.186 113.628,227.539 113.100 C 227.606 112.999,227.663 108.534,227.664 103.177 C 227.667 92.097,227.504 92.971,229.126 95.333 C 229.916 96.484,232.412 99.916,232.883 100.500 C 232.994 100.638,233.457 101.275,233.913 101.917 C 234.369 102.558,234.834 103.196,234.946 103.333 C 235.158 103.592,236.955 106.080,238.618 108.417 C 239.140 109.150,239.611 109.787,239.664 109.833 C 239.718 109.879,240.132 110.442,240.585 111.083 C 241.544 112.441,241.785 112.752,242.284 113.279 L 242.652 113.667 251.867 113.661 C 261.626 113.656,261.386 113.675,261.817 112.866 C 262.037 112.453,261.662 111.632,260.801 110.640 C 260.590 110.397,259.743 109.316,258.920 108.239 C 258.097 107.162,257.345 106.199,257.248 106.099 C 257.151 105.999,256.888 105.654,256.664 105.333 C 256.439 105.013,256.164 104.638,256.052 104.500 C 255.475 103.788,253.087 100.703,251.925 99.167 C 251.196 98.204,250.296 97.036,249.925 96.571 C 249.554 96.106,249.065 95.480,248.839 95.182 C 247.966 94.027,244.636 89.733,244.367 89.415 C 244.211 89.231,243.521 88.331,242.835 87.415 C 242.148 86.499,241.511 85.670,241.418 85.571 C 240.030 84.094,238.150 81.304,238.361 81.033 C 238.598 80.727,240.528 78.470,240.669 78.333 C 240.716 78.287,241.204 77.727,241.752 77.089 C 243.414 75.154,243.568 74.975,244.934 73.399 C 247.034 70.974,247.961 69.895,248.556 69.182 C 248.907 68.761,249.619 67.933,250.139 67.342 C 253.254 63.798,254.244 62.658,255.426 61.250 C 255.965 60.608,256.447 60.046,256.497 60.000 C 256.547 59.954,257.037 59.394,257.586 58.754 C 258.134 58.115,258.808 57.339,259.083 57.031 C 260.102 55.890,260.217 55.369,259.591 54.742 L 259.182 54.333 250.447 54.333 C 240.281 54.333,241.631 54.032,239.496 56.777 C 238.724 57.771,238.051 58.621,238.001 58.667 C 237.950 58.712,236.867 60.063,235.592 61.667 C 231.809 66.427,231.422 66.913,231.330 67.000 C 231.282 67.046,230.772 67.683,230.197 68.417 C 229.622 69.150,228.911 70.044,228.618 70.404 C 228.324 70.763,227.992 71.176,227.880 71.320 C 227.720 71.528,227.676 69.849,227.672 63.321 L 227.667 55.058 227.281 54.696 C 226.719 54.168,212.796 54.120,212.192 54.645 M0.276 54.805 C -0.199 55.330,-0.143 112.857,0.333 113.333 C 0.656 113.656,0.889 113.667,7.667 113.667 C 14.444 113.667,14.677 113.656,15.000 113.333 C 15.328 113.005,15.333 112.778,15.333 99.485 L 15.333 85.969 17.289 87.860 C 18.364 88.899,19.953 90.425,20.819 91.250 C 21.685 92.075,22.888 93.237,23.492 93.833 C 28.871 99.144,28.086 98.996,31.769 95.388 C 33.063 94.121,35.782 91.481,37.811 89.524 L 41.500 85.964 41.500 99.453 L 41.500 112.942 41.886 113.304 C 42.401 113.789,55.784 113.883,56.463 113.407 L 56.833 113.148 56.833 84.100 C 56.833 56.170,56.822 55.041,56.529 54.776 C 56.168 54.450,55.398 54.414,55.097 54.708 C 54.980 54.823,54.297 55.442,53.579 56.083 C 52.862 56.725,51.917 57.587,51.481 58.000 C 51.045 58.413,50.327 59.078,49.886 59.479 C 48.683 60.570,45.993 63.037,45.590 63.417 C 45.396 63.600,44.827 64.121,44.327 64.575 C 43.826 65.029,42.554 66.197,41.500 67.172 C 40.446 68.146,39.058 69.421,38.417 70.005 C 37.775 70.589,37.212 71.108,37.167 71.159 C 37.121 71.209,36.334 71.925,35.418 72.750 C 34.502 73.575,33.563 74.438,33.332 74.667 C 33.101 74.896,32.500 75.454,31.997 75.906 C 31.495 76.359,30.494 77.282,29.774 77.957 C 28.304 79.335,28.533 79.324,27.250 78.083 C 26.966 77.808,26.069 76.983,25.258 76.250 C 24.447 75.517,23.512 74.654,23.181 74.333 C 22.849 74.012,22.204 73.419,21.747 73.015 C 21.290 72.611,20.354 71.748,19.667 71.097 C 18.979 70.447,18.042 69.584,17.583 69.181 C 17.125 68.777,16.262 67.990,15.666 67.432 C 15.070 66.873,14.170 66.047,13.666 65.596 C 13.162 65.144,12.223 64.282,11.578 63.679 C 10.934 63.076,9.660 61.908,8.749 61.083 C 7.837 60.258,6.860 59.358,6.577 59.083 C 6.294 58.808,5.401 57.983,4.591 57.250 C 3.781 56.517,2.780 55.598,2.366 55.208 C 1.523 54.414,0.762 54.268,0.276 54.805 M146.197 69.740 C 149.743 70.180,152.440 71.419,154.625 73.610 C 155.290 74.277,155.833 74.895,155.833 74.983 C 155.833 75.071,155.930 75.242,156.049 75.363 C 157.791 77.140,158.880 83.627,158.081 87.460 C 156.569 94.707,151.945 98.141,143.292 98.444 L 140.167 98.553 140.167 84.026 L 140.167 69.500 142.215 69.500 C 143.341 69.500,145.133 69.608,146.197 69.740 " stroke="none" fill="#148bfc" fill-rule="evenodd"/>
<path id="path1" d="M277.267 55.254 C 276.817 55.760,276.330 56.315,276.183 56.487 C 273.948 59.113,271.451 62.015,270.958 62.559 L 270.333 63.250 270.333 82.088 C 270.333 102.017,270.308 101.264,270.998 101.833 C 271.054 101.879,271.282 102.179,271.506 102.500 C 271.729 102.821,272.037 103.233,272.190 103.417 C 272.343 103.600,272.853 104.237,273.323 104.833 C 273.793 105.429,274.270 106.029,274.383 106.167 C 274.496 106.304,274.772 106.679,274.997 107.000 C 275.222 107.321,275.996 108.333,276.716 109.250 C 278.169 111.099,278.123 111.040,279.152 112.387 C 280.135 113.675,280.109 113.667,283.041 113.667 C 285.390 113.667,285.634 113.638,285.969 113.327 L 286.333 112.987 286.333 103.212 L 286.333 93.437 286.667 93.795 C 286.850 93.992,287.000 94.192,287.000 94.239 C 287.000 94.325,288.662 96.671,288.838 96.833 C 288.887 96.879,289.296 97.442,289.746 98.083 C 290.195 98.725,290.607 99.287,290.662 99.333 C 290.716 99.379,291.300 100.179,291.960 101.110 C 292.620 102.041,293.255 102.903,293.372 103.026 C 293.489 103.149,293.992 103.850,294.491 104.583 C 294.990 105.317,295.442 105.954,295.496 106.000 C 295.550 106.046,295.963 106.608,296.412 107.250 C 296.862 107.892,297.274 108.454,297.328 108.500 C 297.382 108.546,297.987 109.369,298.671 110.329 C 299.356 111.289,300.200 112.432,300.546 112.870 L 301.174 113.667 310.587 113.667 C 319.778 113.667,320.008 113.659,320.333 113.333 C 320.843 112.824,320.750 112.180,320.042 111.309 C 319.698 110.886,318.743 109.657,317.920 108.577 C 317.097 107.498,316.345 106.532,316.248 106.432 C 316.151 106.332,315.891 105.987,315.669 105.667 C 315.447 105.346,315.220 105.046,315.163 105.000 C 315.106 104.954,314.734 104.471,314.335 103.927 C 313.936 103.382,313.475 102.782,313.311 102.593 C 313.032 102.273,311.071 99.730,308.867 96.833 C 308.345 96.146,307.824 95.471,307.712 95.333 C 307.599 95.196,306.639 93.958,305.578 92.583 C 304.518 91.208,303.522 89.933,303.364 89.750 C 303.207 89.567,302.896 89.154,302.672 88.833 C 302.449 88.513,302.225 88.212,302.174 88.167 C 302.124 88.121,301.745 87.633,301.333 87.083 C 300.921 86.533,300.508 86.003,300.417 85.904 C 300.188 85.659,299.563 84.853,298.231 83.083 C 297.610 82.258,297.041 81.558,296.967 81.528 C 296.798 81.457,296.792 81.046,296.959 80.972 C 297.029 80.942,297.498 80.431,298.001 79.837 C 298.505 79.244,298.992 78.674,299.083 78.571 C 299.175 78.468,299.625 77.947,300.083 77.413 C 300.542 76.879,300.995 76.361,301.090 76.262 C 301.185 76.164,301.704 75.558,302.243 74.917 C 302.781 74.275,303.268 73.712,303.324 73.667 C 303.380 73.621,303.836 73.098,304.338 72.504 C 304.839 71.910,305.325 71.341,305.417 71.238 C 305.508 71.135,305.932 70.645,306.358 70.150 C 306.785 69.655,307.272 69.091,307.442 68.896 C 307.611 68.702,308.125 68.102,308.583 67.564 C 309.042 67.026,309.720 66.247,310.090 65.834 C 310.460 65.421,311.173 64.596,311.673 64.000 C 312.174 63.404,312.856 62.617,313.190 62.250 C 313.524 61.883,314.010 61.321,314.271 61.000 C 314.531 60.679,314.784 60.379,314.833 60.333 C 314.882 60.288,315.370 59.726,315.919 59.086 C 316.468 58.446,317.177 57.635,317.496 57.283 C 318.661 55.997,318.928 55.254,318.458 54.613 C 318.266 54.351,317.553 54.333,309.088 54.373 L 299.926 54.417 298.456 56.250 C 297.648 57.258,296.634 58.525,296.202 59.064 C 295.770 59.603,295.342 60.128,295.250 60.230 C 295.158 60.333,294.746 60.865,294.333 61.413 C 293.586 62.405,293.074 63.043,292.742 63.397 C 292.645 63.500,292.162 64.108,291.668 64.750 C 290.856 65.804,289.059 68.064,288.355 68.917 C 288.203 69.100,287.705 69.737,287.248 70.333 L 286.417 71.417 286.333 63.035 C 286.262 55.829,286.215 54.632,286.000 54.496 C 285.861 54.409,284.041 54.338,281.917 54.337 L 278.083 54.335 277.267 55.254 M346.667 54.409 C 346.529 54.443,345.742 54.556,344.917 54.661 C 343.357 54.858,342.163 55.073,341.167 55.335 C 339.643 55.735,338.068 56.233,337.925 56.360 C 337.838 56.437,337.680 56.500,337.573 56.500 C 337.304 56.500,334.757 57.722,333.750 58.334 C 333.292 58.613,332.804 58.889,332.667 58.949 C 332.369 59.077,330.952 60.017,330.833 60.165 C 330.787 60.223,330.579 60.386,330.371 60.528 C 330.162 60.671,329.461 61.261,328.813 61.840 C 318.139 71.373,315.772 87.081,323.163 99.333 C 323.577 100.021,323.973 100.608,324.042 100.639 C 324.110 100.669,324.167 100.772,324.167 100.867 C 324.167 101.049,325.546 102.865,326.406 103.814 C 333.520 111.669,343.504 114.920,355.083 113.152 C 357.655 112.760,362.753 111.383,364.000 110.743 C 364.229 110.626,364.717 110.402,365.083 110.247 C 366.987 109.437,368.523 108.604,368.866 108.193 C 369.459 107.483,371.454 103.395,372.695 100.347 L 373.333 98.778 373.333 89.589 C 373.333 82.664,373.284 80.351,373.133 80.200 C 372.981 80.048,369.721 80.000,359.476 80.000 L 346.019 80.000 345.759 80.370 C 345.537 80.689,345.500 81.566,345.500 86.591 L 345.500 92.442 345.886 92.804 C 346.267 93.163,346.337 93.167,352.391 93.167 L 358.511 93.167 358.464 95.038 L 358.417 96.909 357.225 97.366 C 353.361 98.849,347.868 99.045,344.345 97.824 C 336.141 94.983,332.284 85.498,336.110 77.576 C 336.898 75.944,338.440 73.911,339.553 73.035 C 339.936 72.733,340.362 72.396,340.500 72.284 C 341.493 71.483,343.838 70.369,345.292 70.009 C 345.681 69.912,346.308 69.753,346.684 69.655 C 347.563 69.425,353.053 69.435,354.392 69.668 C 356.391 70.017,357.135 70.181,359.333 70.761 C 360.128 70.971,363.088 72.046,364.000 72.457 C 365.778 73.257,366.096 73.413,367.377 74.120 C 369.944 75.535,369.833 75.862,369.833 66.844 C 369.833 61.169,369.785 59.430,369.625 59.273 C 368.059 57.748,360.601 55.510,354.250 54.659 C 352.925 54.482,347.145 54.291,346.667 54.409 " stroke="none" fill="#fc246c" fill-rule="evenodd"/>
<path id="path2" d="" stroke="none" fill="#4c58100" fill-rule="evenodd"/>
<path id="path3" d="" stroke="none" fill="#4c58100" fill-rule="evenodd"/>
<path id="path4" d="" stroke="none" fill="#4c58100" fill-rule="evenodd"/>
</g></svg>