<svg id="Layer_1" data-name="Layer 1" xmlns="http://www.w3.org/2000/svg" viewBox="0 0 387.84 125.57"><title>2GIS logo - Brandlogos.net</title><g id="g10"><g id="g12"><g id="g14"><g id="g20"><path id="path22" d="M280,395.94c-21.87.11-25.41,13.77-26.58,25.31l-.54,5.11h-4.4l-.54-5.11c-1.18-11.55-4.82-25.2-25.94-25.31-3.54-7.55-5-13.66-5-20.54a33.32,33.32,0,0,1,33.77-33.31c20.15,0,33.55,16,33.55,33.42,0,6.77-.64,12.88-4.29,20.43m-29.48-74.72c-33.23,0-60.46,28.2-60.46,62.73s27.23,62.84,60.46,62.84c33.55,0,60.67-28.2,60.67-62.84s-27.12-62.73-60.67-62.73" transform="translate(-190.08 -321.22)" style="fill:#29b24a"/></g><g id="g24"><path id="path26" d="M436.1,396.16h22c-3.43,8.66-11.15,12.77-20,12.77-15.65,0-22.94-12.55-22.94-25s6.86-25.31,22.83-25.31c9.75,0,17,4.66,19.83,13h18.12c-3.11-18.76-19-29.53-37.73-29.53-23.15,0-40.52,16.32-40.52,42.08,0,26.09,18.87,41.52,40.41,41.52,21.23,0,37.84-14.32,37.84-36.75v-6.55H436.1Z" transform="translate(-190.08 -321.22)" style="fill:#403f41"/></g><g id="g28"><path id="path30" d="M560.12,367.4h17.79C575.67,350.08,563,341,545.44,341c-17.79,0-29.69,9.44-29.69,25.65,0,18.43,15.33,22.54,23.48,24.2,10.51,2.11,20.8,2.33,20.8,11.66,0,6.33-5.15,9.44-12.43,9.44-9,0-15-4.66-16.51-13.1H513.49c1.07,18.21,13.83,28,32.59,28,17.37,0,31.62-8.22,31.62-26,0-19.1-16.4-22.54-27.87-24.31-7.83-1.22-16.4-2.33-16.4-10.88,0-6,4.4-9.66,11.79-9.66,8.58,0,13.72,5,14.9,11.44" transform="translate(-190.08 -321.22)" style="fill:#403f41"/></g><path id="path32" d="M503.74,343.76H486.91v80.49h16.83Z" transform="translate(-190.08 -321.22)" style="fill:#403f41"/><g id="g34"><path id="path36" d="M359.13,342.09c-19.3,0-33.55,12.55-33.45,33.42h17.37c-.21-9.1,5.36-17.43,15.22-17.43,8.58,0,13.61,6.22,13.61,13.32s-5,11.1-14.36,15.43c-12.76,5.88-21.87,9.66-31.19,13v24.42h65V407.81h-44.6l.22-.07a164.55,164.55,0,0,0,20-8c14.47-6.66,22.73-15,22.73-29.2,0-17.43-12.43-28.42-30.55-28.42" transform="translate(-190.08 -321.22)" style="fill:#403f41"/></g></g></g></g></svg>