<?xml version="1.0" encoding="UTF-8"?>
<!DOCTYPE svg PUBLIC "-//W3C//DTD SVG 1.1//EN" "http://www.w3.org/Graphics/SVG/1.1/DTD/svg11.dtd">
<svg xmlns="http://www.w3.org/2000/svg" version="1.1" width="1024px" height="1024px" style="shape-rendering:geometricPrecision; text-rendering:geometricPrecision; image-rendering:optimizeQuality; fill-rule:evenodd; clip-rule:evenodd" xmlns:xlink="http://www.w3.org/1999/xlink">
<g><path style="opacity:0.748" fill="#2a900f" d="M 251.5,100.5 C 424.834,100.333 598.167,100.5 771.5,101C 827.494,109.554 870.328,137.721 900,185.5C 908.936,202.194 915.603,219.861 920,238.5C 921.11,246.482 922.11,254.482 923,262.5C 923.667,428.5 923.667,594.5 923,760.5C 917.117,822.008 887.95,868.841 835.5,901C 815.372,911.383 794.039,918.383 771.5,922C 598.167,922.667 424.833,922.667 251.5,922C 195.579,913.473 152.745,885.307 123,837.5C 114.064,820.806 107.397,803.139 103,784.5C 101.821,776.528 100.821,768.528 100,760.5C 99.3333,594.5 99.3333,428.5 100,262.5C 106.741,194.469 140.574,145.302 201.5,115C 217.64,108.005 234.306,103.172 251.5,100.5 Z"/></g>
<g><path style="opacity:1" fill="#edf8e9" d="M 811.5,476.5 C 811.362,481.414 812.028,486.081 813.5,490.5C 821.011,605.284 779.345,697.451 688.5,767C 613.376,818.685 531.043,835.018 441.5,816C 345.37,790.862 276.203,733.362 234,643.5C 212.852,594.612 204.685,543.612 209.5,490.5C 210.972,486.081 211.638,481.414 211.5,476.5C 227.439,381.122 276.439,308.289 358.5,258C 441.473,211.896 527.806,204.563 617.5,236C 715.926,275.765 779.092,346.932 807,449.5C 808.984,458.431 810.484,467.431 811.5,476.5 Z"/></g>
<g><path style="opacity:1" fill="#2a900f" d="M 491.5,289.5 C 586.821,285.737 659.987,323.737 711,403.5C 731.351,438.391 741.851,476.058 742.5,516.5C 700.828,516.167 659.161,516.5 617.5,517.5C 612.187,523.981 606.687,530.314 601,536.5C 579.196,480.754 557.196,425.087 535,369.5C 533.289,371.956 531.956,374.623 531,377.5C 509.53,438.909 487.864,500.242 466,561.5C 448.757,522.684 431.257,484.017 413.5,445.5C 397.265,468.957 381.265,492.623 365.5,516.5C 337.175,517.5 308.841,517.833 280.5,517.5C 284.69,428.585 325.023,361.751 401.5,317C 429.935,302.232 459.935,293.065 491.5,289.5 Z"/></g>
<g><path style="opacity:0.925" fill="#b2d4a5" d="M 211.5,476.5 C 211.638,481.414 210.972,486.081 209.5,490.5C 209.362,485.586 210.028,480.919 211.5,476.5 Z"/></g>
<g><path style="opacity:0.925" fill="#b2d4a5" d="M 811.5,476.5 C 812.972,480.919 813.638,485.586 813.5,490.5C 812.028,486.081 811.362,481.414 811.5,476.5 Z"/></g>
<g><path style="opacity:1" fill="#2a900f" d="M 535.5,487.5 C 553.425,529.709 570.592,572.376 587,615.5C 603.382,596.573 619.882,577.74 636.5,559C 670.838,558.167 705.172,558.333 739.5,559.5C 719.592,653.24 663.926,714.406 572.5,743C 481.39,764.623 403.557,741.789 339,674.5C 310.367,641.23 291.867,602.896 283.5,559.5C 318.162,558.667 352.829,558.167 387.5,558C 393.543,548.747 399.709,539.58 406,530.5C 427.865,577.566 449.198,624.899 470,672.5C 492.334,610.998 514.167,549.332 535.5,487.5 Z"/></g>
</svg>
