<svg xmlns="http://www.w3.org/2000/svg" width="55" height="54" viewBox="0 0 55 54" fill="none">
<g clip-path="url(#clip0_10_146)">
<path d="M1.92919 53.7441C1.73023 53.7413 1.53647 53.6801 1.37193 53.5683C1.20739 53.4564 1.0793 53.2987 1.00354 53.1147C0.927777 52.9307 0.907681 52.7285 0.945741 52.5332C0.9838 52.3379 1.07834 52.1581 1.21764 52.016L14.859 38.3747C15.0504 38.1833 15.31 38.0757 15.5807 38.0757C15.8514 38.0757 16.111 38.1833 16.3024 38.3747C16.4938 38.5661 16.6014 38.8257 16.6014 39.0964C16.6014 39.3671 16.4938 39.6267 16.3024 39.8181L2.64073 53.4594C2.44977 53.6435 2.19442 53.7457 1.92919 53.7441ZM32.18 27.5795C31.9811 27.5767 31.7873 27.5156 31.6228 27.4037C31.4583 27.2918 31.3302 27.1341 31.2544 26.9501C31.1786 26.7662 31.1585 26.564 31.1966 26.3687C31.2347 26.1734 31.3292 25.9935 31.4685 25.8515L41.7758 15.5442L39.1125 12.942L28.8256 23.1069C28.6342 23.2983 28.3746 23.4059 28.1039 23.4059C27.8332 23.4059 27.5736 23.2983 27.3822 23.1069C27.1908 22.9155 27.0833 22.6559 27.0833 22.3852C27.0833 22.1145 27.1908 21.8549 27.3822 21.6635L39.1125 9.93317L44.6219 15.5442L32.8713 27.2746C32.6886 27.4612 32.4411 27.5704 32.18 27.5795Z" fill="#00D6D6"/>
<path d="M17.6849 42.5016L12.1755 36.9922L23.2756 25.8311C23.467 25.6397 23.7266 25.5322 23.9973 25.5322C24.268 25.5322 24.5276 25.6397 24.719 25.8311C24.9104 26.0225 25.018 26.2821 25.018 26.5528C25.018 26.8235 24.9104 27.0831 24.719 27.2746L15.1436 36.9922L17.7865 39.6351L27.3416 29.9378C27.533 29.7464 27.7926 29.6388 28.0633 29.6388C28.334 29.6388 28.5936 29.7464 28.785 29.9378C28.9764 30.1292 29.0839 30.3888 29.0839 30.6595C29.0839 30.9302 28.9764 31.1898 28.785 31.3812L17.6849 42.5016ZM45.6385 19.041C45.3703 19.0371 45.1146 18.9275 44.9269 18.736L35.9208 9.70954C35.7294 9.51813 35.6218 9.25852 35.6218 8.98783C35.6218 8.71713 35.7294 8.45753 35.9208 8.26612C36.1122 8.07471 36.3718 7.96717 36.6425 7.96717C36.9132 7.96717 37.1728 8.07471 37.3642 8.26612L46.411 17.3129C46.5543 17.4586 46.6503 17.6442 46.6866 17.8453C46.7228 18.0465 46.6976 18.2539 46.6142 18.4404C46.5307 18.627 46.393 18.7841 46.219 18.8913C46.0449 18.9984 45.8426 19.0505 45.6385 19.041ZM52.8962 8.28645C52.6281 8.28263 52.3724 8.17302 52.1847 7.9815L46.6753 2.4721C46.5805 2.37732 46.5053 2.26481 46.454 2.14098C46.4027 2.01715 46.3763 1.88442 46.3763 1.75039C46.3763 1.61636 46.4027 1.48363 46.454 1.3598C46.5053 1.23597 46.5805 1.12346 46.6753 1.02868C46.7701 0.933902 46.8826 0.858722 47.0064 0.807429C47.1302 0.756136 47.263 0.729736 47.397 0.729736C47.531 0.729736 47.6637 0.756136 47.7876 0.807429C47.9114 0.858722 48.0239 0.933902 48.1187 1.02868L53.6281 6.53808C53.7674 6.68015 53.8619 6.85999 53.9 7.05529C53.9381 7.25059 53.918 7.45277 53.8422 7.63675C53.7664 7.82074 53.6384 7.97845 53.4738 8.09032C53.3093 8.2022 53.1155 8.26332 52.9166 8.26612L52.8962 8.28645Z" fill="#00D6D6"/>
<path d="M41.1658 14.5277C40.9669 14.5249 40.7731 14.4638 40.6086 14.3519C40.444 14.24 40.316 14.0823 40.2402 13.8984C40.1644 13.7144 40.1443 13.5122 40.1824 13.3169C40.2205 13.1216 40.315 12.9418 40.4543 12.7997L49.4401 3.79354C49.5349 3.69876 49.6474 3.62358 49.7712 3.57229C49.8951 3.521 50.0278 3.4946 50.1618 3.4946C50.2959 3.4946 50.4286 3.521 50.5524 3.57229C50.6762 3.62358 50.7888 3.69876 50.8835 3.79354C50.9783 3.88831 51.0535 4.00083 51.1048 4.12466C51.1561 4.24849 51.1825 4.38121 51.1825 4.51525C51.1825 4.64928 51.1561 4.782 51.1048 4.90584C51.0535 5.02967 50.9783 5.14218 50.8835 5.23696L41.8774 14.2228C41.6897 14.4143 41.434 14.5239 41.1658 14.5277ZM50.7819 53.7441C50.5138 53.7402 50.258 53.6306 50.0703 53.4391L1.27862 4.64739C1.08721 4.45598 0.979675 4.19638 0.979675 3.92568C0.979675 3.65499 1.08721 3.39538 1.27862 3.20397C1.47003 3.01256 1.72963 2.90503 2.00033 2.90503C2.27102 2.90503 2.53063 3.01256 2.72204 3.20397L51.5138 51.9957C51.6531 52.1378 51.7476 52.3176 51.7857 52.5129C51.8237 52.7082 51.8036 52.9104 51.7279 53.0944C51.6521 53.2783 51.524 53.4361 51.3595 53.5479C51.1949 53.6598 51.0012 53.7209 50.8022 53.7237L50.7819 53.7441Z" fill="#00D6D6"/>
</g>
<defs>
<clipPath id="clip0_10_146">
<rect width="54" height="53" fill="white" transform="translate(0.412689 0.74408)"/>
</clipPath>
</defs>
</svg>