<svg xmlns="http://www.w3.org/2000/svg" width="52" height="78" viewBox="0 0 52 78" fill="none">
<g clip-path="url(#clip0_10_119)">
<path d="M13.551 35.7375C13.3269 35.752 13.1042 35.6927 12.9169 35.5687C12.7297 35.4447 12.5881 35.2628 12.514 35.0508C12.4398 34.8388 12.437 34.6084 12.5061 34.3947C12.5751 34.181 12.7122 33.9958 12.8965 33.8673C17.6841 29.8651 25.7446 28.1445 26.1 28.0697C26.3753 28.0226 26.658 28.0868 26.886 28.2481C27.1139 28.4094 27.2685 28.6547 27.3156 28.93C27.3627 29.2053 27.2985 29.488 27.1372 29.716C26.9759 29.944 26.7306 30.0985 26.4553 30.1456C26.4553 30.1456 18.5444 31.8475 14.1495 35.5131C13.9789 35.6495 13.7693 35.7281 13.551 35.7375Z" fill="#00D6D6"/>
<path d="M31.2991 69.7936C28.4938 69.7936 27.5587 66.2029 26.3992 62.3129C25.5389 59.2458 24.529 55.7485 22.8833 55.7485C21.2375 55.7485 20.078 59.2271 19.1429 62.3129C18.0582 66.0532 17.0483 69.7936 14.243 69.7936C9.28699 69.7936 5.07907 60.7232 4.61152 59.6759C4.3684 59.1897 -1.89673 46.5846 0.87115 35.2513C3.3959 25.171 14.7105 27.2469 20.1341 28.2568C20.9356 28.4334 21.7477 28.5583 22.5653 28.6308C23.4401 28.5725 24.3092 28.4475 25.1649 28.2568C27.233 27.8379 29.3255 27.5505 31.43 27.3965C31.6871 27.376 31.942 27.4565 32.1407 27.6209L32.683 28.0697C32.8359 28.1961 32.9491 28.3639 33.0088 28.553C33.0685 28.7422 33.0723 28.9445 33.0197 29.1357C32.7399 30.5307 32.7922 31.9719 33.1723 33.3429C33.5524 34.7139 34.2497 35.9762 35.2078 37.0279C37.078 38.8981 39.7336 39.3844 43.1187 38.4867C43.281 38.4451 43.4511 38.4438 43.6141 38.4829C43.777 38.522 43.928 38.6003 44.0538 38.7111L44.9328 39.4592C45.0453 39.5566 45.1353 39.6773 45.1967 39.8129C45.258 39.9485 45.2892 40.0958 45.2881 40.2447C45.0827 46.9417 43.5973 53.5374 40.9119 59.6759C40.463 60.7045 36.2551 69.7936 31.2991 69.7936ZM22.7149 53.7661C26.1 53.7661 27.2595 57.8618 28.3255 61.8266C29.0736 64.4636 29.99 67.7364 31.243 67.7364C34.3101 67.7364 37.957 61.1534 38.9856 58.8343C41.5026 53.1097 42.96 46.9759 43.287 40.7309L43.1748 40.6374C41.5689 41.1595 39.8516 41.2369 38.2052 40.8615C36.5588 40.4862 35.0448 39.672 33.8238 38.5054C32.7155 37.3071 31.8818 35.8813 31.3812 34.3277C30.8805 32.774 30.7249 31.1298 30.9251 29.5098C29.1864 29.6779 27.4574 29.9338 25.7446 30.2766C24.8211 30.4796 23.8832 30.611 22.9394 30.6693C21.9387 30.6238 20.9439 30.4924 19.9658 30.2766C14.7853 29.3228 5.11647 27.5274 3.13408 35.7375C0.272691 46.3976 6.46301 58.666 6.53782 58.7969C8.10877 62.2755 11.4938 67.7364 14.2991 67.7364C15.5521 67.7364 16.4685 64.4636 17.2166 61.8266C18.3387 57.8618 19.4982 53.7661 22.7149 53.7661ZM42.913 33.007C42.0818 33.0072 41.2621 32.813 40.5194 32.4398C39.7767 32.0667 39.1315 31.5251 38.6354 30.8582C38.1393 30.1913 37.8061 29.4177 37.6623 28.599C37.5185 27.7804 37.5682 26.9395 37.8073 26.1435L37.9944 25.4889C38.0306 25.3735 38.0877 25.2658 38.1627 25.171L42.595 19.3173C42.7587 19.099 43.0024 18.9547 43.2724 18.9162C43.5425 18.8776 43.8168 18.9479 44.0351 19.1115L50.8612 24.2733C51.0795 24.4369 51.2238 24.6806 51.2624 24.9507C51.3009 25.2207 51.2307 25.4951 51.067 25.7133L46.672 31.5296C46.5996 31.6253 46.511 31.7076 46.4102 31.7727L45.8117 32.1655C44.9468 32.7194 43.9401 33.0117 42.913 33.007ZM39.902 26.2183L39.7523 26.6858C39.5625 27.3258 39.5717 28.0084 39.7788 28.643C39.9859 29.2777 40.3811 29.8343 40.9119 30.2392C41.4463 30.6411 42.0905 30.8707 42.7587 30.8975C43.4269 30.9242 44.0874 30.7467 44.6522 30.3888L45.1011 30.1082L48.8414 25.2645L43.6423 21.3371L39.902 26.2183Z" fill="#00D6D6"/>
<path d="M37.6764 35.5879C37.4854 35.5879 37.2982 35.5347 37.1357 35.4342C36.9732 35.3338 36.8418 35.1901 36.7564 35.0193C36.671 34.8484 36.6348 34.6571 36.652 34.4669C36.6691 34.2766 36.7389 34.0949 36.8535 33.9421L39.5466 30.4449C39.6277 30.3368 39.7292 30.2458 39.8454 30.1769C39.9617 30.1081 40.0903 30.0629 40.224 30.0438C40.3578 30.0247 40.4939 30.0321 40.6248 30.0656C40.7556 30.0991 40.8786 30.1581 40.9867 30.2391C41.0947 30.3202 41.1858 30.4217 41.2546 30.538C41.3234 30.6542 41.3687 30.7828 41.3878 30.9166C41.4069 31.0503 41.3994 31.1864 41.3659 31.3173C41.3324 31.4482 41.2734 31.5711 41.1924 31.6792L38.5554 35.1764C38.4541 35.3121 38.3208 35.4206 38.1675 35.4923C38.0142 35.5641 37.8455 35.5969 37.6764 35.5879ZM42.1088 22.6275C41.8608 22.6448 41.615 22.5717 41.4168 22.4218L35.694 18.0455C31.0616 14.8549 25.9732 12.3833 20.6016 10.7144C20.469 10.6751 20.3454 10.6101 20.2379 10.523C20.1304 10.4359 20.0411 10.3286 19.9752 10.207C19.9092 10.0854 19.8678 9.95207 19.8533 9.8145C19.8389 9.67694 19.8517 9.53788 19.8909 9.40525C19.9302 9.27263 19.9953 9.14905 20.0823 9.04156C20.1694 8.93407 20.2768 8.84478 20.3983 8.77879C20.5199 8.7128 20.6533 8.67139 20.7908 8.65695C20.9284 8.6425 21.0675 8.65529 21.2001 8.69458C26.8137 10.4215 32.1258 13.0081 36.9471 16.3623L42.7446 20.7386C42.9254 20.8655 43.0606 21.0472 43.1301 21.2569C43.1996 21.4666 43.1997 21.6931 43.1305 21.9028C43.0613 22.1126 42.9264 22.2945 42.7457 22.4217C42.5651 22.5488 42.3483 22.6144 42.1275 22.6088L42.1088 22.6275ZM39.5466 25.9751C39.3241 25.9751 39.1075 25.9029 38.9295 25.7694L35.0395 22.8145C29.6159 18.7188 20.3585 17.0917 20.265 17.073C20.0144 17.0083 19.7975 16.8514 19.6575 16.6338C19.5174 16.4162 19.4645 16.1538 19.5094 15.8989C19.5542 15.6441 19.6935 15.4155 19.8994 15.2587C20.1053 15.102 20.3627 15.0286 20.6203 15.0532C21.0131 15.0532 30.4575 16.7925 36.2925 21.1874L40.2012 24.1423C40.382 24.2692 40.5171 24.451 40.5866 24.6607C40.6561 24.8703 40.6563 25.0968 40.587 25.3066C40.5178 25.5164 40.3829 25.6983 40.2023 25.8254C40.0216 25.9525 39.8048 26.0181 39.584 26.0125L39.5466 25.9751Z" fill="#00D6D6"/>
</g>
<defs>
<clipPath id="clip0_10_119">
<rect width="51" height="77" fill="white" transform="translate(0.27269 0.74408)"/>
</clipPath>
</defs>
</svg>