<svg xmlns="http://www.w3.org/2000/svg" width="60" height="60" viewBox="0 0 71 71" fill="none">
<path d="M57.0015 24.1857C56.0784 21.5211 54.7409 19.4148 53.0984 18.1002C48.9486 14.7783 45.2869 15.9939 42.0566 17.0655C40.3461 17.6335 38.5781 18.2199 36.5988 18.2605C34.6188 18.2199 32.8515 17.6335 31.1411 17.0655C27.91 15.9939 24.2483 14.7783 20.0993 18.0995C17.7899 19.9488 16.0794 23.3541 15.2833 27.6901C14.3579 32.7298 14.7493 38.6307 16.3859 44.3056C18.1067 50.2707 21.0616 55.6864 24.9315 59.9677C25.7306 60.8517 26.8465 61.3398 28.0134 61.3398C28.246 61.3398 28.4801 61.3199 28.7143 61.2808C30.1322 61.0422 31.3146 60.1102 31.8766 58.7867C32.6846 56.885 33.3397 55.145 33.8234 53.6155C34.2075 52.4014 35.3226 51.5853 36.5988 51.5853C37.875 51.5853 38.9909 52.4006 39.375 53.6155C39.858 55.145 40.5131 56.885 41.321 58.7875C41.883 60.1102 43.0654 61.0422 44.4834 61.2808C45.8947 61.5178 47.309 61.0274 48.2662 59.9677C52.1368 55.6864 55.0917 50.2707 56.8117 44.3056C56.8782 44.0752 56.9395 43.8433 57.0015 43.6114C59.5074 34.8775 58.1839 27.6901 57.0015 24.1857ZM45.4605 57.4323C45.3674 57.5349 45.25 57.5755 45.1104 57.5519C45.0092 57.5349 44.8734 57.4788 44.801 57.3089C44.0403 55.5173 43.4273 53.8917 42.9798 52.476C42.1578 49.8741 39.8772 48.0684 37.1993 47.8313C37.7679 47.4244 38.4215 47.1644 39.1638 47.1644C40.208 47.1644 41.0551 46.3173 41.0551 45.2731C41.0551 44.2295 40.208 43.3824 39.1638 43.3824C33.3308 43.3824 31.0126 50.154 30.6064 51.5114C30.4542 51.8187 30.3235 52.1407 30.2172 52.476C29.7696 53.8917 29.1574 55.5172 28.3959 57.3082C28.3236 57.4788 28.1884 57.5349 28.0872 57.5519C27.9477 57.5763 27.8295 57.5349 27.7364 57.4323C20.8511 49.815 17.2589 37.8656 19.0018 28.3732C19.6155 25.0321 20.9094 22.2951 22.4626 21.0521C23.8259 19.9606 24.9928 19.6312 26.2557 19.7176C25.094 21.6452 23.8968 24.4642 24.4226 27.3681C24.4596 27.5734 24.4972 27.775 24.5342 27.9722C24.6324 28.5047 24.721 28.984 24.7875 29.4278C24.7934 29.5135 24.8045 29.5992 24.8229 29.6848C25.0689 31.56 24.8222 32.8103 22.9618 34.7615C22.241 35.517 22.2691 36.7142 23.0253 37.4343C23.3909 37.7836 23.8606 37.9572 24.3296 37.9572C24.8288 37.9572 25.3266 37.7607 25.6981 37.3708C28.0186 34.938 28.6662 32.8465 28.681 30.8392C30.1906 30.7291 32.4246 31.0519 33.3463 33.6493C33.6211 34.424 34.35 34.9085 35.1284 34.9085C35.3382 34.9085 35.5516 34.873 35.7606 34.7992C36.7443 34.4499 37.2591 33.3686 36.9098 32.3849C35.8367 29.3592 33.5095 27.4914 30.3575 27.1251C29.5813 27.035 28.8501 27.0461 28.218 27.1C28.1928 26.9656 28.1685 26.8319 28.1434 26.6945C27.7608 24.5823 29.0865 22.1481 30.1189 20.7102C31.9734 21.3254 34.0708 21.9982 36.5656 22.0418H36.6313C39.2014 21.9967 41.3505 21.2833 43.2471 20.6541C46.329 19.6312 48.1886 19.0138 50.7351 21.0521C52.2882 22.2951 53.5814 25.0321 54.1951 28.3732C55.938 37.8656 52.3466 49.815 45.4605 57.4323ZM14.4465 12.8507L10.7339 7.0525C10.1712 6.17291 10.4274 5.00381 11.307 4.44031C12.1866 3.87681 13.3557 4.13382 13.9192 5.01342L17.6311 10.8116C18.1939 11.6912 17.9376 12.8603 17.058 13.4231C16.7426 13.6254 16.3896 13.7222 16.0403 13.7222C15.417 13.7222 14.8069 13.4142 14.4465 12.8507ZM13.0884 18.3498C14.1341 18.2959 15.0174 19.1039 15.0669 20.1474C15.1171 21.1902 14.3121 22.0765 13.2693 22.1267L4.39141 22.5528C4.36039 22.5543 4.32937 22.555 4.29909 22.555C3.29616 22.555 2.46088 21.767 2.41214 20.7545C2.36192 19.7117 3.16692 18.8255 4.20973 18.776L13.0884 18.3498ZM23.5903 12.9105C22.6295 12.5014 22.1812 11.3914 22.5896 10.4306L26.4964 1.24099C26.9048 0.280158 28.0156 -0.167393 28.9764 0.241016C29.9373 0.649424 30.3848 1.75944 29.9764 2.72027L26.0703 11.9098C25.7638 12.6299 25.0644 13.0612 24.3288 13.0612C24.0822 13.0612 23.8311 13.0132 23.5903 12.9105Z" fill="#ff5955"/>
</svg>