<svg xmlns="http://www.w3.org/2000/svg" width="76" height="54" viewBox="0 0 76 54" fill="none">
  <g clip-path="url(#clip0_10_172)">
    <path d="M15.924 28.3017C13.9875 22.3293 13.6232 15.9586 14.8664 9.80439C17.5693 -1.03077 29.6501 1.20207 35.432 2.25974C36.2695 2.43787 37.1173 2.56346 37.9704 2.63579C38.8794 2.57768 39.7829 2.45198 40.6733 2.25974C46.4787 1.17857 58.536 -1.05427 61.239 9.78089C62.4801 15.9274 62.1158 22.29 60.1813 28.2547L57.7134 27.5261C59.5145 22.0046 59.8705 16.1137 58.7476 10.4155C56.6323 1.93068 46.5492 3.81097 41.1434 4.79812C40.1615 5.0244 39.1635 5.17371 38.1584 5.24469C37.0905 5.19551 36.0289 5.05396 34.9854 4.82163C29.5561 3.81097 19.4731 1.95419 17.3577 10.4155C16.2318 16.1213 16.5878 22.0206 18.3919 27.5496L15.924 28.3017Z" fill="#00D6D6"/>
    <path d="M38.1584 34.5302C29.3446 34.5302 22.223 32.6264 17.0052 28.8423C12.5828 31.8964 7.3373 33.5356 1.96286 33.5431C1.62002 33.5431 1.29122 33.4069 1.04879 33.1644C0.806361 32.922 0.670166 32.5932 0.670166 32.2504C0.670166 31.9075 0.806361 31.5787 1.04879 31.3363C1.29122 31.0939 1.62002 30.9577 1.96286 30.9577C7.07571 30.9508 12.0605 29.3577 16.2296 26.398L17.0052 25.7399L17.7103 26.2804C22.599 30.041 29.4151 31.8743 38.1584 31.8743C38.3282 31.8743 38.4963 31.9077 38.6531 31.9727C38.8099 32.0377 38.9525 32.1329 39.0725 32.2529C39.1925 32.373 39.2877 32.5155 39.3527 32.6723C39.4177 32.8291 39.4511 32.9972 39.4511 33.167C39.4511 33.3368 39.4177 33.5049 39.3527 33.6617C39.2877 33.8185 39.1925 33.961 39.0725 34.0811C38.9525 34.2011 38.8099 34.2963 38.6531 34.3613C38.4963 34.4263 38.3282 34.4597 38.1584 34.4597V34.5302Z" fill="#00D6D6"/>
    <path d="M38.1584 34.5302C37.8062 34.5302 37.4684 34.3903 37.2194 34.1412C36.9704 33.8922 36.8304 33.5544 36.8304 33.2022C36.8304 32.85 36.9704 32.5123 37.2194 32.2632C37.4684 32.0142 37.8062 31.8743 38.1584 31.8743C46.7842 31.8743 53.6238 29.9705 58.442 26.1864L59.1471 25.6458L60.1108 26.2334C64.2798 29.1931 69.2646 30.7863 74.3774 30.7931C74.7203 30.7931 75.0491 30.9293 75.2915 31.1717C75.534 31.4142 75.6701 31.743 75.6701 32.0858C75.6701 32.4286 75.534 32.7574 75.2915 32.9999C75.0491 33.2423 74.7203 33.3785 74.3774 33.3785C68.9952 33.3743 63.7413 31.735 59.3116 28.6778C53.9763 32.6264 46.8547 34.5302 38.1584 34.5302Z" fill="#00D6D6"/>
    <path d="M13.033 47.0106C14.0326 47.0106 14.8428 46.2003 14.8428 45.2008C14.8428 44.2013 14.0326 43.3911 13.033 43.3911C12.0335 43.3911 11.2233 44.2013 11.2233 45.2008C11.2233 46.2003 12.0335 47.0106 13.033 47.0106Z" fill="#00D6D6"/>
    <path d="M30.0496 47.0106C31.0492 47.0106 31.8594 46.2003 31.8594 45.2008C31.8594 44.2013 31.0492 43.3911 30.0496 43.3911C29.0501 43.3911 28.2399 44.2013 28.2399 45.2008C28.2399 46.2003 29.0501 47.0106 30.0496 47.0106Z" fill="#00D6D6"/>
    <path d="M21.7529 42.1219C22.7524 42.1219 23.5627 41.3116 23.5627 40.3121C23.5627 39.3126 22.7524 38.5023 21.7529 38.5023C20.7534 38.5023 19.9431 39.3126 19.9431 40.3121C19.9431 41.3116 20.7534 42.1219 21.7529 42.1219Z" fill="#00D6D6"/>
    <path d="M47.0663 47.0106C48.0658 47.0106 48.8761 46.2003 48.8761 45.2008C48.8761 44.2013 48.0658 43.3911 47.0663 43.3911C46.0668 43.3911 45.2565 44.2013 45.2565 45.2008C45.2565 46.2003 46.0668 47.0106 47.0663 47.0106Z" fill="#00D6D6"/>
    <path d="M38.7695 42.1219C39.769 42.1219 40.5793 41.3116 40.5793 40.3121C40.5793 39.3126 39.769 38.5023 38.7695 38.5023C37.77 38.5023 36.9597 39.3126 36.9597 40.3121C36.9597 41.3116 37.77 42.1219 38.7695 42.1219Z" fill="#00D6D6"/>
    <path d="M38.7695 53.1921C39.769 53.1921 40.5793 52.3818 40.5793 51.3823C40.5793 50.3828 39.769 49.5725 38.7695 49.5725C37.77 49.5725 36.9597 50.3828 36.9597 51.3823C36.9597 52.3818 37.77 53.1921 38.7695 53.1921Z" fill="#00D6D6"/>
    <path d="M64.1064 47.0106C65.1059 47.0106 65.9162 46.2003 65.9162 45.2008C65.9162 44.2013 65.1059 43.3911 64.1064 43.3911C63.1069 43.3911 62.2966 44.2013 62.2966 45.2008C62.2966 46.2003 63.1069 47.0106 64.1064 47.0106Z" fill="#00D6D6"/>
    <path d="M55.7861 42.1219C56.7856 42.1219 57.5959 41.3116 57.5959 40.3121C57.5959 39.3126 56.7856 38.5023 55.7861 38.5023C54.7866 38.5023 53.9763 39.3126 53.9763 40.3121C53.9763 41.3116 54.7866 42.1219 55.7861 42.1219Z" fill="#00D6D6"/>
    <path d="M27.8638 10.721C27.5822 10.7392 27.3023 10.6647 27.0669 10.5089C26.8316 10.353 26.6537 10.1245 26.5605 9.85806C26.4672 9.59166 26.4638 9.30206 26.5506 9.03348C26.6374 8.76491 26.8097 8.53212 27.0412 8.37068C31.2672 5.36794 36.0684 3.27141 41.1434 2.21273C41.48 2.14105 41.8313 2.20601 42.12 2.39335C42.4087 2.58068 42.6112 2.87502 42.6828 3.21164C42.7545 3.54825 42.6896 3.89955 42.5022 4.18826C42.3149 4.47697 42.0206 4.67944 41.6839 4.75112C37.0462 5.7388 32.6517 7.64042 28.757 10.345C28.5193 10.5814 28.199 10.7162 27.8638 10.721Z" fill="#00D6D6"/>
  </g>
  <defs>
    <clipPath id="clip0_10_172">
      <rect width="75" height="53" fill="white" transform="translate(0.552673 0.74408)"/>
    </clipPath>
  </defs>
</svg>