<svg xmlns="http://www.w3.org/2000/svg" width="60" height="60" viewBox="0 0 71 71" fill="none">
<path d="M68.9169 7.09151H51.3854C50.7788 7.07619 50.1741 7.1668 49.5987 7.35926L39.9439 10.5793H19.8749C18.4893 10.5811 17.1609 11.1321 16.1807 12.1116C15.2006 13.0911 14.6487 14.4191 14.6459 15.8048C14.6459 18.078 16.1037 20.0153 18.1319 20.7345V25.1165C16.0956 25.8424 14.333 27.1794 13.0851 28.9447C11.8372 30.7101 11.1649 32.8176 11.1599 34.9795C11.1599 39.106 13.5609 42.6795 17.0399 44.3823C15.4824 50.936 17.4844 57.7155 22.1289 62.36C23.1614 63.3925 25.0462 62.7835 25.1704 61.2698C25.5677 56.3855 27.8847 52.4113 30.3347 52.4113C32.7847 52.4113 35.1017 56.3873 35.4989 61.275C35.6249 62.8185 37.5237 63.375 38.5404 62.36C40.8529 60.0471 42.5346 57.1806 43.4254 54.0337C44.3163 50.8867 44.3865 47.5641 43.6294 44.3823C45.3914 43.5225 46.8767 42.1854 47.9163 40.5231C48.9558 38.8608 49.5078 36.9401 49.5094 34.9795C49.5041 32.8179 48.8316 30.7107 47.5837 28.9457C46.3358 27.1808 44.5735 25.8441 42.5374 25.1183V20.7363L42.5899 20.7205L52.1029 17.5478H68.9169C69.8794 17.5478 70.6599 16.7708 70.6599 15.8065V8.83451C70.6599 8.37223 70.4763 7.92889 70.1494 7.60202C69.8225 7.27514 69.3792 7.09151 68.9169 7.09151ZM25.1057 21.0338V28.0093H23.3627C22.9005 28.0088 22.4575 27.825 22.1307 27.4982C21.8039 27.1715 21.6201 26.7284 21.6197 26.2663V21.0338H25.1057ZM32.0777 21.0338V28.0093H28.5917V21.0338H32.0777ZM39.0514 21.0338V26.2663C39.0514 27.2288 38.2692 28.0093 37.3067 28.0093H35.5637V21.0338H39.0514ZM46.0234 34.9813C46.0211 36.8299 45.2856 38.6022 43.9782 39.9093C42.6708 41.2163 40.8983 41.9514 39.0497 41.9533C38.5874 41.9533 38.1441 42.1369 37.8172 42.4638C37.4903 42.7906 37.3067 43.234 37.3067 43.6963C37.3067 44.1585 37.4903 44.6019 37.8172 44.9287C38.1441 45.2556 38.5874 45.4393 39.0497 45.4393C39.4662 45.4393 39.8774 45.413 40.2817 45.3658C41.1744 49.3838 40.461 53.5916 38.2937 57.0908C36.9357 52.1908 33.8942 48.9253 30.3347 48.9253C26.7752 48.9253 23.7319 52.1908 22.3739 57.0908C20.2072 53.5913 19.4944 49.3835 20.3877 45.3658C20.7919 45.413 21.2032 45.4393 21.6197 45.4393C22.0819 45.4393 22.5253 45.2556 22.8521 44.9287C23.179 44.6019 23.3627 44.1585 23.3627 43.6963C23.3627 43.234 23.179 42.7906 22.8521 42.4638C22.5253 42.1369 22.0819 41.9533 21.6197 41.9533C19.7707 41.9514 17.998 41.2161 16.6905 39.9086C15.3831 38.6012 14.6478 36.8285 14.6459 34.9795C14.6493 33.6466 15.0331 32.3423 15.7524 31.2201C16.4716 30.0979 17.4963 29.2043 18.7059 28.6445C19.1445 29.5017 19.8112 30.2213 20.6325 30.724C21.4539 31.2267 22.398 31.4929 23.3609 31.4935H37.3084C38.2713 31.4929 39.2155 31.2267 40.0368 30.724C40.8581 30.2213 41.5248 29.5017 41.9634 28.6445C43.1731 29.2043 44.1977 30.0979 44.917 31.2201C45.6362 32.3423 46.02 33.6483 46.0234 34.9813ZM67.1739 14.0618H51.8194C51.632 14.0615 51.4459 14.0917 51.2682 14.151L41.6222 17.3675L40.5039 17.5495H19.8749C19.4122 17.5495 18.9684 17.3657 18.6412 17.0385C18.314 16.7113 18.1302 16.2675 18.1302 15.8048C18.1302 15.342 18.314 14.8982 18.6412 14.571C18.9684 14.2438 19.4122 14.06 19.8749 14.06H40.2274C40.4148 14.0602 40.6009 14.0301 40.7787 13.9708L50.7029 10.6633C50.9934 10.5653 51.1702 10.574 51.3679 10.574H67.1739V14.0618Z" fill="#ff5955"/>
</svg>