<svg xmlns="http://www.w3.org/2000/svg" width="60" height="60" viewBox="0 0 71 71" fill="none">
<path d="M49.2175 37.1462C44.7865 35.1897 40.3747 34.215 35.97 34.215C31.5652 34.215 27.1552 35.1897 22.7225 37.1462C22.5247 38.7877 23.0392 41.565 24.084 44.4647C25.1917 47.5447 26.6985 50.2765 28.116 51.7762C28.8877 52.5917 29.4162 52.807 29.6297 52.807H29.635L29.6752 52.8035L29.6875 52.8017C29.6437 52.3152 29.4617 51.5207 29.3322 50.9485C28.8947 49.0235 28.3487 46.626 28.9122 44.12C29.5895 41.11 31.7332 38.7562 35.2857 37.127C35.4969 37.0301 35.7262 36.9793 35.9585 36.9778C36.1908 36.9763 36.4208 37.0241 36.6332 37.1182C40.2085 38.702 42.3645 41.033 43.0417 44.0482C43.6052 46.5507 43.054 48.9657 42.613 50.9047C42.487 51.4577 42.2945 52.2977 42.249 52.8017L42.277 52.8052H42.284C42.6042 52.8297 43.7592 52.3065 45.4025 49.6482C45.6355 49.2867 46.0011 49.031 46.4207 48.9362C46.8403 48.8415 47.2803 48.9152 47.646 49.1416C48.0118 49.3679 48.2741 49.7288 48.3765 50.1466C48.479 50.5643 48.4133 51.0056 48.1937 51.3755C46.2565 54.5045 44.2807 56.0882 42.3137 56.0882C42.2227 56.0882 42.13 56.0847 42.0372 56.076C40.9627 56.0585 40.1385 55.7015 39.5907 55.0137C38.5932 53.7642 38.973 52.1017 39.4122 50.175C40.1805 46.8115 41.0467 43.0175 35.9822 40.438C30.9107 43.098 31.77 46.8727 32.5312 50.2205C32.9652 52.128 33.3397 53.773 32.3475 55.0155C31.7997 55.7015 30.9737 56.0585 29.8957 56.076C29.8049 56.0834 29.7138 56.0875 29.6227 56.0882C28.3312 56.0882 27.024 55.397 25.7307 54.0302C23.993 52.1927 22.2675 49.111 20.9952 45.576C19.8227 42.3175 19.2662 39.2865 19.429 37.1147C18.3562 35.349 14.97 29.406 14.97 24.6722C14.97 18.689 19.8455 14.1547 26.324 14.09H26.4395C29.1537 14.1022 30.9632 14.7865 32.5627 15.3902C34.0362 15.9485 35.319 16.4315 37.3 16.4665C39.652 14.874 42.3662 14.09 45.4865 14.09C48.535 14.1005 51.3752 15.1225 53.4892 16.9705C55.7345 18.9305 56.97 21.664 56.97 24.6705C56.97 29.4042 53.5855 35.3455 52.511 37.113C52.6755 39.227 52.1312 41.712 51.615 43.5005C51.4851 43.9076 51.2017 44.248 50.8248 44.4495C50.4479 44.6509 50.0074 44.6974 49.5968 44.5791C49.1861 44.4609 48.8378 44.1871 48.6258 43.8161C48.4138 43.4451 48.3549 43.006 48.4615 42.5922C49.0985 40.3872 49.3697 38.4167 49.2175 37.1462ZM50.565 33.9157C51.825 31.6127 53.6887 27.691 53.6887 24.6722C53.6887 20.5265 50.159 17.3887 45.4812 17.3712C41.094 17.3712 37.8337 19.2927 35.2245 23.4157C35.1093 23.5978 34.9595 23.7555 34.7834 23.8797C34.6073 24.0039 34.4085 24.0922 34.1983 24.1396C33.9881 24.187 33.7706 24.1925 33.5583 24.1558C33.346 24.1191 33.143 24.041 32.9608 23.9258C32.7787 23.8107 32.6211 23.6608 32.4969 23.4848C32.3726 23.3087 32.2843 23.1099 32.237 22.8997C32.1896 22.6895 32.1841 22.472 32.2208 22.2597C32.2574 22.0474 32.3356 21.8443 32.4507 21.6622C32.9827 20.8222 33.5445 20.0522 34.1342 19.3522C33.1052 19.1037 32.225 18.7712 31.4025 18.4597C29.866 17.8787 28.5395 17.3765 26.408 17.3712C22.3515 17.3922 18.2512 19.9035 18.2512 24.6722C18.2512 27.691 20.1167 31.6127 21.375 33.9157C26.2225 31.7825 31.091 30.715 35.97 30.715C40.849 30.715 45.7175 31.7842 50.565 33.9157ZM50.3725 24.6722C50.3725 25.1076 50.1995 25.5251 49.8917 25.8329C49.5838 26.1408 49.1663 26.3137 48.731 26.3137C48.2956 26.3137 47.8781 26.1408 47.5703 25.8329C47.2624 25.5251 47.0895 25.1076 47.0895 24.6722C47.0895 24.4622 47.0667 24.4395 46.9757 24.3607C46.7377 24.1507 46.2162 23.9267 45.4655 23.9232C45.0301 23.9218 44.6131 23.7475 44.3063 23.4387C43.9994 23.1299 43.8278 22.7118 43.8292 22.2765C43.8306 21.8411 44.0049 21.4241 44.3137 21.1173C44.6225 20.8104 45.0406 20.6388 45.476 20.6402H45.4865C46.932 20.649 48.2322 21.0952 49.144 21.8967C49.9577 22.6142 50.3725 23.547 50.3725 24.6722Z" fill="#ff5955"/>
</svg>