<svg xmlns="http://www.w3.org/2000/svg" width="64" height="64" viewBox="0 0 64 64" fill="none">
  <g clip-path="url(#clip0_1_107)">
    <path d="M6.328 54.58H5.82684L4.49042 54.4129C3.41884 54.2668 2.4457 53.7107 1.77582 52.8617C1.10593 52.0127 0.791525 50.9369 0.89877 49.8607L1.35817 45.9767C1.52371 44.9164 2.09107 43.9605 2.94254 43.3073C3.79402 42.6541 4.86426 42.3538 5.93125 42.4686H7.16327C8.22708 42.6195 9.19178 43.1747 9.85681 44.0186C10.5218 44.8625 10.836 45.9303 10.734 46.9999L10.2746 50.8839C10.1619 51.8679 9.70313 52.7798 8.9802 53.4568C8.25728 54.1339 7.31728 54.5319 6.328 54.58ZM5.45097 44.6612C5.01553 44.6626 4.59546 44.8223 4.26895 45.1104C3.94244 45.3985 3.73173 45.7954 3.67603 46.2273L3.21664 50.1113C3.17528 50.3521 3.1835 50.5988 3.24081 50.8364C3.29811 51.0739 3.40328 51.2972 3.54989 51.4927C3.6965 51.6882 3.88146 51.8517 4.09345 51.9732C4.30543 52.0947 4.53999 52.1717 4.78276 52.1994L6.11919 52.3665C6.36001 52.4079 6.60674 52.3996 6.84427 52.3423C7.08181 52.285 7.30515 52.1799 7.50063 52.0332C7.6961 51.8866 7.85961 51.7017 7.98113 51.4897C8.10265 51.2777 8.17963 51.0431 8.20735 50.8004L8.66675 46.9164C8.70811 46.6756 8.69988 46.4288 8.64258 46.1913C8.58528 45.9538 8.4801 45.7304 8.33349 45.5349C8.18689 45.3395 8.00193 45.176 7.78994 45.0544C7.57795 44.9329 7.3434 44.8559 7.10063 44.8282L5.7642 44.6612H5.45097Z" fill="#00D6D6"/>
    <path d="M7.43472 44.5567H6.95444L5.61801 44.3897C4.55024 44.2387 3.58226 43.6805 2.91669 42.832C2.25113 41.9835 1.93957 40.9105 2.04725 39.8375L2.25607 38.1252C2.40701 37.0614 2.96216 36.0967 3.80608 35.4316C4.65001 34.7666 5.71778 34.4524 6.78739 34.5544L8.12382 34.7215C9.18762 34.8724 10.1523 35.4276 10.8174 36.2715C11.4824 37.1154 11.7966 38.1832 11.6946 39.2528L11.4858 40.9651C11.3471 41.9473 10.8633 42.8481 10.121 43.5062C9.37878 44.1643 8.4265 44.5367 7.43472 44.5567ZM6.30711 36.8096C5.87167 36.8111 5.4516 36.9708 5.12509 37.2589C4.79857 37.547 4.58786 37.9439 4.53217 38.3758L4.32335 40.0881C4.282 40.3289 4.29022 40.5756 4.34752 40.8131C4.40482 41.0507 4.51 41.274 4.65661 41.4695C4.80322 41.665 4.98818 41.8285 5.20016 41.95C5.41215 42.0715 5.64671 42.1485 5.88948 42.1762L7.2259 42.3433C7.46673 42.3846 7.71345 42.3764 7.95099 42.3191C8.18852 42.2618 8.41186 42.1566 8.60734 42.01C8.80282 41.8634 8.96632 41.6785 9.08784 41.4665C9.20936 41.2545 9.28634 41.0199 9.31407 40.7772L9.52289 39.0649C9.56424 38.824 9.55602 38.5773 9.49872 38.3398C9.44141 38.1022 9.33624 37.8789 9.18963 37.6834C9.04302 37.4879 8.85806 37.3244 8.64608 37.2029C8.43409 37.0814 8.19953 37.0044 7.95676 36.9767L6.62034 36.8096H6.30711Z" fill="#00D6D6"/>
    <path d="M8.79196 36.9349H8.2908L6.95438 36.7679C5.89057 36.6169 4.92587 36.0618 4.26084 35.2179C3.59581 34.3739 3.28163 33.3062 3.38361 32.2366L3.59243 30.5243C3.74337 29.4605 4.29852 28.4958 5.14245 27.8307C5.98637 27.1657 7.05414 26.8515 8.12375 26.9535L9.46018 27.1206C10.524 27.2715 11.4887 27.8266 12.1537 28.6706C12.8187 29.5145 13.1329 30.5823 13.0309 31.6519L12.8221 33.3642C12.688 34.3502 12.2062 35.256 11.4635 35.9183C10.7208 36.5806 9.76599 36.9559 8.77108 36.9767L8.79196 36.9349ZM7.66435 29.1878C7.22891 29.1893 6.80884 29.349 6.48233 29.6371C6.15582 29.9252 5.94511 30.3221 5.88941 30.754L5.6806 32.4663C5.63924 32.7071 5.64746 32.9538 5.70477 33.1913C5.76207 33.4289 5.86724 33.6522 6.01385 33.8477C6.16046 34.0432 6.34542 34.2067 6.55741 34.3282C6.76939 34.4497 7.00395 34.5267 7.24672 34.5544L8.58315 34.7215C8.82397 34.7628 9.0707 34.7546 9.30823 34.6973C9.54577 34.64 9.76911 34.5348 9.96459 34.3882C10.1601 34.2416 10.3236 34.0567 10.4451 33.8447C10.5666 33.6327 10.6436 33.3981 10.6713 33.1554L10.8801 31.4431C10.9215 31.2022 10.9133 30.9555 10.856 30.718C10.7987 30.4804 10.6935 30.2571 10.5469 30.0616C10.4003 29.8661 10.2153 29.7026 10.0033 29.5811C9.79133 29.4596 9.55678 29.3826 9.31401 29.3549L7.97758 29.1878H7.66435Z" fill="#00D6D6"/>
    <path d="M9.41843 29.2505C9.16836 29.2731 8.91676 29.2731 8.66669 29.2505L8.01936 29.1252C6.95549 28.9031 6.0201 28.275 5.41186 27.3743C4.80361 26.4736 4.57043 25.3713 4.76182 24.3015L5.07505 22.6101C5.29266 21.5551 5.90949 20.625 6.7967 20.0141C7.6839 19.4031 8.77285 19.1587 9.83607 19.3317L10.4834 19.4987C11.5384 19.7163 12.4685 20.3332 13.0794 21.2204C13.6903 22.1076 13.9348 23.1965 13.7618 24.2597L13.4277 25.9094C13.2382 26.8388 12.7379 27.6761 12.0092 28.2833C11.2805 28.8906 10.3668 29.2317 9.41843 29.2505ZM9.08433 26.9326C9.55088 27.013 10.0304 26.9081 10.4208 26.6403C10.616 26.5083 10.7831 26.3388 10.9121 26.1416C11.0412 25.9444 11.1297 25.7235 11.1725 25.4918L11.4857 23.8004C11.5311 23.5699 11.5302 23.3327 11.4832 23.1026C11.4362 22.8724 11.344 22.6539 11.2119 22.4597C11.0798 22.2654 10.9105 22.0994 10.7138 21.971C10.517 21.8427 10.2968 21.7547 10.0658 21.7122L9.41843 21.5869C8.95052 21.5016 8.46787 21.6054 8.07638 21.8755C7.6849 22.1456 7.41657 22.56 7.33027 23.0277L7.01704 24.7191C6.93172 25.1871 7.0355 25.6697 7.30563 26.0612C7.57575 26.4527 7.99014 26.721 8.45788 26.8073L9.08433 26.9326Z" fill="#00D6D6"/>
    <path d="M11.3395 21.5869C10.855 21.589 10.3741 21.5041 9.91954 21.3363H9.79425C8.80249 20.923 8.00819 20.1433 7.5765 19.1593C7.14482 18.1754 7.10896 17.063 7.47639 16.0533L8.18636 14.1322C8.58393 13.135 9.35022 12.3292 10.3262 11.882C11.3022 11.4348 12.4128 11.3807 13.4277 11.7308C14.4614 12.0999 15.3082 12.8612 15.7849 13.8498C16.2617 14.8385 16.33 15.9751 15.9752 17.0138L15.2653 18.9349C14.9565 19.7226 14.4158 20.3979 13.7148 20.8714C13.0138 21.345 12.1855 21.5945 11.3395 21.5869ZM11.9659 13.7772C11.7496 13.7848 11.5369 13.8345 11.3395 13.9233C11.1241 14.0196 10.9301 14.1578 10.7687 14.3299C10.6074 14.502 10.482 14.7045 10.3998 14.9257L9.68985 16.8468C9.5269 17.29 9.54511 17.7796 9.74053 18.2095C9.93594 18.6394 10.2928 18.9751 10.7339 19.1438H10.8592C11.3025 19.3067 11.792 19.2885 12.222 19.0931C12.6519 18.8977 12.9875 18.5408 13.1562 18.0997L13.8662 16.1786C14.0291 15.7353 14.0109 15.2457 13.8155 14.8158C13.6201 14.3859 13.2632 14.0503 12.8221 13.8816C12.5461 13.792 12.2554 13.7566 11.9659 13.7772ZM30.4253 10.0811H27.3557C26.5286 10.0811 25.7351 9.75399 25.1483 9.17109C24.5614 8.58819 24.229 7.79684 24.2235 6.96974V5.92566C24.2235 5.51256 24.3052 5.10354 24.4639 4.72215C24.6226 4.34076 24.8552 3.99453 25.1483 3.7034C25.4413 3.41227 25.7891 3.18199 26.1715 3.02581C26.554 2.86964 26.9635 2.79065 27.3766 2.7934H30.4462C31.2789 2.79892 32.0755 3.13356 32.6623 3.72429C33.2492 4.31502 33.5785 5.11388 33.5785 5.94654V6.96974C33.5785 7.80046 33.2485 8.59716 32.6611 9.18457C32.0736 9.77198 31.2769 10.102 30.4462 10.102L30.4253 10.0811ZM27.3766 5.09039C27.1568 5.09569 26.9474 5.18539 26.7919 5.3409C26.6364 5.49641 26.5467 5.7058 26.5414 5.92566V6.96974C26.5401 7.08236 26.5617 7.19406 26.6048 7.29813C26.6478 7.40219 26.7115 7.49648 26.7919 7.57531C26.8715 7.6548 26.9659 7.71784 27.0698 7.76083C27.1737 7.80383 27.2851 7.82593 27.3975 7.82589H30.4671C30.6864 7.79308 30.8943 7.70704 31.0727 7.57531C31.1456 7.49307 31.2016 7.39725 31.2374 7.29334C31.2733 7.18942 31.2882 7.07945 31.2815 6.96974V5.94654C31.2815 5.71947 31.1913 5.50171 31.0307 5.34115C30.8702 5.18059 30.6524 5.09039 30.4253 5.09039H27.3766Z" fill="#00D6D6"/>
    <path d="M20.4441 11.6472C19.7465 11.6466 19.0688 11.4146 18.5171 10.9876C17.9654 10.5606 17.5709 9.96275 17.3954 9.28759L17.1448 8.32704C16.9414 7.52143 17.0642 6.6681 17.4865 5.95254C17.9088 5.23697 18.5964 4.71702 19.4 4.50569L22.3652 3.73307C23.1708 3.52966 24.0241 3.65246 24.7397 4.07476C25.4553 4.49706 25.9752 5.18473 26.1865 5.98829L26.4371 6.94884C26.6405 7.75445 26.5177 8.60778 26.0954 9.32334C25.6731 10.0389 24.9855 10.5589 24.1819 10.7702L21.2167 11.5428C20.9645 11.6094 20.705 11.6445 20.4441 11.6472ZM19.6923 8.7029C19.7513 8.91671 19.8908 9.09932 20.0817 9.21227C20.2725 9.32522 20.4998 9.35971 20.7155 9.30847L23.6807 8.53585C23.8945 8.47694 24.0772 8.33737 24.1901 8.14651C24.3031 7.95566 24.3376 7.72842 24.2863 7.51265L24.0357 6.55209C23.9768 6.33829 23.8372 6.15568 23.6464 6.04273C23.4555 5.92977 23.2283 5.89528 23.0125 5.94652L20.0473 6.71915C19.8335 6.77805 19.6509 6.91763 19.538 7.10848C19.425 7.29934 19.3905 7.52657 19.4418 7.74235L19.6923 8.7029Z" fill="#00D6D6"/>
    <path d="M15.3071 14.9883C14.8279 14.99 14.3546 14.8817 13.9238 14.6717C13.493 14.4617 13.1161 14.1557 12.8222 13.7772L12.2166 13.0045C11.708 12.3469 11.4796 11.5149 11.5813 10.6898C11.683 9.86461 12.1064 9.11299 12.7596 8.5985L14.3048 7.40824C14.9615 6.89451 15.7948 6.66176 16.6227 6.76091C17.032 6.81205 17.4271 6.94351 17.7855 7.14777C18.1438 7.35203 18.4583 7.62505 18.7108 7.95117L19.3164 8.72379C19.5709 9.04839 19.7588 9.42006 19.8693 9.81747C19.9798 10.2149 20.0107 10.6302 19.9603 11.0396C19.9098 11.449 19.779 11.8444 19.5754 12.2031C19.3717 12.5618 19.0992 12.8767 18.7735 13.1298L17.2282 14.3201C16.68 14.7503 16.004 14.9855 15.3071 14.9883ZM16.2468 9.0579C16.0564 9.05923 15.8723 9.12553 15.7248 9.24583L14.1795 10.4361C14.0903 10.5036 14.0156 10.5883 13.9598 10.6852C13.904 10.7821 13.8682 10.8893 13.8546 11.0003C13.8409 11.1113 13.8497 11.2239 13.8804 11.3314C13.9111 11.439 13.9631 11.5393 14.0333 11.6263L14.6389 12.399C14.7786 12.5743 14.9816 12.6879 15.2042 12.7152C15.4267 12.7426 15.6511 12.6815 15.8292 12.5451L17.3744 11.3549C17.5273 11.1909 17.6098 10.9735 17.6041 10.7493C17.6854 10.5484 17.6854 10.3238 17.6041 10.1229L16.9985 9.35024C16.9187 9.25693 16.8194 9.18236 16.7075 9.13183C16.5956 9.0813 16.474 9.05606 16.3512 9.0579H16.2468ZM58.4695 54.5799C57.4777 54.5599 56.5255 54.1875 55.7832 53.5294C55.0409 52.8713 54.5572 51.9705 54.4185 50.9883L53.9591 47.1043C53.8283 46.0178 54.1291 44.9235 54.7969 44.0565C55.4646 43.1896 56.446 42.6194 57.5299 42.4686L58.8663 42.3015C59.9359 42.1995 61.0037 42.5137 61.8476 43.1787C62.6915 43.8438 63.2467 44.8085 63.3976 45.8723L63.857 49.7563C63.959 50.8259 63.6448 51.8937 62.9798 52.7376C62.3147 53.5815 61.35 54.1366 60.2862 54.2876L58.9498 54.4546L58.4695 54.5799ZM59.3674 44.6611H59.1586L57.8222 44.8282C57.5794 44.8559 57.3449 44.9329 57.1329 45.0544C56.9209 45.1759 56.7359 45.3394 56.5893 45.5349C56.4427 45.7304 56.3375 45.9537 56.2802 46.1913C56.2229 46.4288 56.2147 46.6755 56.2561 46.9164L56.7155 50.8004C56.7428 51.033 56.8159 51.258 56.9306 51.4623C57.0453 51.6666 57.1993 51.8461 57.3837 51.9906C57.7554 52.2846 58.2283 52.4197 58.6992 52.3665L60.0357 52.1994C60.2784 52.1717 60.513 52.0947 60.725 51.9732C60.937 51.8517 61.1219 51.6882 61.2685 51.4927C61.4151 51.2972 61.5203 51.0739 61.5776 50.8363C61.6349 50.5988 61.6431 50.3521 61.6018 50.1113L61.1424 46.2273C61.0867 45.7954 60.876 45.3985 60.5495 45.1104C60.2229 44.8223 59.8029 44.6626 59.3674 44.6611Z" fill="#00D6D6"/>
    <path d="M57.2792 44.5567C56.2843 44.536 55.3295 44.1606 54.5868 43.4983C53.8441 42.836 53.3623 41.9303 53.2282 40.9442L53.0194 39.2319C52.9174 38.1623 53.2316 37.0945 53.8966 36.2506C54.5616 35.4067 55.5263 34.8515 56.5901 34.7006L57.9057 34.5335C58.9753 34.4316 60.043 34.7457 60.887 35.4108C61.7309 36.0758 62.286 37.0405 62.437 38.1043L62.6458 39.8166C62.7478 40.8862 62.4336 41.954 61.7686 42.7979C61.1036 43.6418 60.1388 44.197 59.075 44.3479L57.7386 44.515L57.2792 44.5567ZM58.4068 36.8096H58.198L56.8616 36.9767C56.6188 37.0044 56.3843 37.0814 56.1723 37.2029C55.9603 37.3244 55.7753 37.488 55.6287 37.6834C55.4821 37.8789 55.3769 38.1022 55.3196 38.3398C55.2623 38.5773 55.2541 38.824 55.2955 39.0649L55.5043 40.7772C55.532 41.0199 55.609 41.2545 55.7305 41.4665C55.852 41.6785 56.0155 41.8634 56.211 42.01C56.4065 42.1566 56.6298 42.2618 56.8674 42.3191C57.1049 42.3764 57.3516 42.3846 57.5924 42.3433L58.9289 42.1762C59.1716 42.1485 59.4062 42.0715 59.6182 41.95C59.8302 41.8285 60.0151 41.665 60.1617 41.4695C60.3083 41.274 60.4135 41.0507 60.4708 40.8132C60.5281 40.5756 60.5364 40.3289 60.495 40.0881L60.2862 38.3758C60.2296 37.9367 60.0129 37.534 59.6776 37.2449C59.3423 36.9559 58.9121 36.8009 58.4695 36.8096H58.4068Z" fill="#00D6D6"/>
    <path d="M56.0055 36.9349C55.0106 36.9141 54.0558 36.5388 53.3131 35.8765C52.5704 35.2142 52.0886 34.3084 51.9545 33.3224L51.7457 31.6101C51.6437 30.5405 51.9579 29.4727 52.6229 28.6288C53.2879 27.7849 54.2526 27.2297 55.3164 27.0788L56.6529 26.9117C57.7225 26.8097 58.7902 27.1239 59.6342 27.7889C60.4781 28.454 61.0332 29.4187 61.1842 30.4825L61.393 32.1948C61.495 33.2644 61.1808 34.3322 60.5158 35.1761C59.8507 36.02 58.886 36.5752 57.8222 36.7261L56.4858 36.8932L56.0055 36.9349ZM57.1331 29.1878H56.9243L55.5879 29.3549C55.3451 29.3826 55.1106 29.4596 54.8986 29.5811C54.6866 29.7026 54.5016 29.8661 54.355 30.0616C54.2084 30.2571 54.1032 30.4804 54.0459 30.718C53.9886 30.9555 53.9804 31.2022 54.0218 31.443L54.2306 33.1553C54.2583 33.3981 54.3353 33.6327 54.4568 33.8447C54.5783 34.0566 54.7418 34.2416 54.9373 34.3882C55.1328 34.5348 55.3561 34.64 55.5937 34.6973C55.8312 34.7546 56.0779 34.7628 56.3188 34.7215L57.6552 34.5544C57.898 34.5267 58.1325 34.4497 58.3445 34.3282C58.5565 34.2067 58.7414 34.0432 58.8881 33.8477C59.0347 33.6522 59.1398 33.4289 59.1971 33.1913C59.2544 32.9538 59.2627 32.7071 59.2213 32.4662L59.0125 30.7539C58.9503 30.3075 58.7225 29.9008 58.3744 29.6146C58.0262 29.3283 57.5832 29.1834 57.1331 29.2087V29.1878Z" fill="#00D6D6"/>
    <path d="M55.3581 29.2505C54.4098 29.2317 53.4961 28.8906 52.7674 28.2833C52.0387 27.6761 51.5384 26.8388 51.3489 25.9094L51.0148 24.218C50.854 23.1583 51.1069 22.0773 51.7211 21.1989C52.3352 20.3204 53.2636 19.7117 54.3141 19.4987L54.9614 19.3735C56.0246 19.2004 57.1136 19.4449 58.0008 20.0559C58.888 20.6668 59.5048 21.5969 59.7224 22.6519L60.0356 24.3433C60.2087 25.4065 59.9642 26.4955 59.3532 27.3827C58.7423 28.2699 57.8122 28.8867 56.7572 29.1043L56.1099 29.2296C55.8604 29.2592 55.6088 29.2661 55.3581 29.2505ZM55.6922 21.5869H55.3581L54.7108 21.7122C54.4779 21.7523 54.2554 21.8386 54.0563 21.9658C53.8572 22.0931 53.6855 22.2588 53.5513 22.4533C53.4171 22.6478 53.3231 22.8672 53.2748 23.0985C53.2265 23.3298 53.2248 23.5684 53.27 23.8004L53.5832 25.4918C53.6695 25.9595 53.9378 26.3739 54.3293 26.644C54.7208 26.9142 55.2035 27.0179 55.6714 26.9326L56.3187 26.8073C56.5516 26.7672 56.7741 26.681 56.9732 26.5537C57.1723 26.4264 57.344 26.2607 57.4782 26.0662C57.6124 25.8717 57.7064 25.6524 57.7547 25.4211C57.803 25.1897 57.8047 24.9511 57.7595 24.7192L57.4463 23.0277C57.3646 22.6223 57.1454 22.2576 56.8258 21.995C56.5062 21.7325 56.1058 21.5884 55.6922 21.5869Z" fill="#00D6D6"/>
    <path d="M53.3536 21.5869C52.523 21.5719 51.7158 21.3096 51.0351 20.8335C50.3544 20.3574 49.8311 19.6891 49.5322 18.914L48.9266 17.0347C48.5641 16.0302 48.6002 14.925 49.0274 13.9463C49.4547 12.9676 50.2406 12.1897 51.2236 11.7725C51.7389 11.5543 52.2928 11.4418 52.8524 11.4418C53.412 11.4418 53.9659 11.5543 54.4812 11.7725C54.9632 11.9993 55.3957 12.3189 55.754 12.7131C56.1123 13.1072 56.3894 13.5681 56.5693 14.0695L57.2793 15.9906C57.6294 17.0055 57.5752 18.1161 57.1281 19.0921C56.6809 20.0681 55.8751 20.8343 54.8779 21.2319H54.7526C54.3104 21.4305 53.837 21.5507 53.3536 21.5869ZM52.7898 13.7563C52.5764 13.7531 52.3641 13.7885 52.1633 13.8607C51.9298 13.9357 51.714 14.0571 51.5287 14.2177C51.3435 14.3784 51.1926 14.5748 51.0853 14.7953C50.978 15.0158 50.9164 15.2557 50.9043 15.5006C50.8922 15.7455 50.9298 15.9903 51.0148 16.2203L51.7248 18.1414C51.8935 18.5825 52.2291 18.9394 52.659 19.1348C53.0889 19.3302 53.5785 19.3485 54.0218 19.1855H54.1471C54.5882 19.0168 54.9451 18.6812 55.1405 18.2513C55.3359 17.8214 55.3541 17.3318 55.1911 16.8885L54.4812 14.9674C54.3541 14.6261 54.1263 14.3315 53.828 14.1226C53.5296 13.9138 53.1748 13.8006 52.8106 13.798L52.7898 13.7563ZM34.3095 10.0811C33.4913 10.0649 32.7115 9.73127 32.1348 9.15067C31.5581 8.57007 31.2297 7.788 31.219 6.96973V5.94653C31.2188 5.12101 31.5424 4.32835 32.1203 3.73879C32.6981 3.14923 33.4841 2.8098 34.3095 2.7934H37.3791C37.7949 2.78788 38.2077 2.86468 38.5937 3.01936C38.9798 3.17404 39.3314 3.40355 39.6283 3.69469C39.9253 3.98582 40.1617 4.33282 40.324 4.7157C40.4863 5.09859 40.5713 5.5098 40.574 5.92565V6.96973C40.5767 7.38282 40.4978 7.79237 40.3416 8.17481C40.1854 8.55724 39.9551 8.90501 39.664 9.19808C39.3728 9.49115 39.0266 9.72374 38.6452 9.88245C38.2638 10.0412 37.8548 10.1229 37.4417 10.1229H34.3095V10.0811ZM37.4208 5.09038H34.3095C34.0861 5.09583 33.8736 5.18844 33.7175 5.34841C33.5615 5.50838 33.4741 5.72304 33.4742 5.94653V6.96973C33.4797 7.19316 33.5723 7.4056 33.7322 7.56167C33.8922 7.71774 34.1069 7.80507 34.3304 7.805H37.4C37.5124 7.80505 37.6238 7.78294 37.7277 7.73995C37.8316 7.69695 37.926 7.63391 38.0055 7.55442C38.0873 7.4798 38.1533 7.38969 38.1999 7.28932C38.2465 7.18895 38.2727 7.08031 38.277 6.96973V5.92565C38.2715 5.70222 38.1789 5.48979 38.019 5.33372C37.859 5.17765 37.6443 5.09032 37.4208 5.09038Z" fill="#00D6D6"/>
    <path d="M44.3536 11.6472C44.0902 11.6806 43.8235 11.6806 43.5601 11.6472L40.574 10.7702C39.7789 10.5542 39.0999 10.0356 38.6823 9.32534C38.2647 8.61506 38.1417 7.76954 38.3397 6.96973L38.4859 5.98829C38.5897 5.57901 38.7747 5.19476 39.0299 4.85834C39.2851 4.52192 39.6053 4.24018 39.9714 4.02984C40.3376 3.81951 40.7422 3.68485 41.1614 3.63387C41.5806 3.58289 42.0057 3.61663 42.4116 3.73307L45.3768 4.50569C46.1804 4.71702 46.868 5.23698 47.2903 5.95254C47.7126 6.66811 47.8354 7.52143 47.632 8.32704L47.3814 9.28759C47.21 9.96107 46.8195 10.5584 46.2713 10.9856C45.7232 11.4128 45.0485 11.6455 44.3536 11.6472ZM41.639 5.92564C41.4537 5.92789 41.2742 5.99017 41.1274 6.10313C40.9805 6.21608 40.8743 6.37362 40.8246 6.55209L40.574 7.51265C40.5228 7.72842 40.5573 7.95566 40.6702 8.14651C40.7832 8.33737 40.9658 8.47694 41.1796 8.53585L44.1448 9.30847C44.2517 9.33665 44.3632 9.3433 44.4728 9.32804C44.5823 9.31278 44.6878 9.27591 44.783 9.21957C44.8782 9.16324 44.9612 9.08855 45.0273 8.99986C45.0934 8.91117 45.1412 8.81023 45.168 8.70291L45.4186 7.74235C45.443 7.63122 45.445 7.51634 45.4245 7.40442C45.404 7.2925 45.3614 7.18579 45.2992 7.09052C45.237 6.99525 45.1564 6.91335 45.0622 6.84958C44.9679 6.78582 44.8619 6.74147 44.7504 6.71915L41.7852 5.94653L41.639 5.92564Z" fill="#00D6D6"/>
    <path d="M49.4697 14.9883C48.7725 14.9871 48.096 14.7518 47.5485 14.3201L46.0033 13.1298C45.3502 12.6153 44.9267 11.8637 44.825 11.0385C44.7234 10.2134 44.9517 9.38144 45.4604 8.72379L46.0659 7.95117C46.5804 7.29807 47.332 6.8746 48.1572 6.77292C48.9824 6.67124 49.8143 6.89958 50.472 7.40825L52.0172 8.5985C52.3429 8.8516 52.6154 9.16654 52.8191 9.52524C53.0228 9.88394 53.1536 10.2793 53.204 10.6887C53.2545 11.0981 53.2236 11.5134 53.1131 11.9109C53.0026 12.3083 52.8147 12.6799 52.5601 13.0045L51.9546 13.7772C51.702 14.1033 51.3875 14.3763 51.0292 14.5806C50.6709 14.7848 50.2757 14.9163 49.8664 14.9674L49.4697 14.9883ZM48.5509 9.0579C48.4215 9.05947 48.2941 9.09036 48.1784 9.14822C48.0626 9.20609 47.9615 9.28944 47.8826 9.39201L47.2771 10.1646C47.1407 10.3426 47.0796 10.5671 47.107 10.7896C47.1343 11.0122 47.2479 11.2152 47.4232 11.3549L48.9685 12.5451C49.0556 12.6153 49.1558 12.6673 49.2634 12.698C49.3709 12.7288 49.4835 12.7376 49.5946 12.7239C49.7056 12.7103 49.8127 12.6745 49.9096 12.6187C50.0065 12.5629 50.0913 12.4881 50.1587 12.399L50.7643 11.6263C50.8325 11.5383 50.8824 11.4376 50.9111 11.33C50.9398 11.2224 50.9467 11.1102 50.9314 10.9999C50.9044 10.7783 50.7921 10.576 50.6181 10.4361L49.0729 9.24584C48.9254 9.12554 48.7412 9.05923 48.5509 9.0579ZM8.70863 61.3874C7.91501 61.431 7.1224 61.2852 6.39623 60.962C5.67007 60.6389 5.03118 60.1477 4.5323 59.5289C3.95609 58.5376 3.59012 57.4384 3.4572 56.2996C3.32428 55.1607 3.42724 54.0067 3.75968 52.9094C3.84552 52.6159 4.04445 52.3685 4.3127 52.2216C4.58095 52.0748 4.89655 52.0405 5.19007 52.1263C5.48359 52.2122 5.73099 52.4111 5.87785 52.6794C6.0247 52.9476 6.05898 53.2632 5.97313 53.5567C5.48664 55.0578 5.59886 56.6887 6.28636 58.1089C6.57335 58.4697 6.94386 58.7552 7.36589 58.9408C7.78791 59.1263 8.24876 59.2063 8.70863 59.1739C20.1936 59.1739 21.7179 50.0904 23.2005 41.3201C24.349 34.4709 25.5393 27.392 32.4302 27.392C32.581 27.392 32.7304 27.4217 32.8697 27.4794C33.0091 27.5371 33.1357 27.6217 33.2423 27.7284C33.349 27.835 33.4336 27.9616 33.4913 28.101C33.549 28.2403 33.5787 28.3897 33.5787 28.5405C33.5787 28.6913 33.549 28.8407 33.4913 28.98C33.4336 29.1193 33.349 29.246 33.2423 29.3526C33.1357 29.4593 33.0091 29.5439 32.8697 29.6016C32.7304 29.6593 32.581 29.689 32.4302 29.689C27.711 29.689 26.7086 34.2412 25.4557 41.696C23.9731 50.4454 22.1355 61.3874 8.70863 61.3874Z" fill="#00D6D6"/>
    <path d="M56.1515 61.3873C42.7246 61.3873 40.887 50.4245 39.4462 41.6333C38.1933 34.1994 37.191 29.6263 32.4717 29.6263C32.1671 29.6263 31.875 29.5053 31.6596 29.2899C31.4442 29.0746 31.3232 28.7824 31.3232 28.4778C31.3232 28.1732 31.4442 27.8811 31.6596 27.6657C31.875 27.4503 32.1671 27.3293 32.4717 27.3293C39.3627 27.3293 40.5529 34.4082 41.7014 41.2365C43.1423 50.0277 44.7502 59.1739 56.1515 59.1739C56.6043 59.2247 57.0626 59.1659 57.4878 59.0023C57.9131 58.8388 58.2927 58.5753 58.5947 58.2342C59.2822 56.814 59.3944 55.183 58.9079 53.682C58.8055 53.3913 58.8227 53.0717 58.9559 52.7937C59.089 52.5156 59.3272 52.3019 59.6179 52.1994C59.9087 52.097 60.2282 52.1142 60.5062 52.2473C60.7843 52.3805 60.998 52.6186 61.1005 52.9094C61.4426 53.9936 61.5598 55.1361 61.4449 56.2672C61.33 57.3982 60.9854 58.4939 60.4323 59.4871C59.9275 60.1285 59.2736 60.6369 58.5276 60.9681C57.7815 61.2992 56.9659 61.4432 56.1515 61.3873Z" fill="#00D6D6"/>
  </g>
  <defs>
    <clipPath id="clip0_1_107">
      <rect width="63" height="63" fill="white" transform="translate(0.898682 0.590393)"/>
    </clipPath>
  </defs>
</svg>