<svg xmlns="http://www.w3.org/2000/svg" width="60" height="60" viewBox="0 0 71 71" fill="none">
<path d="M42.4084 2.91857L42.5447 3.05099L42.9542 3.47843C43.901 4.46661 43.8792 6.04662 42.9055 7.00749C42.863 7.04941 42.8191 7.08974 42.7738 7.1284C43.822 8.01409 44.6462 9.27105 45.2371 10.8862L45.3665 11.2574L45.4434 11.5819L45.5275 12.0295L45.6024 12.5385L45.6376 12.8368L45.6694 13.163L45.6963 13.5162L45.7169 13.8952C45.7197 13.9605 45.7222 14.0268 45.7243 14.0941L45.7327 14.5102L45.731 14.9498C45.7298 15.0249 45.7282 15.101 45.726 15.178L45.7067 15.6509L45.6738 16.1447C45.6135 16.9007 45.5024 17.7243 45.3184 18.6003L45.1846 19.1919C44.7497 20.9892 44.0036 22.9831 42.7698 25.0539L42.6376 25.273C42.1935 25.9993 42.0088 26.8351 42.115 27.6321L42.1218 27.6808C43.0866 34.1765 42.0691 39.4417 40.5554 43.3724L40.3188 43.9665C40.2388 44.1611 40.1576 44.3521 40.0756 44.5396L39.8269 45.0914C39.7851 45.1816 39.7431 45.2709 39.701 45.3593L39.4464 45.8791C39.4038 45.964 39.361 46.0479 39.3182 46.131L39.0605 46.6186L38.8022 47.0847L38.5445 47.5292C38.5016 47.6014 38.4589 47.6728 38.4162 47.7432L38.1616 48.155L37.9106 48.545L37.6644 48.913L37.4242 49.259L37.1913 49.5828L36.9667 49.8845L36.6482 50.2953L36.2642 50.7645L35.9354 51.1434L35.6716 51.4313L35.4532 51.6568L35.3704 51.738C34.9363 52.126 34.5464 52.2441 34.2311 52.2441C34.0753 52.2441 33.9378 52.2153 33.8222 52.176C33.3164 52.0045 32.9897 51.543 32.786 51.1049L32.6874 50.8717L32.6009 50.6229L32.5519 50.4547L32.5137 50.3007L32.494 50.2085C32.3365 48.9877 32.3791 47.8702 32.4737 46.7997L32.517 46.3436L32.593 45.6234C32.6311 45.2683 32.6699 44.9117 32.7033 44.5507L32.7411 44.1108L32.7898 43.416L32.8153 42.9329L32.834 42.4368C32.8364 42.3531 32.8386 42.269 32.8404 42.1845L32.8469 41.673C32.8472 41.5871 32.8472 41.5009 32.8467 41.4144L32.8386 40.8929C32.8297 40.5438 32.8134 40.1921 32.7884 39.841L32.7441 39.3153C32.437 36.1685 31.3644 33.1985 28.5022 32.6833C27.8933 32.5567 27.3105 32.5406 26.5978 32.6262C23.4523 33.006 22.4819 36.5977 22.2764 39.9655L22.2507 40.4814L22.2358 40.9909L22.2308 41.4914L22.2344 41.98L22.2455 42.454L22.2737 43.1314L22.3124 43.7602L22.3577 44.331L22.4156 44.9359L22.561 46.311L22.605 46.7772C22.6984 47.8396 22.7398 48.9418 22.5869 50.1218L22.559 50.2552L22.5 50.4857L22.4193 50.7407L22.357 50.9067L22.2964 51.049C22.0424 51.6125 21.5966 52.2036 20.8441 52.2036C20.4634 52.2036 20.0848 52.0379 19.7194 51.7112L19.415 51.3897L19.1544 51.0945L18.8313 50.7079L18.5536 50.3584L18.2501 49.9581L18.0354 49.6633L17.6975 49.1792L17.4636 48.8287L17.224 48.4561L16.9799 48.0616C16.939 47.994 16.8979 47.9255 16.8566 47.856L16.6081 47.4287L16.3581 46.9795C16.3164 46.9028 16.2747 46.8252 16.2329 46.7468L15.9829 46.2651C15.8997 46.1009 15.8167 45.9332 15.7342 45.7619L15.4882 45.2372C15.4475 45.148 15.4069 45.0578 15.3665 44.9668L15.1266 44.4101C13.4653 40.4388 12.2116 34.9068 13.1801 27.9528L13.2466 27.4963C13.364 26.7243 13.2149 25.9244 12.8271 25.2435L12.6574 24.9412L12.3875 24.4404L12.1042 23.8861L11.9107 23.4887L11.7154 23.0703L11.5202 22.6319L11.3266 22.1747L11.1364 21.6997L10.9513 21.2081C10.8906 21.0416 10.831 20.8724 10.7729 20.7009L10.6029 20.1793C9.41934 16.392 9.01717 11.576 12.2029 7.54921L12.3256 7.41766L12.4197 7.32557L12.5255 7.22803L12.7227 7.05993L12.8797 6.93661L13.0572 6.8069L13.2553 6.67304L13.4738 6.53729C13.5119 6.51463 13.5509 6.49198 13.5907 6.4694L13.8399 6.335C13.8832 6.31285 13.9273 6.29085 13.9722 6.26905L14.2522 6.14105L14.5526 6.02013C16.2612 5.37859 18.8988 5.1597 22.4638 7.0428L22.6499 7.14509L22.9594 7.29694L23.1652 7.38891L23.4013 7.48706L23.8132 7.64155L24.1249 7.74553C24.1792 7.76275 24.2347 7.77987 24.2914 7.79683L24.6454 7.8964C26.4836 8.38081 29.332 8.63094 32.6199 7.1613L39.2037 2.69349C40.1483 2.05258 41.3766 2.10775 42.2568 2.79141L42.4084 2.91857ZM13.5777 8.1642L13.4053 8.31398L13.2751 8.44389C10.3856 12.0969 10.8772 16.5903 12.0383 20.0949L12.2126 20.6005L12.3947 21.0906L12.5825 21.5642L12.7742 22.0197L12.968 22.4561L13.1618 22.872L13.4487 23.4546L13.6346 23.8137L13.9006 24.3051L14.0365 24.5465C14.5264 25.4066 14.7442 26.4027 14.6621 27.384L14.624 27.7082C13.6532 34.0974 14.6782 39.2835 16.1434 43.1011L16.3721 43.6776C16.4107 43.7719 16.4496 43.8653 16.4887 43.9578L16.7254 44.5016L16.966 45.0236C17.0063 45.1087 17.0468 45.193 17.0873 45.2763L17.3312 45.7651L17.5757 46.2316L17.8196 46.6757L18.0617 47.0974L18.3007 47.4963L18.5352 47.8725L18.7642 48.2257L18.9862 48.5558L19.2 48.8628L19.5028 49.2794L19.7801 49.6431L20.1029 50.0448L20.4662 50.4671L20.6719 50.688L20.7094 50.7194L20.7915 50.7756L20.8339 50.7962L20.8522 50.8022L20.8859 50.7624L20.9573 50.637L21.0233 50.4931L21.1084 50.2711L21.1672 50.0834L21.1953 49.9749C21.2017 49.9479 21.2075 49.921 21.2128 49.8945C21.331 48.9746 21.312 48.0898 21.2424 47.196L21.1741 46.4432L21.0518 45.2914L20.9704 44.4579L20.9247 43.882L20.886 43.2514L20.8658 42.8043L20.8513 42.3388L20.8435 41.857L20.8436 41.3613C20.8443 41.2776 20.8454 41.1935 20.8468 41.109L20.8605 40.5967L20.8846 40.0764L20.9202 39.5503C21.2184 35.7646 22.4792 31.7116 26.4324 31.2342C26.7808 31.1921 27.1104 31.1709 27.4282 31.1709C27.8915 31.1709 28.33 31.2161 28.7661 31.3064C32.7473 32.0232 33.9713 36.1609 34.1962 40.1332L34.2208 40.6735C34.224 40.7633 34.2266 40.8529 34.2288 40.9422L34.2367 41.4757L34.2347 42.002C34.2336 42.089 34.2321 42.1757 34.2303 42.2619L34.2153 42.7738L34.1792 43.5182L34.1475 43.9959L34.0909 44.6796L34.0479 45.1198L33.8846 46.6734L33.8406 47.1679C33.7665 48.0897 33.744 49.0074 33.8687 49.9825C33.8922 50.0951 33.9314 50.2221 33.978 50.3438L34 50.3996C34.0825 50.602 34.1824 50.7807 34.2593 50.8397L34.268 50.8308L34.3685 50.756L34.4284 50.7056L34.6987 50.4211L34.8834 50.2144L35.1909 49.853L35.4616 49.5182L35.7618 49.1293L35.976 48.8402L36.3153 48.3621L36.5514 48.014L36.9173 47.4481L37.167 47.0418L37.4198 46.6125L37.6745 46.1603L37.9296 45.6855L38.1838 45.188L38.4358 44.668C38.7698 43.9599 39.0943 43.1922 39.3953 42.3664L39.6164 41.7363C40.8056 38.2109 41.5334 33.7043 40.8052 28.3206L40.7437 27.8878C40.5781 26.7691 40.8182 25.6008 41.4198 24.5903L41.4507 24.5391C43.2566 21.583 43.98 18.7625 44.2205 16.5173L44.2676 16.0096C44.2807 15.8438 44.2912 15.6818 44.2993 15.5235L44.3171 15.0602C44.319 14.9849 44.3204 14.9107 44.3214 14.8375V14.4107L44.3117 14.0097L44.2938 13.6358L44.2695 13.2901L44.2243 12.8271L44.1738 12.4343L44.1344 12.1812L44.0474 11.7299L44.0311 11.6603C43.4607 9.96745 42.6284 8.72352 41.5488 7.94616L32.7955 13.6065C32.0925 14.3004 31.2489 14.828 30.2697 15.2017L30.0159 15.2916C22.829 19.7438 19.3662 30.6991 19.3662 43.5738C19.3662 44.3335 18.2894 44.4509 18.1304 43.7085C15.6507 32.1306 18.7908 18.9634 26.8251 11.7402L26.7762 11.783C27.2941 11.0647 27.8672 10.457 28.5084 9.96067L28.5017 9.9547L28.9179 9.66508L29.042 9.58467L28.7029 9.62013C26.6619 9.7985 24.9453 9.46773 23.7316 9.08785L23.3459 8.96003C23.2848 8.93864 23.2253 8.91725 23.1675 8.89594L22.8404 8.76977L22.5542 8.64943L22.3104 8.5387L21.9593 8.36304L21.7833 8.26459C18.5674 6.56664 16.2731 6.84039 14.8835 7.40227L14.6335 7.51059C14.5936 7.52906 14.5546 7.54772 14.5165 7.56651L14.2983 7.68033C14.2637 7.69942 14.2299 7.71853 14.1971 7.73761L14.0106 7.85139L13.7704 8.01546L13.6367 8.11683C13.6161 8.13303 13.5965 8.14883 13.5777 8.1642ZM27.222 13.0892L27.0084 13.2945C21.6222 18.548 18.7048 26.7682 18.5583 35.1212L18.5527 35.6327V35.8559L18.5896 35.5529C19.7095 26.5103 22.8341 19.0471 28.161 15.0331L28.4769 14.8009L28.745 14.6125L27.222 13.0892ZM17.5477 11.1177C17.8611 11.3276 17.9507 11.7488 17.7544 12.0687L17.6235 12.2902L17.5205 12.4896L17.4445 12.6511L17.3641 12.8371L17.2818 13.0465L17.2002 13.2782C17.1868 13.3187 17.1735 13.36 17.1605 13.4022L17.0848 13.6657C16.6978 15.1251 16.6151 17.4334 18.5873 19.9023C18.8285 20.2041 18.7809 20.6451 18.4808 20.8874C18.3522 20.9914 18.1978 21.042 18.0447 21.042C17.8409 21.042 17.6389 20.9524 17.5014 20.7803C15.3365 18.0703 15.2881 15.4565 15.6756 13.6643L15.7504 13.3476C15.7767 13.2452 15.8043 13.146 15.8327 13.0501L15.92 12.7726L16.0102 12.516C16.0254 12.4751 16.0406 12.4351 16.0557 12.396L16.1903 12.0699L16.2757 11.8823L16.4147 11.6036L16.5235 11.4075L16.5816 11.3121C16.7949 10.9898 17.2266 10.9018 17.5477 11.1177ZM29.391 10.8767L29.2971 10.9458C28.9714 11.1949 28.6645 11.4797 28.3739 11.801L28.1589 12.0489L28.071 12.1554L29.9 13.9862L30.1675 13.8754C30.4667 13.7431 30.7477 13.5931 31.0108 13.4248L31.268 13.2503L31.5041 13.0699L29.391 10.8767ZM40.0193 3.67484L39.8984 3.74811L30.448 10.1599L32.5011 12.2891L41.8919 6.21818L41.9413 6.18059L42.034 6.09798C42.4809 5.65704 42.52 4.95091 42.1448 4.46369L42.058 4.36281L41.6485 3.93537C41.219 3.48717 40.5537 3.38724 40.0193 3.67484Z" fill="#ff5955"/>
</svg>