<svg xmlns="http://www.w3.org/2000/svg" width="60" height="60" viewBox="0 0 71 71" fill="none">
<path d="M49.8998 22.735C50.6348 22.7962 51.3646 22.511 51.7986 22.0035C52.0595 21.7088 52.205 21.3296 52.208 20.936C52.208 20.3637 51.9071 19.837 51.3681 19.4887L51.1528 19.3487C50.9762 19.2385 50.8247 19.0924 50.7081 18.92C50.5914 18.7476 50.5122 18.5526 50.4756 18.3477C50.4419 18.143 50.4538 17.9333 50.5103 17.7337C50.5669 17.5341 50.6668 17.3494 50.8028 17.1927L53.7463 13.7452C54.2923 13.1047 55.2968 12.9787 56.0143 13.4495L58.235 14.9125C61.7701 17.24 62.6171 21.6237 60.1425 24.8682L57.7643 27.985C57.0591 28.909 55.9443 29.5075 54.7053 29.63L52.0978 29.889C53.9598 32.731 54.1978 36.2485 52.6841 39.2777L50.0591 44.5277L41.5943 61.466C40.6913 63.2702 38.7628 64.497 36.5631 64.6772L34.7466 64.8277C34.64 64.836 34.5332 64.8401 34.4263 64.84C33.3518 64.84 32.3526 64.3902 31.7068 63.6045C31.3531 63.1911 31.129 62.6827 31.0624 62.1427C30.9958 61.6028 31.0897 61.0552 31.3323 60.5682L31.4251 60.3757L42.8911 37.0027C42.9983 36.7868 43.0542 36.549 43.0542 36.308C43.0542 36.0669 42.9983 35.8291 42.8911 35.6132L40.6231 31.0282L34.9583 31.59C34.3991 31.6379 33.8799 31.8999 33.5093 32.3215L31.0891 35.188C31.0716 35.2195 31.0716 35.2195 31.0418 35.2562L16.1721 52.94C15.5246 53.71 14.5358 54.151 13.4718 54.151C13.3528 54.151 13.2338 54.1457 13.1148 54.1335C11.9213 54.025 10.8993 53.3775 10.3883 52.3957L9.62705 50.931C8.68555 49.1232 8.93055 46.9952 10.2571 45.3957L13.4403 41.5562C13.9793 40.9052 14.9856 40.7687 15.7101 41.236C16.4678 41.726 16.6376 42.6937 16.0723 43.3745L12.8926 47.214C12.6076 47.5429 12.4283 47.9501 12.378 48.3824C12.3278 48.8147 12.4089 49.2522 12.6108 49.6377L13.3721 51.1025C13.3826 51.1235 13.4071 51.134 13.4491 51.1375C13.4981 51.1427 13.5313 51.134 13.5541 51.106L27.2776 34.7837L24.4076 33.3207L21.1141 37.2932C20.5751 37.9442 19.5671 38.0807 18.8426 37.6135C18.0866 37.1235 17.9168 36.1557 18.4821 35.475L22.6278 30.4735C22.6016 30.519 22.5823 30.589 22.5403 30.736L22.6383 30.4612L22.8448 30.3352L22.7311 30.3772C22.7105 30.3902 22.6907 30.4042 22.6716 30.4192L26.4813 25.8255C28.6951 23.1532 32.2598 21.5905 35.9698 21.6167L34.9426 19.5395C34.6888 19.0334 34.5631 18.4727 34.5766 17.9067C34.59 17.3408 34.7421 16.7867 35.0196 16.2932L36.8903 12.9157C38.8206 9.42621 43.4703 7.90546 47.4813 9.42971L50.0258 10.3975C50.8711 10.7177 51.2771 11.6137 50.9008 12.3925L48.9933 16.365C48.8055 16.7424 48.4758 17.03 48.0763 17.1647C47.6753 17.3046 47.2377 17.2984 46.8408 17.1472L46.5871 17.051C46.3115 16.9434 46.0183 16.8882 45.7226 16.8882C44.8651 16.8882 44.1003 17.3345 43.7748 18.01C43.6399 18.2864 43.5885 18.5961 43.6267 18.9012C43.6649 19.2064 43.7912 19.4938 43.9901 19.7285L46.1566 22.4235L49.8998 22.735ZM39.195 28.1425L37.5081 24.73L36.6471 24.66C33.7246 24.4167 30.8336 25.5647 29.1116 27.642L26.4166 30.8952L29.3076 32.3687L30.8913 30.4857C31.7821 29.427 33.1331 28.741 34.6013 28.5957L39.195 28.1407V28.1425ZM34.3441 61.8002C34.3668 61.8212 34.3896 61.8317 34.4491 61.8282L36.2673 61.6777C37.2946 61.5937 38.1836 61.0285 38.5913 60.213L46.4243 44.5417L43.5351 43.07L34.3441 61.8002ZM48.8586 30.8777L41.3265 21.5117C40.2171 20.1292 40.0001 18.3617 40.7526 16.7972C41.6083 15.0175 43.5596 13.8765 45.7226 13.8765C46.0026 13.8765 46.2808 13.8957 46.5538 13.9342L47.2013 12.5867L46.2091 12.2105C43.7836 11.2882 40.98 12.207 39.8338 14.2755L37.9631 17.653C37.9079 17.7509 37.8777 17.8609 37.8753 17.9732C37.8729 18.0856 37.8982 18.1968 37.9491 18.297L45.8993 34.3725C46.5048 35.5992 46.5066 37.0097 45.9046 38.2365L44.8878 40.3085L47.798 41.7925L49.681 38.0265C50.8465 35.6955 50.5316 32.9585 48.8586 30.8777ZM54.3448 26.6375C54.4825 26.6266 54.6164 26.5877 54.7386 26.5233C54.8608 26.459 54.9685 26.3704 55.0553 26.263L57.4335 23.1462C58.8738 21.258 58.3838 18.7257 56.3013 17.3537L55.3738 16.7412L54.3448 17.947C55.0921 18.794 55.5086 19.8475 55.5086 20.936C55.5086 21.9982 55.1236 23.0097 54.4043 23.8532C53.2808 25.171 51.4416 25.8867 49.6006 25.7345L48.7606 25.6645L49.8981 27.0785L54.3448 26.6375Z" fill="#ff5955"/>
</svg>