<svg xmlns="http://www.w3.org/2000/svg" width="74" height="74" viewBox="0 0 74 74" fill="none">
<g clip-path="url(#clip0_1_201)">
<path d="M29.2272 11.0017C29.0071 11.0026 28.7916 10.9379 28.6083 10.8161C28.425 10.6942 28.2821 10.5206 28.1978 10.3172C28.1134 10.1139 28.0914 9.89009 28.1346 9.67424C28.1778 9.45839 28.2842 9.26026 28.4403 9.10505L36.7128 0.913233C36.9237 0.708619 37.2059 0.594177 37.4997 0.594177C37.7935 0.594177 38.0758 0.708619 38.2866 0.913233L46.3574 8.98399C46.4607 9.08733 46.5427 9.21001 46.5986 9.34502C46.6545 9.48004 46.6833 9.62475 46.6833 9.77089C46.6833 9.91703 46.6545 10.0617 46.5986 10.1968C46.5427 10.3318 46.4607 10.4545 46.3574 10.5578C46.254 10.6611 46.1314 10.7431 45.9963 10.799C45.8613 10.8549 45.7166 10.8837 45.5705 10.8837C45.4243 10.8837 45.2796 10.8549 45.1446 10.799C45.0096 10.7431 44.8869 10.6611 44.7836 10.5578L37.4997 3.25375L30.0948 10.6788C29.9819 10.7919 29.846 10.8793 29.6963 10.9351C29.5465 10.9908 29.3865 11.0135 29.2272 11.0017Z" fill="#00D6D6"/>
<path d="M37.2978 21.3524C37.0035 21.3524 36.7212 21.2355 36.5131 21.0274C36.305 20.8193 36.1881 20.537 36.1881 20.2427V2.60808C36.1881 2.31376 36.305 2.0315 36.5131 1.82338C36.7212 1.61527 37.0035 1.49835 37.2978 1.49835C37.5921 1.49835 37.8744 1.61527 38.0825 1.82338C38.2906 2.0315 38.4076 2.31376 38.4076 2.60808V20.2427C38.4076 20.3884 38.3789 20.5327 38.3231 20.6674C38.2673 20.802 38.1856 20.9243 38.0825 21.0274C37.9795 21.1304 37.8571 21.2122 37.7225 21.2679C37.5879 21.3237 37.4436 21.3524 37.2978 21.3524ZM46.559 73.5904C43.5325 73.5904 42.5236 69.7164 41.2727 65.5196C40.3244 62.2106 39.255 58.4375 37.4794 58.4375H37.2978C35.5021 58.4375 34.4327 62.1904 33.5046 65.5196C32.3343 69.555 31.2448 73.5904 28.2182 73.5904C22.8713 73.5904 18.3315 63.8046 17.8271 62.6747C17.5648 62.1501 10.8056 48.5509 13.7917 36.3237C16.5156 25.4483 28.7226 27.7081 34.5739 28.7775C35.4387 28.9681 36.3149 29.1029 37.1969 29.181C38.1407 29.1184 39.0784 28.9835 40.0015 28.7775C45.873 27.688 58.1607 25.4281 60.7837 36.3237C63.8506 48.6114 57.0914 62.1501 56.7483 62.7352C56.4457 63.8046 51.9059 73.5904 46.559 73.5904ZM37.2978 56.319H37.4794C40.9498 56.319 42.2008 60.7377 43.4114 65.0152C44.2185 67.8601 45.2072 71.3911 46.559 71.3911C49.5048 71.3911 53.2577 65.4995 54.9123 61.7869C54.9123 61.6053 61.611 48.3491 58.7459 36.8684C56.5264 28.0108 46.1151 29.9276 40.5867 30.9768C39.5902 31.1957 38.5784 31.3374 37.5601 31.4005C36.4806 31.3514 35.4073 31.2097 34.352 30.9768C28.763 29.9478 18.3315 28.0108 16.1928 36.8684C13.0856 48.3491 19.7641 61.5851 19.8448 61.7264C21.5195 65.4793 25.1917 71.3709 28.2182 71.3709C29.5701 71.3709 30.5587 67.84 31.3658 64.995C32.5764 60.7377 33.8274 56.319 37.2978 56.319Z" fill="#00D6D6"/>
<path d="M26.9673 36.9088C26.7255 36.9244 26.4852 36.8604 26.2832 36.7266C26.0812 36.5929 25.9285 36.3967 25.8484 36.168C25.7684 35.9393 25.7654 35.6907 25.8399 35.4601C25.9144 35.2295 26.0624 35.0297 26.2611 34.8911C31.4264 30.5733 40.1226 28.717 40.506 28.6363C40.8003 28.5774 41.106 28.6379 41.3557 28.8044C41.6054 28.9709 41.7788 29.2297 41.8377 29.5241C41.8965 29.8184 41.8361 30.124 41.6696 30.3738C41.5031 30.6235 41.2442 30.7969 40.9499 30.8557C40.9499 30.8557 32.4151 32.6918 27.6735 36.6465C27.4759 36.8136 27.2261 36.9064 26.9673 36.9088Z" fill="#00D6D6"/>
</g>
<defs>
<clipPath id="clip0_1_201">
<rect width="73" height="73" fill="white" transform="translate(0.888672 0.590393)"/>
</clipPath>
</defs>
</svg>
