<svg xmlns="http://www.w3.org/2000/svg" width="54" height="54" viewBox="0 0 54 54" fill="none">
<g clip-path="url(#clip0_1_40)">
<path d="M14.4676 15.3248C14.2507 15.3388 14.0351 15.2814 13.8539 15.1614C13.6726 15.0414 13.5357 14.8654 13.4639 14.6602C13.392 14.455 13.3894 14.232 13.4562 14.0251C13.5231 13.8183 13.6558 13.639 13.8341 13.5147C18.4679 9.64106 26.2695 7.97576 26.6134 7.90335C26.7418 7.87602 26.8743 7.87423 27.0033 7.8981C27.1324 7.92196 27.2555 7.97101 27.3656 8.04245C27.4757 8.11389 27.5706 8.20631 27.645 8.31444C27.7194 8.42257 27.7717 8.54429 27.7991 8.67265C27.8264 8.80101 27.8282 8.9335 27.8043 9.06255C27.7804 9.1916 27.7314 9.31469 27.66 9.42479C27.5885 9.53488 27.4961 9.62983 27.388 9.7042C27.2798 9.77858 27.1581 9.83093 27.0298 9.85827C27.0298 9.85827 19.373 11.5055 15.1192 15.0533C14.9425 15.2203 14.7107 15.3169 14.4676 15.3248Z" fill="#00D6D6"/>
<path d="M30.7586 48.305C28.0434 48.305 27.1384 44.8296 26.0342 41.1551C25.2016 38.1865 24.2241 34.8378 22.6493 34.8378C21.0745 34.8378 19.9342 38.2046 19.0291 41.1551C17.9792 44.7753 17.0018 48.305 14.3047 48.305C9.52602 48.305 5.47138 39.5441 5.01885 38.5485C4.78354 38.0779 -1.26223 25.8777 1.39863 15.0171C3.96899 5.24249 14.8839 7.26981 20.1333 8.22917C20.9091 8.40009 21.6951 8.52102 22.4864 8.59119C23.327 8.53388 24.1621 8.41286 24.9844 8.22917C28.7313 7.54132 35.0124 6.41906 39.4652 9.00751C39.5819 9.07276 39.6843 9.16085 39.7662 9.26651C39.8481 9.37217 39.9079 9.49325 39.942 9.62251C39.9761 9.75178 39.9838 9.88659 39.9646 10.0189C39.9455 10.1512 39.8999 10.2783 39.8306 10.3926C39.7613 10.507 39.6696 10.6061 39.5612 10.6843C39.4527 10.7624 39.3296 10.8179 39.1992 10.8474C39.0688 10.8769 38.9338 10.8799 38.8022 10.8561C38.6707 10.8323 38.5453 10.7823 38.4335 10.709C34.7046 8.46448 28.8942 9.55055 25.4188 10.1841C24.5249 10.3808 23.6171 10.5079 22.7036 10.5642C21.7412 10.5194 20.7844 10.3922 19.8436 10.1841C14.7572 9.31523 5.43518 7.50512 3.46216 15.4696C0.819399 25.7148 6.81086 37.571 6.86516 37.6977C8.36755 41.0645 11.7163 46.3139 14.359 46.3139C15.5537 46.3139 16.4587 43.1643 17.1647 40.612C18.2508 36.8108 19.373 32.8467 22.5407 32.8467C25.7084 32.8467 26.9212 36.7927 27.971 40.612C28.6951 43.1462 29.582 46.3139 30.7767 46.3139C32.5868 46.3139 34.8495 43.9788 37.1302 39.9061C37.1944 39.7872 37.2813 39.6822 37.3861 39.5969C37.4909 39.5117 37.6114 39.4479 37.7409 39.4093C37.8703 39.3706 38.0061 39.3578 38.1404 39.3716C38.2748 39.3854 38.4051 39.4256 38.524 39.4898C38.6428 39.5539 38.7479 39.6409 38.8331 39.7457C38.9184 39.8505 38.9821 39.971 39.0208 40.1004C39.0595 40.2298 39.0722 40.3656 39.0584 40.5C39.0446 40.6344 39.0045 40.7647 38.9403 40.8835C37.0216 44.2684 34.0168 48.305 30.7586 48.305Z" fill="#00D6D6"/>
<path d="M37.7457 34.8016C34.4278 34.4444 31.3623 32.8632 29.1477 30.3668C27.3658 28.655 25.9924 26.5639 25.1293 24.2486C24.7003 23.3787 24.5319 22.4033 24.6443 21.4399C24.7567 20.4765 25.1451 19.5661 25.7628 18.8183C26.5106 18.2006 27.421 17.8121 28.3844 17.6998C29.3478 17.5874 30.3232 17.7558 31.1931 18.1848C33.5084 19.0479 35.5995 20.4213 37.3113 22.2032C41.4746 26.3665 42.9588 31.3986 40.6962 33.6793C40.3088 34.0603 39.8465 34.3567 39.3387 34.5499C38.8308 34.743 38.2884 34.8288 37.7457 34.8016ZM28.6952 19.8139C28.1552 19.7739 27.6215 19.9497 27.2109 20.3026C26.6136 20.8999 26.5593 22.1127 27.0661 23.6151C27.8439 25.6771 29.0821 27.5344 30.6863 29.0454C34.3065 32.6656 38.0897 33.6612 39.3386 32.4303C40.5876 31.1995 39.5015 27.3258 35.9537 23.778C34.4427 22.1738 32.5854 20.9356 30.5234 20.1578C29.9247 19.9428 29.295 19.8266 28.659 19.8139H28.6952Z" fill="#00D6D6"/>
<path d="M39.9177 34.0413C39.7202 34.0421 39.527 33.9842 39.3625 33.8748C39.1981 33.7655 39.0698 33.6097 38.9942 33.4273C38.9185 33.2449 38.8988 33.0441 38.9375 32.8505C38.9762 32.6568 39.0717 32.4791 39.2117 32.3398L43.5741 27.9775C44.8231 26.7285 43.737 22.873 40.1892 19.3251C38.6781 17.7209 36.8209 16.4827 34.7589 15.7049C33.2565 15.1981 32.0437 15.2524 31.4464 15.8497L27.1745 20.3026C27.0818 20.3953 26.9717 20.4688 26.8506 20.519C26.7295 20.5692 26.5997 20.595 26.4686 20.595C26.3375 20.595 26.2076 20.5692 26.0865 20.519C25.9654 20.4688 25.8553 20.3953 25.7626 20.3026C25.6699 20.2099 25.5964 20.0998 25.5462 19.9787C25.496 19.8576 25.4702 19.7278 25.4702 19.5967C25.4702 19.4655 25.496 19.3357 25.5462 19.2146C25.5964 19.0935 25.6699 18.9834 25.7626 18.8907L30.1431 14.5283C30.8909 13.9106 31.8013 13.5222 32.7647 13.4098C33.7281 13.2974 34.7035 13.4658 35.5734 13.8948C37.8884 14.7585 39.9794 16.1319 41.6916 17.9133C45.8548 22.0765 47.3391 27.1086 45.0765 29.3893L40.6417 33.7517C40.5467 33.8462 40.4337 33.9206 40.3092 33.9704C40.1848 34.0201 40.0516 34.0443 39.9177 34.0413Z" fill="#00D6D6"/>
<path d="M40.8953 19.6148C40.6978 19.6155 40.5045 19.5576 40.3401 19.4482C40.1756 19.3389 40.0474 19.1831 39.9718 19.0007C39.8961 18.8183 39.8764 18.6175 39.9151 18.4239C39.9538 18.2302 40.0493 18.0525 40.1893 17.9133L52.118 5.98463C52.3052 5.79741 52.5591 5.69222 52.8239 5.69222C53.0887 5.69222 53.3426 5.79741 53.5298 5.98463C53.7171 6.17186 53.8222 6.4258 53.8222 6.69058C53.8222 6.95536 53.7171 7.20929 53.5298 7.39652L41.6012 19.3251C41.5084 19.4175 41.3982 19.4906 41.2771 19.5403C41.156 19.59 41.0262 19.6153 40.8953 19.6148Z" fill="#00D6D6"/>
</g>
<defs>
<clipPath id="clip0_1_40">
<rect width="53" height="53" fill="white" transform="translate(0.819336 0.5)"/>
</clipPath>
</defs>
</svg>