<svg xmlns="http://www.w3.org/2000/svg" width="60" height="60" viewBox="0 0 71 71" fill="none">
<path d="M33.17 20.74C28.27 20.74 20.745 24.765 18.995 33.515C17.42 41.565 17.945 47.515 19.345 49.09C19.345 49.09 19.52 49.265 19.52 49.44C20.395 51.015 22.32 53.99 32.82 53.99C32.995 53.99 33.17 53.99 33.345 53.99C43.845 53.99 45.77 50.84 46.645 49.44C46.645 49.265 46.82 49.265 46.82 49.09C48.22 47.515 48.745 41.565 47.17 33.515C45.595 24.59 37.895 20.74 33.17 20.74ZM44.895 47.34C44.72 47.515 44.72 47.69 44.545 47.865C43.845 48.915 42.445 51.19 33.17 51.19C23.895 51.19 22.32 48.915 21.795 47.865C21.62 47.69 21.445 47.515 21.445 47.34C20.92 46.64 20.045 42.09 21.62 33.865C23.195 25.815 30.02 23.19 33.17 23.19C36.32 23.19 43.145 25.815 44.72 33.865C46.295 42.09 45.42 46.64 44.895 47.34Z" fill="#ff5955"/>
<path d="M56.095 27.39C54.52 19.165 47.345 15.49 42.795 15.49C40.17 15.49 36.845 16.715 34.045 19.165C34.395 19.165 34.57 19.165 34.92 19.165C35.795 19.165 36.845 19.34 37.895 19.69C39.645 18.64 41.57 18.29 42.795 18.29C45.595 18.29 51.895 20.74 53.47 28.09C54.87 35.615 54.17 39.815 53.82 40.515C53.645 40.69 53.645 40.865 53.47 41.04C53.12 41.565 52.595 42.44 50.67 43.14C50.67 44.19 50.67 45.24 50.495 45.94C54.17 44.89 55.045 43.315 55.745 42.44C55.745 42.265 55.92 42.265 55.92 42.265C57.145 40.34 57.495 34.915 56.095 27.39Z" fill="#ff5955"/>
<path d="M24.945 46.99C24.595 46.99 24.245 46.815 23.895 46.465C23.37 45.765 23.37 44.365 23.37 43.84C23.37 43.315 23.02 42.965 22.67 42.79C22.145 42.79 21.795 43.14 21.62 43.49C21.62 43.665 21.27 46.115 22.495 47.515C23.02 48.215 23.895 48.565 24.77 48.565C25.295 48.565 25.645 48.215 25.645 47.69C25.82 47.34 25.47 46.99 24.945 46.99Z" fill="#ff5955"/>
</svg>