<svg xmlns="http://www.w3.org/2000/svg" width="54" height="54" viewBox="0 0 54 54" fill="none">
<g clip-path="url(#clip0_1_56)">
<path d="M12.3954 42.1868H12.1699C8.54233 41.4899 6.49283 40.2602 5.85749 38.5387C3.07017 30.7916 6.06244 15.3179 12.006 6.64849C14.7523 2.71346 17.888 0.5 21.0853 0.5C24.2825 0.5 27.7871 2.69296 30.472 7.05839C30.55 7.18489 30.6024 7.32552 30.6261 7.47226C30.6498 7.619 30.6443 7.76897 30.6101 7.9136C30.5758 8.05824 30.5134 8.19472 30.4264 8.31524C30.3394 8.43576 30.2295 8.53796 30.103 8.61601C29.9765 8.69406 29.8359 8.74643 29.6892 8.77013C29.5424 8.79384 29.3925 8.7884 29.2478 8.75415C29.1032 8.71989 28.9667 8.65748 28.8462 8.57048C28.7257 8.48348 28.6235 8.3736 28.5454 8.2471C27.0083 5.72622 24.4874 2.75445 21.2082 2.75445C18.1135 2.75445 15.5516 5.62374 13.9325 7.96017C8.35788 15.9532 5.44759 30.7096 7.98897 37.7599C8.11194 38.0878 8.76778 39.174 12.6003 39.9323C12.8766 39.9857 13.123 40.1404 13.291 40.3662C13.459 40.5919 13.5365 40.8723 13.5082 41.1523C13.48 41.4323 13.348 41.6916 13.1383 41.8792C12.9286 42.0668 12.6563 42.1692 12.3749 42.1663L12.3954 42.1868Z" fill="#00D6D6"/>
<path d="M32.1731 53.5C27.4797 53.5 19.0153 52.9671 17.6422 49.1756C14.8548 41.4899 17.8471 25.9753 23.7906 17.3469C26.537 13.3503 29.6727 11.1984 32.8904 11.1984C34.5065 11.2781 36.0807 11.7394 37.4842 12.5444C38.8878 13.3495 40.0807 14.4755 40.9654 15.8302C47.3599 24.0282 49.9832 41.326 47.6468 49.6265C46.745 52.8032 37.2149 53.3975 34.3046 53.5H32.1731ZM32.9109 13.4118C29.8162 13.4118 27.2543 16.2811 25.6352 18.6176C20.1425 26.6106 17.2323 41.367 19.7736 48.4172C20.122 49.36 22.479 50.6307 27.9716 51.0816C36.1696 51.7579 44.6955 50.2208 45.4128 49.0321C47.4623 41.4285 45.0234 24.93 39.1004 17.2649C38.4428 16.1984 37.5437 15.3014 36.4757 14.6464C35.4077 13.9913 34.2006 13.5965 32.9519 13.4938L32.9109 13.4118Z" fill="#00D6D6"/>
</g>
<defs>
<clipPath id="clip0_1_56">
<rect width="53" height="53" fill="white" transform="translate(0.139404 0.5)"/>
</clipPath>
</defs>
</svg>