<svg xmlns="http://www.w3.org/2000/svg" width="52" height="78" viewBox="0 0 52 78" fill="none">
<g clip-path="url(#clip0_1_166)">
<path d="M45.0667 66.0549C42.8247 65.872 40.635 65.2808 38.6055 64.3104C37.744 63.9443 36.9041 63.6212 36.0426 63.3197C27.2213 60.1243 18.1902 57.5409 9.01347 55.5878C8.28249 55.4576 7.58833 55.1707 6.97866 54.7469C6.36898 54.3231 5.8582 53.7724 5.48138 53.1326C4.51722 51.1201 4.29598 48.8314 4.8568 46.6714C5.6332 43.5709 5.73502 40.3397 5.1554 37.1964C4.57578 34.0531 3.32822 31.0708 1.497 28.451C0.857673 27.8619 0.464664 27.0528 0.396763 26.1861C0.328862 25.3193 0.591088 24.459 1.13087 23.7774C2.18619 22.636 4.36145 22.2483 6.81668 23.9282C8.02276 24.7466 11.7272 27.288 14.7639 26.685C15.462 26.5272 16.1204 26.2279 16.6983 25.8056C17.2762 25.3833 17.7613 24.847 18.1237 24.2297C20.5574 20.633 23.508 20.4392 25.2956 21.3653C26.3316 21.9371 27.1226 22.8683 27.5193 23.9831C27.916 25.098 27.8911 26.3195 27.4493 27.4172C25.8125 31.2293 24.4125 36.1613 25.0156 37.432C25.9632 38.9611 37.1195 40.5118 44.399 40.5118C45.2075 40.4641 46.0162 40.6023 46.7629 40.916C47.5096 41.2296 48.1745 41.7102 48.7065 42.3209C49.2158 43.0775 49.5679 43.9288 49.7418 44.8242C49.9157 45.7195 49.9078 46.6407 49.7187 47.5329C49.7187 48.7821 49.0941 61.6182 47.9957 64.2889C47.8674 64.5926 47.6792 64.8673 47.4424 65.0968C47.2056 65.3262 46.925 65.5055 46.6174 65.6242C46.1321 65.8639 45.606 66.01 45.0667 66.0549ZM3.56457 25.1343C3.44113 25.1222 3.31651 25.135 3.19812 25.172C3.07973 25.209 2.96998 25.2694 2.87538 25.3497C2.66001 25.5866 2.72462 26.1896 3.37074 26.9865C5.45445 29.8983 6.87058 33.2338 7.5183 36.7553C8.16603 40.2769 8.02942 43.8979 7.1182 47.3606C6.72476 48.8896 6.86142 50.5068 7.50587 51.9481C7.71719 52.2835 7.99735 52.5702 8.32779 52.7893C8.65823 53.0083 9.03143 53.1547 9.42268 53.2187C18.6895 55.1584 27.808 57.7493 36.7103 60.9721C37.6148 61.2952 38.5194 61.6398 39.4024 62.0274C44.076 63.9658 45.7128 63.6212 45.8636 63.4274C46.8122 58.0856 47.3379 52.6774 47.4358 47.253C47.7152 46.0877 47.5298 44.8594 46.9189 43.8285C46.596 43.494 46.2016 43.2369 45.7652 43.0765C45.3288 42.9161 44.8617 42.8566 44.399 42.9024C44.2052 42.9024 24.7787 42.5794 22.8619 38.4658C21.505 35.5798 24.5848 28.0849 25.2525 26.5342C25.4881 25.9823 25.5153 25.3637 25.3291 24.7933C25.1429 24.2229 24.756 23.7395 24.2402 23.4329C22.9911 22.8083 21.4189 23.6051 20.1266 25.5866C19.5811 26.4631 18.8622 27.219 18.0141 27.8079C17.166 28.3967 16.2066 28.8061 15.1946 29.011C11.6195 29.7002 7.93661 27.5464 5.48138 25.8881C4.93022 25.4542 4.26362 25.1921 3.56457 25.1343Z" fill="#00D6D6"/>
<path d="M41.47 36.3982C37.2309 36.4658 33.0077 35.8625 28.957 34.6106C28.7722 34.6059 28.5911 34.558 28.4281 34.4708C28.2651 34.3836 28.1249 34.2594 28.0185 34.1082C27.9121 33.9571 27.8426 33.7831 27.8154 33.6003C27.7883 33.4174 27.8044 33.2308 27.8623 33.0553C27.9202 32.8797 28.0184 32.7202 28.149 32.5894C28.2796 32.4586 28.4391 32.3602 28.6145 32.3021C28.79 32.2439 28.9766 32.2276 29.1595 32.2545C29.3423 32.2814 29.5164 32.3507 29.6677 32.4569C34.4995 33.8807 39.5458 34.4349 44.5714 34.0937H48.405L48.965 26.3188C47.0912 25.285 44.8298 22.9806 45.6267 18.1993C45.6981 17.9049 45.8795 17.6489 46.1338 17.4842C46.388 17.3194 46.6957 17.2583 46.9936 17.3135C47.2916 17.3686 47.557 17.5359 47.7354 17.7808C47.9138 18.0256 47.9916 18.3296 47.9527 18.6301C47.1128 23.239 50.1064 24.122 50.408 24.2082C50.6771 24.2773 50.9141 24.4372 51.0789 24.6609C51.2437 24.8846 51.3262 25.1583 51.3125 25.4358L50.6018 35.2568C50.5938 35.4135 50.5541 35.5669 50.4852 35.7079C50.4163 35.8489 50.3196 35.9745 50.2009 36.0771C50.0821 36.1798 49.9439 36.2573 49.7944 36.3051C49.6449 36.3528 49.4873 36.3699 49.3311 36.3551H44.5283L41.47 36.3982ZM9.01354 21.0207C8.75153 21.0486 8.4877 20.9883 8.26378 20.8494C8.03987 20.7105 7.86865 20.501 7.77722 20.2538C7.68579 20.0067 7.67935 19.7362 7.75894 19.485C7.83853 19.2338 7.9996 19.0163 8.21666 18.867C9.01354 18.2639 15.8193 12.212 20.4067 12.212H20.5359C21.2195 12.1708 21.9025 12.3009 22.5231 12.5905C23.1436 12.88 23.6821 13.32 24.0896 13.8703C24.3632 14.4265 24.5055 15.0381 24.5055 15.6579C24.5055 16.2778 24.3632 16.8893 24.0896 17.4455C24.0344 17.5994 23.9481 17.7401 23.8359 17.859C23.7238 17.9778 23.5882 18.0722 23.4378 18.1361C23.2874 18.2 23.1254 18.2322 22.962 18.2305C22.7986 18.2287 22.6373 18.1932 22.4883 18.1262C22.3393 18.0591 22.2058 17.962 22.0961 17.8408C21.9865 17.7196 21.9031 17.5771 21.8512 17.4221C21.7993 17.2672 21.78 17.1031 21.7946 16.9404C21.8092 16.7776 21.8573 16.6196 21.9358 16.4763C22.0253 16.2613 22.0713 16.0308 22.0713 15.7979C22.0713 15.5651 22.0253 15.3345 21.9358 15.1195C21.7205 14.7964 21.1174 14.6026 20.2344 14.5811C17.2838 14.5811 11.6841 18.9962 9.76734 20.8269C9.54508 20.9745 9.27946 21.0428 9.01354 21.0207Z" fill="#00D6D6"/>
</g>
<defs>
<clipPath id="clip0_1_166">
<rect width="51" height="77" fill="white" transform="translate(0.398682 0.590393)"/>
</clipPath>
</defs>
</svg>